<?xml version="1.0" encoding="utf-8"?>
<!-- Generator: Adobe Illustrator 16.0.0, SVG Export Plug-In . SVG Version: 6.00 Build 0)  -->
<!DOCTYPE svg PUBLIC "-//W3C//DTD SVG 1.1//EN" "http://www.w3.org/Graphics/SVG/1.1/DTD/svg11.dtd">
<svg version="1.1" id="Layer_1" xmlns="http://www.w3.org/2000/svg" xmlns:xlink="http://www.w3.org/1999/xlink" x="0px" y="0px"
	 width="145.867px" height="125.338px" viewBox="0 0 145.867 125.338" enable-background="new 0 0 145.867 125.338"
	 xml:space="preserve">
<g>
	<g>
		<defs>
			<path id="SVGID_33_" d="M-468.174-1152.36c0-17.67,14.329-31.994,32.006-31.994h397.334c17.677,0,32.007,14.332,32.007,31.994
				v249.412c0,17.67-14.329,31.994-32.007,31.994h-397.334c-17.676,0-32.006-14.332-32.006-31.994V-1152.36z"/>
		</defs>
		<clipPath id="SVGID_2_">
			<use xlink:href="#SVGID_33_"  overflow="visible"/>
		</clipPath>
		<g clip-path="url(#SVGID_2_)">
			<defs>
				<rect id="SVGID_35_" x="-838" y="-1679.154" width="1200" height="4459"/>
			</defs>
			<clipPath id="SVGID_4_">
				<use xlink:href="#SVGID_35_"  overflow="visible"/>
			</clipPath>
		</g>
	</g>
	<g>
		<defs>
			<path id="SVGID_37_" d="M-459-1149.157c0-13.806,11.2-24.997,25.007-24.997h392.986c13.811,0,25.007,11.195,25.007,24.997
				v243.006c0,13.806-11.2,24.997-25.007,24.997h-392.986c-13.811,0-25.007-11.195-25.007-24.997V-1149.157z"/>
		</defs>
		<clipPath id="SVGID_6_">
			<use xlink:href="#SVGID_37_"  overflow="visible"/>
		</clipPath>
		<g clip-path="url(#SVGID_6_)">
			<defs>
				<rect id="SVGID_39_" x="-838" y="-1679.154" width="1200" height="4459"/>
			</defs>
			<clipPath id="SVGID_8_">
				<use xlink:href="#SVGID_39_"  overflow="visible"/>
			</clipPath>
		</g>
	</g>
	<g>
		<defs>
			<path id="SVGID_41_" d="M-432.5-1162.156v271.004c0,1.384,1.121,2.498,2.506,2.498h372.988c1.389,0,2.506-1.115,2.506-2.498
				v-271.004c0-1.384-1.121-2.498-2.506-2.498h-372.988C-431.383-1164.654-432.5-1163.539-432.5-1162.156z M-431.5-1162.156
				c0-0.83,0.669-1.498,1.506-1.498h372.988c0.834,0,1.506,0.668,1.506,1.498v271.004c0,0.83-0.669,1.498-1.506,1.498h-372.988
				c-0.834,0-1.506-0.668-1.506-1.498V-1162.156z M-452.5-1184.654h418v316h-418V-1184.654z"/>
		</defs>
		<clipPath id="SVGID_10_">
			<use xlink:href="#SVGID_41_"  overflow="visible"/>
		</clipPath>
		<g clip-path="url(#SVGID_10_)">
			<defs>
				<path id="SVGID_43_" d="M-432-1162.156c0-1.104,0.89-1.998,2.006-1.998h372.988c1.107,0,2.006,0.889,2.006,1.998v271.004
					c0,1.104-0.89,1.998-2.006,1.998h-372.988c-1.108,0-2.006-0.889-2.006-1.998V-1162.156z"/>
			</defs>
			<clipPath id="SVGID_12_">
				<use xlink:href="#SVGID_43_"  overflow="visible"/>
			</clipPath>
			<g clip-path="url(#SVGID_12_)">
				<defs>
					<rect id="SVGID_45_" x="-838" y="-1679.154" width="1200" height="4459"/>
				</defs>
				<clipPath id="SVGID_14_">
					<use xlink:href="#SVGID_45_"  overflow="visible"/>
				</clipPath>
			</g>
		</g>
	</g>
	<g>
		<defs>
			<path id="SVGID_47_" d="M-432-1162.156c0-1.104,0.89-1.998,2.006-1.998h372.988c1.107,0,2.006,0.889,2.006,1.998v271.004
				c0,1.104-0.89,1.998-2.006,1.998h-372.988c-1.108,0-2.006-0.889-2.006-1.998V-1162.156z"/>
		</defs>
		<clipPath id="SVGID_16_">
			<use xlink:href="#SVGID_47_"  overflow="visible"/>
		</clipPath>
		<g clip-path="url(#SVGID_16_)">
			<defs>
				<rect id="SVGID_49_" x="-838" y="-1679.154" width="1200" height="4459"/>
			</defs>
			<clipPath id="SVGID_18_">
				<use xlink:href="#SVGID_49_"  overflow="visible"/>
			</clipPath>
		</g>
	</g>
	<g>
		<defs>
			<circle id="SVGID_51_" cx="-445.156" cy="-1027.654" r="2.898"/>
		</defs>
		<clipPath id="SVGID_20_">
			<use xlink:href="#SVGID_51_"  overflow="visible"/>
		</clipPath>
		<g clip-path="url(#SVGID_20_)">
			<defs>
				<rect id="SVGID_53_" x="-838" y="-1679.154" width="1200" height="4459"/>
			</defs>
			<clipPath id="SVGID_22_">
				<use xlink:href="#SVGID_53_"  overflow="visible"/>
			</clipPath>
		</g>
	</g>
	<g>
		<defs>
			<circle id="SVGID_55_" cx="-35.639" cy="-1027.654" r="9.337"/>
		</defs>
		<clipPath id="SVGID_24_">
			<use xlink:href="#SVGID_55_"  overflow="visible"/>
		</clipPath>
		<g clip-path="url(#SVGID_24_)">
			<defs>
				<rect id="SVGID_57_" x="-838" y="-1679.154" width="1200" height="4459"/>
			</defs>
			<clipPath id="SVGID_26_">
				<use xlink:href="#SVGID_57_"  overflow="visible"/>
			</clipPath>
		</g>
	</g>
	<g>
		<defs>
			<path id="SVGID_59_" d="M-431-931.154h375v40.007c0,0.548-0.445,0.993-0.994,0.993h-373.012c-0.549,0-0.994-0.446-0.994-0.993
				V-931.154z"/>
		</defs>
		<clipPath id="SVGID_28_">
			<use xlink:href="#SVGID_59_"  overflow="visible"/>
		</clipPath>
		<g clip-path="url(#SVGID_28_)">
			<defs>
				<rect id="SVGID_61_" x="-838" y="-1679.154" width="1200" height="4459"/>
			</defs>
			<clipPath id="SVGID_30_">
				<use xlink:href="#SVGID_61_"  overflow="visible"/>
			</clipPath>
		</g>
	</g>
	<g>
		<defs>
			<path id="SVGID_63_" d="M-56-1142.154h-375v-20.001c0-0.552,0.445-0.999,0.994-0.999h373.012c0.549,0,0.994,0.439,0.994,0.999
				V-1142.154z"/>
		</defs>
		<clipPath id="SVGID_32_">
			<use xlink:href="#SVGID_63_"  overflow="visible"/>
		</clipPath>
		<g clip-path="url(#SVGID_32_)">
			<defs>
				<rect id="SVGID_65_" x="-838" y="-1679.154" width="1200" height="4459"/>
			</defs>
			<clipPath id="SVGID_34_">
				<use xlink:href="#SVGID_65_"  overflow="visible"/>
			</clipPath>
		</g>
	</g>
	<g>
		<defs>
			<path id="SVGID_67_" d="M-409.616-1154.27v-1.885h3.692v1.866c0,3.093-2.479,5.599-5.538,5.599c-3.059,0-5.538-2.506-5.538-5.599
				v-1.866h3.692v1.883c0.009,1.023,0.832,1.85,1.846,1.85C-410.449-1152.421-409.626-1153.247-409.616-1154.27z"/>
		</defs>
		<clipPath id="SVGID_36_">
			<use xlink:href="#SVGID_67_"  overflow="visible"/>
		</clipPath>
		<g clip-path="url(#SVGID_36_)">
			<defs>
				<rect id="SVGID_69_" x="-838" y="-1679.154" width="1200" height="4459"/>
			</defs>
			<clipPath id="SVGID_38_">
				<use xlink:href="#SVGID_69_"  overflow="visible"/>
			</clipPath>
		</g>
	</g>
	<g>
		<defs>
			<circle id="SVGID_71_" cx="-193" cy="-1059.154" r="2"/>
		</defs>
		<clipPath id="SVGID_40_">
			<use xlink:href="#SVGID_71_"  overflow="visible"/>
		</clipPath>
		<g clip-path="url(#SVGID_40_)">
			<defs>
				<rect id="SVGID_73_" x="-838" y="-1679.154" width="1200" height="4459"/>
			</defs>
			<clipPath id="SVGID_42_">
				<use xlink:href="#SVGID_73_"  overflow="visible"/>
			</clipPath>
		</g>
	</g>
	<g>
		<defs>
			<circle id="SVGID_75_" cx="-193" cy="-1111.154" r="2"/>
		</defs>
		<clipPath id="SVGID_44_">
			<use xlink:href="#SVGID_75_"  overflow="visible"/>
		</clipPath>
		<g clip-path="url(#SVGID_44_)">
			<defs>
				<rect id="SVGID_77_" x="-838" y="-1679.154" width="1200" height="4459"/>
			</defs>
			<clipPath id="SVGID_46_">
				<use xlink:href="#SVGID_77_"  overflow="visible"/>
			</clipPath>
		</g>
	</g>
	<g>
		<defs>
			<circle id="SVGID_79_" cx="-137" cy="-1111.154" r="2"/>
		</defs>
		<clipPath id="SVGID_48_">
			<use xlink:href="#SVGID_79_"  overflow="visible"/>
		</clipPath>
		<g clip-path="url(#SVGID_48_)">
			<defs>
				<rect id="SVGID_81_" x="-838" y="-1679.154" width="1200" height="4459"/>
			</defs>
			<clipPath id="SVGID_50_">
				<use xlink:href="#SVGID_81_"  overflow="visible"/>
			</clipPath>
		</g>
	</g>
	<g>
		<defs>
			<circle id="SVGID_83_" cx="-249" cy="-1111.154" r="2"/>
		</defs>
		<clipPath id="SVGID_52_">
			<use xlink:href="#SVGID_83_"  overflow="visible"/>
		</clipPath>
		<g clip-path="url(#SVGID_52_)">
			<defs>
				<rect id="SVGID_85_" x="-838" y="-1679.154" width="1200" height="4459"/>
			</defs>
			<clipPath id="SVGID_54_">
				<use xlink:href="#SVGID_85_"  overflow="visible"/>
			</clipPath>
		</g>
	</g>
	<g>
		<defs>
			<circle id="SVGID_87_" cx="-306" cy="-1111.154" r="2"/>
		</defs>
		<clipPath id="SVGID_56_">
			<use xlink:href="#SVGID_87_"  overflow="visible"/>
		</clipPath>
		<g clip-path="url(#SVGID_56_)">
			<defs>
				<rect id="SVGID_89_" x="-838" y="-1679.154" width="1200" height="4459"/>
			</defs>
			<clipPath id="SVGID_58_">
				<use xlink:href="#SVGID_89_"  overflow="visible"/>
			</clipPath>
		</g>
	</g>
	<g>
		<defs>
			<circle id="SVGID_91_" cx="-306" cy="-1059.154" r="2"/>
		</defs>
		<clipPath id="SVGID_60_">
			<use xlink:href="#SVGID_91_"  overflow="visible"/>
		</clipPath>
		<g clip-path="url(#SVGID_60_)">
			<defs>
				<rect id="SVGID_93_" x="-838" y="-1679.154" width="1200" height="4459"/>
			</defs>
			<clipPath id="SVGID_62_">
				<use xlink:href="#SVGID_93_"  overflow="visible"/>
			</clipPath>
		</g>
	</g>
	<g>
		<defs>
			<circle id="SVGID_95_" cx="-364" cy="-1111.154" r="2"/>
		</defs>
		<clipPath id="SVGID_64_">
			<use xlink:href="#SVGID_95_"  overflow="visible"/>
		</clipPath>
		<g clip-path="url(#SVGID_64_)">
			<defs>
				<rect id="SVGID_97_" x="-838" y="-1679.154" width="1200" height="4459"/>
			</defs>
			<clipPath id="SVGID_66_">
				<use xlink:href="#SVGID_97_"  overflow="visible"/>
			</clipPath>
		</g>
	</g>
	<g>
		<defs>
			<circle id="SVGID_99_" cx="-364" cy="-1003.154" r="2"/>
		</defs>
		<clipPath id="SVGID_68_">
			<use xlink:href="#SVGID_99_"  overflow="visible"/>
		</clipPath>
		<g clip-path="url(#SVGID_68_)">
			<defs>
				<rect id="SVGID_101_" x="-838" y="-1679.154" width="1200" height="4459"/>
			</defs>
			<clipPath id="SVGID_70_">
				<use xlink:href="#SVGID_101_"  overflow="visible"/>
			</clipPath>
		</g>
	</g>
	<g>
		<defs>
			<circle id="SVGID_103_" cx="-221" cy="-1003.154" r="2"/>
		</defs>
		<clipPath id="SVGID_72_">
			<use xlink:href="#SVGID_103_"  overflow="visible"/>
		</clipPath>
		<g clip-path="url(#SVGID_72_)">
			<defs>
				<rect id="SVGID_105_" x="-838" y="-1679.154" width="1200" height="4459"/>
			</defs>
			<clipPath id="SVGID_74_">
				<use xlink:href="#SVGID_105_"  overflow="visible"/>
			</clipPath>
		</g>
	</g>
	<g>
		<defs>
			<circle id="SVGID_107_" cx="-115.5" cy="-1152.654" r="5.5"/>
		</defs>
		<clipPath id="SVGID_76_">
			<use xlink:href="#SVGID_107_"  overflow="visible"/>
		</clipPath>
		<g clip-path="url(#SVGID_76_)">
			<defs>
				<rect id="SVGID_109_" x="-838" y="-1679.154" width="1200" height="4459"/>
			</defs>
			<clipPath id="SVGID_78_">
				<use xlink:href="#SVGID_109_"  overflow="visible"/>
			</clipPath>
		</g>
	</g>
</g>
<g>
	<g>
		<defs>
			<path id="SVGID_175_" d="M135.317,51.613c1.806-1.773,4.703-1.763,6.494,0.033c1.794,1.798,1.802,4.706,0.026,6.515l-3.289,3.298
				l3.278,3.286c1.786,1.808,1.781,4.724-0.016,6.526c-1.788,1.791-4.678,1.805-6.484,0.043L132.021,68l-3.263,3.27
				c-1.803,1.807-4.727,1.806-6.529,0c-1.782-1.787-1.801-4.67-0.06-6.48l3.324-3.331l-3.28-3.287c-1.78-1.802-1.78-4.706,0-6.509
				l0.034-0.033c1.789-1.775,4.665-1.784,6.466-0.027l3.308,3.315L135.317,51.613z"/>
		</defs>
		<clipPath id="SVGID_80_">
			<use xlink:href="#SVGID_175_"  overflow="visible"/>
		</clipPath>
		<g clip-path="url(#SVGID_80_)">
			<defs>
				<rect id="SVGID_177_" x="-535" y="-1630.154" width="1200" height="4459"/>
			</defs>
			<clipPath id="SVGID_82_">
				<use xlink:href="#SVGID_177_"  overflow="visible"/>
			</clipPath>
			<rect x="115.878" y="45.291" clip-path="url(#SVGID_82_)" fill="#11C26F" width="32.285" height="32.334"/>
		</g>
	</g>
	<g>
		<defs>
			<path id="SVGID_179_" d="M95.216,111.461c0,2.555-2.066,4.626-4.616,4.626c-2.549,0-4.615-2.071-4.615-4.626
				c0-2.554,2.066-4.625,4.615-4.625C93.149,106.836,95.216,108.907,95.216,111.461"/>
		</defs>
		<clipPath id="SVGID_84_">
			<use xlink:href="#SVGID_179_"  overflow="visible"/>
		</clipPath>
		<g clip-path="url(#SVGID_84_)">
			<defs>
				<rect id="SVGID_181_" x="-535" y="-1630.154" width="1200" height="4459"/>
			</defs>
			<clipPath id="SVGID_86_">
				<use xlink:href="#SVGID_181_"  overflow="visible"/>
			</clipPath>
			<rect x="80.984" y="101.836" clip-path="url(#SVGID_86_)" fill="#11C26F" width="19.231" height="19.251"/>
		</g>
	</g>
	<g>
		<defs>
			<path id="SVGID_183_" d="M14.624,8.634c-1.803-1.806-4.725-1.806-6.527,0c-0.802,0.804-2.032,2.036-3.262,3.269l6.527,6.542
				c1.23-1.233,2.46-2.466,3.262-3.269C16.426,13.369,16.426,10.439,14.624,8.634"/>
		</defs>
		<clipPath id="SVGID_88_">
			<use xlink:href="#SVGID_183_"  overflow="visible"/>
		</clipPath>
		<g clip-path="url(#SVGID_88_)">
			<defs>
				<rect id="SVGID_185_" x="-535" y="-1630.154" width="1200" height="4459"/>
			</defs>
			<clipPath id="SVGID_90_">
				<use xlink:href="#SVGID_185_"  overflow="visible"/>
			</clipPath>
			<rect x="-0.165" y="2.279" clip-path="url(#SVGID_90_)" fill="#11C26F" width="21.141" height="21.166"/>
		</g>
	</g>
	<g>
		<defs>
			<path id="SVGID_187_" d="M1.352,15.394c-1.803,1.806-1.803,4.735,0,6.541c1.802,1.807,4.725,1.807,6.527,0
				c0.803-0.804,2.034-2.038,3.265-3.272l-6.527-6.542C3.386,13.354,2.154,14.59,1.352,15.394"/>
		</defs>
		<clipPath id="SVGID_92_">
			<use xlink:href="#SVGID_187_"  overflow="visible"/>
		</clipPath>
		<g clip-path="url(#SVGID_92_)">
			<defs>
				<rect id="SVGID_189_" x="-535" y="-1630.154" width="1200" height="4459"/>
			</defs>
			<clipPath id="SVGID_94_">
				<use xlink:href="#SVGID_189_"  overflow="visible"/>
			</clipPath>
			<rect x="-5" y="7.121" clip-path="url(#SVGID_94_)" fill="#11C26F" width="21.144" height="21.169"/>
		</g>
	</g>
	<g>
		<defs>
			<path id="SVGID_191_" d="M52.446,106.836h4.614v-9.251h-4.616c-7.647,0-13.846,6.212-13.846,13.876s6.199,13.877,13.846,13.877
				h4.616v-9.251h-4.701c-2.509-0.047-4.53-2.099-4.53-4.625C47.829,108.907,49.896,106.836,52.446,106.836"/>
		</defs>
		<clipPath id="SVGID_96_">
			<use xlink:href="#SVGID_191_"  overflow="visible"/>
		</clipPath>
		<g clip-path="url(#SVGID_96_)">
			<defs>
				<rect id="SVGID_193_" x="-535" y="-1630.154" width="1200" height="4459"/>
			</defs>
			<clipPath id="SVGID_98_">
				<use xlink:href="#SVGID_193_"  overflow="visible"/>
			</clipPath>
			<rect x="33.599" y="92.585" clip-path="url(#SVGID_98_)" fill="#11C26F" width="28.461" height="37.753"/>
		</g>
	</g>
	<g>
		<defs>
			<polygon id="SVGID_195_" points="47.829,54.917 41.302,48.375 34.775,54.917 41.302,61.458 34.775,68 41.302,74.541 47.829,68 
				54.356,74.541 60.883,68 54.356,61.458 60.883,54.917 54.356,48.375 			"/>
		</defs>
		<clipPath id="SVGID_100_">
			<use xlink:href="#SVGID_195_"  overflow="visible"/>
		</clipPath>
		<g clip-path="url(#SVGID_100_)">
			<defs>
				<rect id="SVGID_197_" x="-535" y="-1630.154" width="1200" height="4459"/>
			</defs>
			<clipPath id="SVGID_102_">
				<use xlink:href="#SVGID_197_"  overflow="visible"/>
			</clipPath>
			<rect x="29.775" y="43.375" clip-path="url(#SVGID_102_)" fill="#E8E5FF" width="36.109" height="36.166"/>
		</g>
	</g>
	<g>
		<defs>
			<rect id="SVGID_199_" x="86.546" y="8.284" width="9.231" height="9.251"/>
		</defs>
		<clipPath id="SVGID_104_">
			<use xlink:href="#SVGID_199_"  overflow="visible"/>
		</clipPath>
		<g clip-path="url(#SVGID_104_)">
			<defs>
				<rect id="SVGID_201_" x="-535" y="-1630.154" width="1200" height="4459"/>
			</defs>
			<clipPath id="SVGID_106_">
				<use xlink:href="#SVGID_201_"  overflow="visible"/>
			</clipPath>
			<rect x="81.546" y="3.284" clip-path="url(#SVGID_106_)" fill="#E8E5FF" width="19.231" height="19.251"/>
		</g>
	</g>
	<g>
		<defs>
			<polygon id="SVGID_203_" points="135.176,18.665 128.648,25.206 122.121,18.665 128.648,12.123 			"/>
		</defs>
		<clipPath id="SVGID_108_">
			<use xlink:href="#SVGID_203_"  overflow="visible"/>
		</clipPath>
		<g clip-path="url(#SVGID_108_)">
			<defs>
				<rect id="SVGID_205_" x="-535" y="-1630.154" width="1200" height="4459"/>
			</defs>
			<clipPath id="SVGID_110_">
				<use xlink:href="#SVGID_205_"  overflow="visible"/>
			</clipPath>
			<rect x="117.121" y="7.123" clip-path="url(#SVGID_110_)" fill="#E8E5FF" width="23.055" height="23.083"/>
		</g>
	</g>
	<g>
		<defs>
			<polygon id="SVGID_207_" points="141.92,11.905 135.394,18.446 128.866,11.905 135.394,5.363 			"/>
		</defs>
		<clipPath id="SVGID_112_">
			<use xlink:href="#SVGID_207_"  overflow="visible"/>
		</clipPath>
		<g clip-path="url(#SVGID_112_)">
			<defs>
				<rect id="SVGID_209_" x="-535" y="-1630.154" width="1200" height="4459"/>
			</defs>
			<clipPath id="SVGID_114_">
				<use xlink:href="#SVGID_209_"  overflow="visible"/>
			</clipPath>
			<rect x="123.866" y="0.363" clip-path="url(#SVGID_114_)" fill="#E8E5FF" width="23.054" height="23.083"/>
		</g>
	</g>
	<g>
		<defs>
			<path id="SVGID_211_" d="M136.637,120.712h9.23v-4.625c0-7.664-6.199-13.877-13.847-13.877c-7.646,0-13.846,6.213-13.846,13.877
				v4.625h9.23v-9.251h9.231V120.712z"/>
		</defs>
		<clipPath id="SVGID_116_">
			<use xlink:href="#SVGID_211_"  overflow="visible"/>
		</clipPath>
		<g clip-path="url(#SVGID_116_)">
			<defs>
				<rect id="SVGID_213_" x="-535" y="-1630.154" width="1200" height="4459"/>
			</defs>
			<clipPath id="SVGID_118_">
				<use xlink:href="#SVGID_213_"  overflow="visible"/>
			</clipPath>
			<rect x="113.175" y="97.21" clip-path="url(#SVGID_118_)" fill="#E8E5FF" width="37.692" height="28.502"/>
		</g>
	</g>
	<g>
		<defs>
			<polygon id="SVGID_215_" points="57.061,9.139 52.444,9.139 52.444,4.625 47.83,0 43.214,4.627 43.214,9.139 38.597,9.139 
				33.983,13.764 38.6,18.39 43.214,18.39 43.214,23.127 47.719,27.641 47.942,27.641 52.444,23.129 52.444,18.39 57.059,18.39 
				61.675,13.764 			"/>
		</defs>
		<clipPath id="SVGID_120_">
			<use xlink:href="#SVGID_215_"  overflow="visible"/>
		</clipPath>
		<g clip-path="url(#SVGID_120_)">
			<defs>
				<rect id="SVGID_217_" x="-535" y="-1630.154" width="1200" height="4459"/>
			</defs>
			<clipPath id="SVGID_122_">
				<use xlink:href="#SVGID_217_"  overflow="visible"/>
			</clipPath>
			<rect x="28.983" y="-5" clip-path="url(#SVGID_122_)" fill="#E8E5FF" width="37.692" height="37.641"/>
		</g>
	</g>
	<g>
		<defs>
			<polygon id="SVGID_219_" points="7.988,65.513 12.604,60.886 7.986,56.262 3.371,60.886 			"/>
		</defs>
		<clipPath id="SVGID_124_">
			<use xlink:href="#SVGID_219_"  overflow="visible"/>
		</clipPath>
		<g clip-path="url(#SVGID_124_)">
			<defs>
				<rect id="SVGID_221_" x="-535" y="-1630.154" width="1200" height="4459"/>
			</defs>
			<clipPath id="SVGID_126_">
				<use xlink:href="#SVGID_221_"  overflow="visible"/>
			</clipPath>
			<rect x="-1.629" y="51.262" clip-path="url(#SVGID_126_)" fill="#E8E5FF" width="19.233" height="19.251"/>
		</g>
	</g>
	<g>
		<defs>
			<polygon id="SVGID_223_" points="7.876,104.809 1.351,104.809 1.35,111.352 4.615,114.624 11.142,108.082 			"/>
		</defs>
		<clipPath id="SVGID_128_">
			<use xlink:href="#SVGID_223_"  overflow="visible"/>
		</clipPath>
		<g clip-path="url(#SVGID_128_)">
			<defs>
				<rect id="SVGID_225_" x="-535" y="-1630.154" width="1200" height="4459"/>
			</defs>
			<clipPath id="SVGID_130_">
				<use xlink:href="#SVGID_225_"  overflow="visible"/>
			</clipPath>
			<rect x="-3.65" y="99.809" clip-path="url(#SVGID_130_)" fill="#E8E5FF" width="19.792" height="19.815"/>
		</g>
	</g>
	<g>
		<defs>
			<polygon id="SVGID_227_" points="14.625,118.114 14.623,111.57 11.359,108.3 4.833,114.842 8.097,118.114 			"/>
		</defs>
		<clipPath id="SVGID_132_">
			<use xlink:href="#SVGID_227_"  overflow="visible"/>
		</clipPath>
		<g clip-path="url(#SVGID_132_)">
			<defs>
				<rect id="SVGID_229_" x="-535" y="-1630.154" width="1200" height="4459"/>
			</defs>
			<clipPath id="SVGID_134_">
				<use xlink:href="#SVGID_229_"  overflow="visible"/>
			</clipPath>
			<rect x="-0.167" y="103.3" clip-path="url(#SVGID_134_)" fill="#E8E5FF" width="19.793" height="19.814"/>
		</g>
	</g>
	<g>
		<defs>
			<path id="SVGID_231_" d="M82.492,65.686v9.251h4.615c7.647,0,13.847-6.213,13.847-13.877s-6.199-13.876-13.847-13.876h-4.615
				v9.251h6.153l4.617,4.626l-4.614,4.625H82.492z"/>
		</defs>
		<clipPath id="SVGID_136_">
			<use xlink:href="#SVGID_231_"  overflow="visible"/>
		</clipPath>
		<g clip-path="url(#SVGID_136_)">
			<defs>
				<rect id="SVGID_233_" x="-535" y="-1630.154" width="1200" height="4459"/>
			</defs>
			<clipPath id="SVGID_138_">
				<use xlink:href="#SVGID_233_"  overflow="visible"/>
			</clipPath>
			<rect x="77.492" y="42.184" clip-path="url(#SVGID_138_)" fill="#E8E5FF" width="28.462" height="37.753"/>
		</g>
	</g>
</g>
<g>
	<g>
		<defs>
			
				<rect id="SVGID_259_" x="35.349" y="-99.228" transform="matrix(-0.7071 0.7071 -0.7071 -0.7071 48.0338 -170.532)" width="47.973" height="47.82"/>
		</defs>
		<clipPath id="SVGID_140_">
			<use xlink:href="#SVGID_259_"  overflow="visible"/>
		</clipPath>
		<g clip-path="url(#SVGID_140_)">
			<defs>
				<rect id="SVGID_261_" x="-189" y="-1650.154" width="1200" height="4459"/>
			</defs>
			<clipPath id="SVGID_142_">
				<use xlink:href="#SVGID_261_"  overflow="visible"/>
			</clipPath>
		</g>
	</g>
	<g>
		<g>
			<defs>
				<path id="SVGID_269_" d="M86.627-98.316l15.966-0.025l0.012-7.983c0.021-13.226-10.684-23.931-23.91-23.91
					c-13.226,0.021-23.965,10.76-23.986,23.986l-0.013,7.982l15.966-0.024l0.025-15.966l15.966-0.025L86.627-98.316z"/>
			</defs>
			<clipPath id="SVGID_144_">
				<use xlink:href="#SVGID_269_"  overflow="visible"/>
			</clipPath>
			<g clip-path="url(#SVGID_144_)">
				<defs>
					<rect id="SVGID_271_" x="-189" y="-1650.154" width="1200" height="4459"/>
				</defs>
				<clipPath id="SVGID_146_">
					<use xlink:href="#SVGID_271_"  overflow="visible"/>
				</clipPath>
			</g>
		</g>
		<g>
			<defs>
				
					<rect id="SVGID_273_" x="18.461" y="-74.35" transform="matrix(0.7071 0.7071 -0.7071 0.7071 -28.8555 -47.0543)" width="47.821" height="31.982"/>
			</defs>
			<clipPath id="SVGID_148_">
				<use xlink:href="#SVGID_273_"  overflow="visible"/>
			</clipPath>
			<g clip-path="url(#SVGID_148_)">
				<defs>
					<rect id="SVGID_275_" x="-189" y="-1650.154" width="1200" height="4459"/>
				</defs>
				<clipPath id="SVGID_150_">
					<use xlink:href="#SVGID_275_"  overflow="visible"/>
				</clipPath>
			</g>
		</g>
	</g>
</g>
<g>
	<g>
		<defs>
			<path id="SVGID_401_" d="M63.932,234.601l-5.899-5.936l-2.95,2.968c-4.888,4.917-4.888,12.89,0,17.807
				c4.888,4.918,12.812,4.918,17.698,0l2.95-2.968l-5.899-5.935l-3.784,3.807h-5.9v-5.936L63.932,234.601z"/>
		</defs>
		<clipPath id="SVGID_152_">
			<use xlink:href="#SVGID_401_"  overflow="visible"/>
		</clipPath>
		<g clip-path="url(#SVGID_152_)">
			<defs>
				<rect id="SVGID_403_" x="-832.994" y="-1350.522" width="1200" height="4459"/>
			</defs>
			<clipPath id="SVGID_154_">
				<use xlink:href="#SVGID_403_"  overflow="visible"/>
			</clipPath>
		</g>
	</g>
	<g>
		<defs>
			<rect id="SVGID_405_" x="60.623" y="185.7" width="5.901" height="5.938"/>
		</defs>
		<clipPath id="SVGID_156_">
			<use xlink:href="#SVGID_405_"  overflow="visible"/>
		</clipPath>
		<g clip-path="url(#SVGID_156_)">
			<defs>
				<rect id="SVGID_407_" x="-832.994" y="-1350.522" width="1200" height="4459"/>
			</defs>
			<clipPath id="SVGID_158_">
				<use xlink:href="#SVGID_407_"  overflow="visible"/>
			</clipPath>
		</g>
	</g>
	<g>
		<defs>
			<path id="SVGID_409_" d="M92.95,185.699c1.629,1.64,1.629,4.297,0,5.937c-1.629,1.639-4.271,1.639-5.899,0
				c-1.629-1.639-1.629-4.297,0-5.937C88.68,184.061,91.321,184.061,92.95,185.699"/>
		</defs>
		<clipPath id="SVGID_160_">
			<use xlink:href="#SVGID_409_"  overflow="visible"/>
		</clipPath>
		<g clip-path="url(#SVGID_160_)">
			<defs>
				<rect id="SVGID_411_" x="-832.994" y="-1350.522" width="1200" height="4459"/>
			</defs>
			<clipPath id="SVGID_162_">
				<use xlink:href="#SVGID_411_"  overflow="visible"/>
			</clipPath>
		</g>
	</g>
	<g>
		<defs>
			<path id="SVGID_413_" d="M148.554,185.699c1.629,1.64,1.629,4.297,0,5.937c-1.629,1.639-4.271,1.639-5.899,0
				c-1.629-1.639-1.629-4.297,0-5.937C144.283,184.061,146.925,184.061,148.554,185.699"/>
		</defs>
		<clipPath id="SVGID_164_">
			<use xlink:href="#SVGID_413_"  overflow="visible"/>
		</clipPath>
		<g clip-path="url(#SVGID_164_)">
			<defs>
				<rect id="SVGID_415_" x="-832.994" y="-1350.522" width="1200" height="4459"/>
			</defs>
			<clipPath id="SVGID_166_">
				<use xlink:href="#SVGID_415_"  overflow="visible"/>
			</clipPath>
		</g>
	</g>
	<g>
		<defs>
			<rect id="SVGID_417_" x="32.006" y="182.731" width="11.799" height="11.872"/>
		</defs>
		<clipPath id="SVGID_168_">
			<use xlink:href="#SVGID_417_"  overflow="visible"/>
		</clipPath>
		<g clip-path="url(#SVGID_168_)">
			<defs>
				<rect id="SVGID_419_" x="-832.994" y="-1350.522" width="1200" height="4459"/>
			</defs>
			<clipPath id="SVGID_170_">
				<use xlink:href="#SVGID_419_"  overflow="visible"/>
			</clipPath>
		</g>
	</g>
	<g>
		<defs>
			<polygon id="SVGID_427_" points="123.591,188.667 117.69,194.604 111.791,188.667 117.69,182.731 			"/>
		</defs>
		<clipPath id="SVGID_172_">
			<use xlink:href="#SVGID_427_"  overflow="visible"/>
		</clipPath>
		<g clip-path="url(#SVGID_172_)">
			<defs>
				<rect id="SVGID_429_" x="-832.994" y="-1350.522" width="1200" height="4459"/>
			</defs>
			<clipPath id="SVGID_174_">
				<use xlink:href="#SVGID_429_"  overflow="visible"/>
			</clipPath>
		</g>
	</g>
	<g>
		<defs>
			<rect id="SVGID_431_" x="114.74" y="264.04" width="5.901" height="5.938"/>
		</defs>
		<clipPath id="SVGID_176_">
			<use xlink:href="#SVGID_431_"  overflow="visible"/>
		</clipPath>
		<g clip-path="url(#SVGID_176_)">
			<defs>
				<rect id="SVGID_433_" x="-832.994" y="-1350.522" width="1200" height="4459"/>
			</defs>
			<clipPath id="SVGID_178_">
				<use xlink:href="#SVGID_433_"  overflow="visible"/>
			</clipPath>
		</g>
	</g>
	<g>
		<defs>
			<path id="SVGID_435_" d="M87.051,269.979c-1.629-1.639-1.629-4.297,0-5.936c1.629-1.64,4.271-1.639,5.899,0s1.629,4.296,0,5.936
				C91.321,271.617,88.68,271.617,87.051,269.979"/>
		</defs>
		<clipPath id="SVGID_180_">
			<use xlink:href="#SVGID_435_"  overflow="visible"/>
		</clipPath>
		<g clip-path="url(#SVGID_180_)">
			<defs>
				<rect id="SVGID_437_" x="-832.994" y="-1350.522" width="1200" height="4459"/>
			</defs>
			<clipPath id="SVGID_182_">
				<use xlink:href="#SVGID_437_"  overflow="visible"/>
			</clipPath>
		</g>
	</g>
	<g>
		<defs>
			<path id="SVGID_439_" d="M34.955,269.979c-1.629-1.639-1.629-4.297,0-5.936c1.63-1.64,4.271-1.639,5.9,0
				c1.629,1.639,1.629,4.296,0,5.936C39.226,271.617,36.585,271.617,34.955,269.979"/>
		</defs>
		<clipPath id="SVGID_184_">
			<use xlink:href="#SVGID_439_"  overflow="visible"/>
		</clipPath>
		<g clip-path="url(#SVGID_184_)">
			<defs>
				<rect id="SVGID_441_" x="-832.994" y="-1350.522" width="1200" height="4459"/>
			</defs>
			<clipPath id="SVGID_186_">
				<use xlink:href="#SVGID_441_"  overflow="visible"/>
			</clipPath>
		</g>
	</g>
	<g>
		<defs>
			<rect id="SVGID_443_" x="139.704" y="261.074" width="11.799" height="11.872"/>
		</defs>
		<clipPath id="SVGID_188_">
			<use xlink:href="#SVGID_443_"  overflow="visible"/>
		</clipPath>
		<g clip-path="url(#SVGID_188_)">
			<defs>
				<rect id="SVGID_445_" x="-832.994" y="-1350.522" width="1200" height="4459"/>
			</defs>
			<clipPath id="SVGID_190_">
				<use xlink:href="#SVGID_445_"  overflow="visible"/>
			</clipPath>
		</g>
	</g>
	<g>
		<defs>
			<rect id="SVGID_453_" x="57.674" y="261.074" width="11.799" height="11.872"/>
		</defs>
		<clipPath id="SVGID_192_">
			<use xlink:href="#SVGID_453_"  overflow="visible"/>
		</clipPath>
		<g clip-path="url(#SVGID_192_)">
			<defs>
				<rect id="SVGID_455_" x="-832.994" y="-1350.522" width="1200" height="4459"/>
			</defs>
			<clipPath id="SVGID_194_">
				<use xlink:href="#SVGID_455_"  overflow="visible"/>
			</clipPath>
		</g>
	</g>
	<g>
		<defs>
			<rect id="SVGID_463_" x="60.623" y="211.814" width="5.901" height="5.937"/>
		</defs>
		<clipPath id="SVGID_196_">
			<use xlink:href="#SVGID_463_"  overflow="visible"/>
		</clipPath>
		<g clip-path="url(#SVGID_196_)">
			<defs>
				<rect id="SVGID_465_" x="-832.994" y="-1350.522" width="1200" height="4459"/>
			</defs>
			<clipPath id="SVGID_198_">
				<use xlink:href="#SVGID_465_"  overflow="visible"/>
			</clipPath>
		</g>
	</g>
	<g>
		<defs>
			<path id="SVGID_467_" d="M40.855,211.813c1.629,1.639,1.629,4.297,0,5.936c-1.629,1.64-4.271,1.639-5.9,0
				c-1.629-1.639-1.629-4.296,0-5.936C36.585,210.175,39.227,210.175,40.855,211.813"/>
		</defs>
		<clipPath id="SVGID_200_">
			<use xlink:href="#SVGID_467_"  overflow="visible"/>
		</clipPath>
		<g clip-path="url(#SVGID_200_)">
			<defs>
				<rect id="SVGID_469_" x="-832.994" y="-1350.522" width="1200" height="4459"/>
			</defs>
			<clipPath id="SVGID_202_">
				<use xlink:href="#SVGID_469_"  overflow="visible"/>
			</clipPath>
		</g>
	</g>
	<g>
		<defs>
			<polygon id="SVGID_471_" points="95.899,214.781 90,220.718 84.101,214.781 90,208.846 			"/>
		</defs>
		<clipPath id="SVGID_204_">
			<use xlink:href="#SVGID_471_"  overflow="visible"/>
		</clipPath>
		<g clip-path="url(#SVGID_204_)">
			<defs>
				<rect id="SVGID_473_" x="-832.994" y="-1350.522" width="1200" height="4459"/>
			</defs>
			<clipPath id="SVGID_206_">
				<use xlink:href="#SVGID_473_"  overflow="visible"/>
			</clipPath>
		</g>
	</g>
	<g>
		<defs>
			<rect id="SVGID_475_" x="114.74" y="211.814" width="5.901" height="5.937"/>
		</defs>
		<clipPath id="SVGID_208_">
			<use xlink:href="#SVGID_475_"  overflow="visible"/>
		</clipPath>
		<g clip-path="url(#SVGID_208_)">
			<defs>
				<rect id="SVGID_477_" x="-832.994" y="-1350.522" width="1200" height="4459"/>
			</defs>
			<clipPath id="SVGID_210_">
				<use xlink:href="#SVGID_477_"  overflow="visible"/>
			</clipPath>
		</g>
	</g>
	<g>
		<defs>
			<polygon id="SVGID_479_" points="151.503,214.781 145.604,220.718 139.704,214.781 145.604,208.846 			"/>
		</defs>
		<clipPath id="SVGID_212_">
			<use xlink:href="#SVGID_479_"  overflow="visible"/>
		</clipPath>
		<g clip-path="url(#SVGID_212_)">
			<defs>
				<rect id="SVGID_481_" x="-832.994" y="-1350.522" width="1200" height="4459"/>
			</defs>
			<clipPath id="SVGID_214_">
				<use xlink:href="#SVGID_481_"  overflow="visible"/>
			</clipPath>
		</g>
	</g>
	<g>
		<defs>
			<rect id="SVGID_483_" x="142.653" y="237.929" width="5.901" height="5.937"/>
		</defs>
		<clipPath id="SVGID_216_">
			<use xlink:href="#SVGID_483_"  overflow="visible"/>
		</clipPath>
		<g clip-path="url(#SVGID_216_)">
			<defs>
				<rect id="SVGID_485_" x="-832.994" y="-1350.522" width="1200" height="4459"/>
			</defs>
			<clipPath id="SVGID_218_">
				<use xlink:href="#SVGID_485_"  overflow="visible"/>
			</clipPath>
		</g>
	</g>
	<g>
		<defs>
			<rect id="SVGID_487_" x="34.955" y="237.929" width="5.9" height="5.937"/>
		</defs>
		<clipPath id="SVGID_220_">
			<use xlink:href="#SVGID_487_"  overflow="visible"/>
		</clipPath>
		<g clip-path="url(#SVGID_220_)">
			<defs>
				<rect id="SVGID_489_" x="-832.994" y="-1350.522" width="1200" height="4459"/>
			</defs>
			<clipPath id="SVGID_222_">
				<use xlink:href="#SVGID_489_"  overflow="visible"/>
			</clipPath>
		</g>
	</g>
	<g>
		<defs>
			<path id="SVGID_491_" d="M120.641,237.929c1.629,1.639,1.629,4.296,0,5.936c-1.629,1.639-4.271,1.639-5.899,0
				c-1.629-1.64-1.629-4.297,0-5.936C116.37,236.289,119.012,236.289,120.641,237.929"/>
		</defs>
		<clipPath id="SVGID_224_">
			<use xlink:href="#SVGID_491_"  overflow="visible"/>
		</clipPath>
		<g clip-path="url(#SVGID_224_)">
			<defs>
				<rect id="SVGID_493_" x="-832.994" y="-1350.522" width="1200" height="4459"/>
			</defs>
			<clipPath id="SVGID_226_">
				<use xlink:href="#SVGID_493_"  overflow="visible"/>
			</clipPath>
		</g>
	</g>
	<g>
		<defs>
			<polygon id="SVGID_495_" points="95.899,240.896 90,246.833 84.101,240.896 90,234.96 			"/>
		</defs>
		<clipPath id="SVGID_228_">
			<use xlink:href="#SVGID_495_"  overflow="visible"/>
		</clipPath>
		<g clip-path="url(#SVGID_228_)">
			<defs>
				<rect id="SVGID_497_" x="-832.994" y="-1350.522" width="1200" height="4459"/>
			</defs>
			<clipPath id="SVGID_230_">
				<use xlink:href="#SVGID_497_"  overflow="visible"/>
			</clipPath>
		</g>
	</g>
	<g>
		<defs>
			<rect id="SVGID_499_" x="114.74" y="159.586" width="5.901" height="5.938"/>
		</defs>
		<clipPath id="SVGID_232_">
			<use xlink:href="#SVGID_499_"  overflow="visible"/>
		</clipPath>
		<g clip-path="url(#SVGID_232_)">
			<defs>
				<rect id="SVGID_501_" x="-832.994" y="-1350.522" width="1200" height="4459"/>
			</defs>
			<clipPath id="SVGID_234_">
				<use xlink:href="#SVGID_501_"  overflow="visible"/>
			</clipPath>
		</g>
	</g>
	<g>
		<defs>
			<path id="SVGID_503_" d="M92.95,159.585c1.629,1.639,1.629,4.297,0,5.936c-1.629,1.639-4.271,1.639-5.899,0
				c-1.629-1.639-1.629-4.297,0-5.936S91.321,157.946,92.95,159.585"/>
		</defs>
		<clipPath id="SVGID_236_">
			<use xlink:href="#SVGID_503_"  overflow="visible"/>
		</clipPath>
		<g clip-path="url(#SVGID_236_)">
			<defs>
				<rect id="SVGID_505_" x="-832.994" y="-1350.522" width="1200" height="4459"/>
			</defs>
			<clipPath id="SVGID_238_">
				<use xlink:href="#SVGID_505_"  overflow="visible"/>
			</clipPath>
		</g>
	</g>
	<g>
		<defs>
			<path id="SVGID_507_" d="M40.855,159.585c1.629,1.639,1.629,4.297,0,5.936c-1.63,1.639-4.271,1.639-5.9,0
				c-1.629-1.639-1.629-4.297,0-5.936C36.585,157.946,39.226,157.946,40.855,159.585"/>
		</defs>
		<clipPath id="SVGID_240_">
			<use xlink:href="#SVGID_507_"  overflow="visible"/>
		</clipPath>
		<g clip-path="url(#SVGID_240_)">
			<defs>
				<rect id="SVGID_509_" x="-832.994" y="-1350.522" width="1200" height="4459"/>
			</defs>
			<clipPath id="SVGID_242_">
				<use xlink:href="#SVGID_509_"  overflow="visible"/>
			</clipPath>
		</g>
	</g>
	<g>
		<defs>
			<polygon id="SVGID_511_" points="69.473,162.554 63.573,168.489 57.674,162.554 63.573,156.617 			"/>
		</defs>
		<clipPath id="SVGID_244_">
			<use xlink:href="#SVGID_511_"  overflow="visible"/>
		</clipPath>
		<g clip-path="url(#SVGID_244_)">
			<defs>
				<rect id="SVGID_513_" x="-832.994" y="-1350.522" width="1200" height="4459"/>
			</defs>
			<clipPath id="SVGID_246_">
				<use xlink:href="#SVGID_513_"  overflow="visible"/>
			</clipPath>
		</g>
	</g>
	<g>
		<defs>
			<polygon id="SVGID_515_" points="151.503,162.554 145.604,168.489 139.704,162.554 145.604,156.617 			"/>
		</defs>
		<clipPath id="SVGID_248_">
			<use xlink:href="#SVGID_515_"  overflow="visible"/>
		</clipPath>
		<g clip-path="url(#SVGID_248_)">
			<defs>
				<rect id="SVGID_517_" x="-832.994" y="-1350.522" width="1200" height="4459"/>
			</defs>
			<clipPath id="SVGID_250_">
				<use xlink:href="#SVGID_517_"  overflow="visible"/>
			</clipPath>
		</g>
	</g>
</g>
<g>
	<g>
		<defs>
			<path id="SVGID_531_" d="M102.033-1541.134v-7.643H117v7.567c0,12.536-10.052,22.698-22.451,22.698
				c-12.399,0-22.451-10.162-22.451-22.698v-7.567h14.967v7.633c0.037,4.148,3.373,7.5,7.484,7.5
				C98.657-1533.645,101.991-1536.991,102.033-1541.134z"/>
		</defs>
		<clipPath id="SVGID_252_">
			<use xlink:href="#SVGID_531_"  overflow="visible"/>
		</clipPath>
		<g clip-path="url(#SVGID_252_)">
			<defs>
				<rect id="SVGID_533_" x="15" y="-1598.154" width="1200" height="4459"/>
			</defs>
			<clipPath id="SVGID_254_">
				<use xlink:href="#SVGID_533_"  overflow="visible"/>
			</clipPath>
		</g>
	</g>
</g>
</svg>
