<?xml version="1.0" encoding="utf-8"?>
<!-- Generator: Adobe Illustrator 16.0.0, SVG Export Plug-In . SVG Version: 6.00 Build 0)  -->
<!DOCTYPE svg PUBLIC "-//W3C//DTD SVG 1.1//EN" "http://www.w3.org/Graphics/SVG/1.1/DTD/svg11.dtd">
<svg version="1.1" id="Layer_1" xmlns="http://www.w3.org/2000/svg" xmlns:xlink="http://www.w3.org/1999/xlink" x="0px" y="0px"
	 width="118.376px" height="88.032px" viewBox="0 0 118.376 88.032" enable-background="new 0 0 118.376 88.032"
	 xml:space="preserve">
<g>
	<g>
		<defs>
			<path id="SVGID_41_" d="M74.354,29.344H59.687V0h14.673c24.309,0,44.017,19.707,44.017,44.016S98.668,88.032,74.359,88.032
				H59.687V58.688h14.942c7.979-0.147,14.402-6.656,14.402-14.669C89.031,35.915,82.46,29.344,74.354,29.344"/>
		</defs>
		<clipPath id="SVGID_2_">
			<use xlink:href="#SVGID_41_"  overflow="visible"/>
		</clipPath>
		<rect x="54.687" y="-5" clip-path="url(#SVGID_2_)" fill="#29244E" width="68.689" height="98.032"/>
	</g>
	<g>
		<defs>
			<path id="SVGID_43_" d="M58.688,29.344V0H44.016C19.707,0,0,19.707,0,44.016s19.707,44.016,44.016,44.016h14.673V58.688H29.344
				V29.344H58.688z"/>
		</defs>
		<clipPath id="SVGID_4_">
			<use xlink:href="#SVGID_43_"  overflow="visible"/>
		</clipPath>
		<rect x="-5" y="-5" clip-path="url(#SVGID_4_)" fill="#FFFFFF" width="68.688" height="98.032"/>
	</g>
</g>
</svg>
