<?xml version="1.0" encoding="utf-8"?>
<!-- Generator: Adobe Illustrator 16.0.0, SVG Export Plug-In . SVG Version: 6.00 Build 0)  -->
<!DOCTYPE svg PUBLIC "-//W3C//DTD SVG 1.1//EN" "http://www.w3.org/Graphics/SVG/1.1/DTD/svg11.dtd">
<svg version="1.1" id="Layer_1" xmlns="http://www.w3.org/2000/svg" xmlns:xlink="http://www.w3.org/1999/xlink" x="0px" y="0px"
	 width="147.72px" height="88.032px" viewBox="0 0 147.72 88.032" enable-background="new 0 0 147.72 88.032" xml:space="preserve">
<g>
	<defs>
		<rect id="SVGID_9_" x="134" y="-368" width="1361" height="1451"/>
	</defs>
	<clipPath id="SVGID_2_">
		<use xlink:href="#SVGID_9_"  overflow="visible"/>
	</clipPath>
	<g clip-path="url(#SVGID_2_)">
		<defs>
			<rect id="SVGID_11_" x="216" y="-2309" width="1200" height="4459"/>
		</defs>
		<clipPath id="SVGID_4_">
			<use xlink:href="#SVGID_11_"  overflow="visible"/>
		</clipPath>
		<rect x="129" y="-373" clip-path="url(#SVGID_4_)" fill="#FEFF7C" width="1371" height="1461"/>
	</g>
</g>
<g>
	<defs>
		<rect id="SVGID_23_" x="134" y="1051" width="1361" height="1099"/>
	</defs>
	<clipPath id="SVGID_6_">
		<use xlink:href="#SVGID_23_"  overflow="visible"/>
	</clipPath>
	<g clip-path="url(#SVGID_6_)">
		<defs>
			<rect id="SVGID_25_" x="216" y="-2309" width="1200" height="4459"/>
		</defs>
		<clipPath id="SVGID_8_">
			<use xlink:href="#SVGID_25_"  overflow="visible"/>
		</clipPath>
	</g>
</g>
<g>
	<g>
		<defs>
			<path id="SVGID_357_" d="M118.376,73.364v14.668h29.344V73.36c0-24.31-19.707-44.018-44.016-44.018S59.688,49.051,59.688,73.36
				v14.672h29.344V73.09c0.147-7.978,6.656-14.402,14.669-14.402C111.805,58.688,118.376,65.259,118.376,73.364"/>
		</defs>
		<clipPath id="SVGID_10_">
			<use xlink:href="#SVGID_357_"  overflow="visible"/>
		</clipPath>
		<g clip-path="url(#SVGID_10_)">
			<defs>
				<rect id="SVGID_359_" x="-237" y="-2356" width="1200" height="4459"/>
			</defs>
			<clipPath id="SVGID_12_">
				<use xlink:href="#SVGID_359_"  overflow="visible"/>
			</clipPath>
			<rect x="54.688" y="24.343" clip-path="url(#SVGID_12_)" fill="#FFFFFF" width="98.032" height="68.689"/>
		</g>
	</g>
	<g>
		<defs>
			<path id="SVGID_361_" d="M58.688,29.344V0H44.016C19.707,0,0,19.707,0,44.016c0,24.31,19.707,44.017,44.016,44.017h14.672V58.688
				H29.344V29.344H58.688z"/>
		</defs>
		<clipPath id="SVGID_14_">
			<use xlink:href="#SVGID_361_"  overflow="visible"/>
		</clipPath>
		<g clip-path="url(#SVGID_14_)">
			<defs>
				<rect id="SVGID_363_" x="-237" y="-2356" width="1200" height="4459"/>
			</defs>
			<clipPath id="SVGID_16_">
				<use xlink:href="#SVGID_363_"  overflow="visible"/>
			</clipPath>
			<rect x="-5" y="-5" clip-path="url(#SVGID_16_)" fill="#29244E" width="68.688" height="98.032"/>
		</g>
	</g>
</g>
<g>
	<defs>
		<rect id="SVGID_367_" x="301" y="-55" width="98" height="99"/>
	</defs>
	<clipPath id="SVGID_18_">
		<use xlink:href="#SVGID_367_"  overflow="visible"/>
	</clipPath>
	<circle clip-path="url(#SVGID_18_)" fill-rule="evenodd" clip-rule="evenodd" fill="#FFFFFF" cx="148" cy="-12" r="25"/>
</g>
</svg>
