<?xml version="1.0" encoding="utf-8"?>
<!-- Generator: Adobe Illustrator 16.0.0, SVG Export Plug-In . SVG Version: 6.00 Build 0)  -->
<!DOCTYPE svg PUBLIC "-//W3C//DTD SVG 1.1//EN" "http://www.w3.org/Graphics/SVG/1.1/DTD/svg11.dtd">
<svg version="1.1" id="Layer_1" xmlns="http://www.w3.org/2000/svg" xmlns:xlink="http://www.w3.org/1999/xlink" x="0px" y="0px"
	 width="119.497px" height="116.329px" viewBox="0 0 119.497 116.329" enable-background="new 0 0 119.497 116.329"
	 xml:space="preserve">
<g>
	<g>
		<defs>
			<path id="SVGID_33_" d="M-500.18-1308.978c0-17.67,14.329-31.994,32.006-31.994h397.334c17.677,0,32.007,14.332,32.007,31.994
				v249.412c0,17.67-14.329,31.994-32.007,31.994h-397.334c-17.676,0-32.006-14.332-32.006-31.994V-1308.978z"/>
		</defs>
		<clipPath id="SVGID_2_">
			<use xlink:href="#SVGID_33_"  overflow="visible"/>
		</clipPath>
		<g clip-path="url(#SVGID_2_)">
			<defs>
				<rect id="SVGID_35_" x="-870.006" y="-1835.771" width="1200" height="4459"/>
			</defs>
			<clipPath id="SVGID_4_">
				<use xlink:href="#SVGID_35_"  overflow="visible"/>
			</clipPath>
		</g>
	</g>
	<g>
		<defs>
			<path id="SVGID_37_" d="M-491.006-1305.774c0-13.806,11.2-24.997,25.007-24.997h392.986c13.811,0,25.007,11.195,25.007,24.997
				v243.006c0,13.806-11.2,24.997-25.007,24.997h-392.986c-13.811,0-25.007-11.195-25.007-24.997V-1305.774z"/>
		</defs>
		<clipPath id="SVGID_6_">
			<use xlink:href="#SVGID_37_"  overflow="visible"/>
		</clipPath>
		<g clip-path="url(#SVGID_6_)">
			<defs>
				<rect id="SVGID_39_" x="-870.006" y="-1835.771" width="1200" height="4459"/>
			</defs>
			<clipPath id="SVGID_8_">
				<use xlink:href="#SVGID_39_"  overflow="visible"/>
			</clipPath>
		</g>
	</g>
	<g>
		<defs>
			<path id="SVGID_41_" d="M-464.506-1318.773v271.004c0,1.384,1.121,2.498,2.506,2.498h372.988c1.389,0,2.506-1.115,2.506-2.498
				v-271.004c0-1.384-1.121-2.498-2.506-2.498H-462C-463.389-1321.271-464.506-1320.156-464.506-1318.773z M-463.506-1318.773
				c0-0.83,0.669-1.498,1.506-1.498h372.988c0.834,0,1.506,0.668,1.506,1.498v271.004c0,0.83-0.669,1.498-1.506,1.498H-462
				c-0.834,0-1.506-0.668-1.506-1.498V-1318.773z M-484.506-1341.271h418v316h-418V-1341.271z"/>
		</defs>
		<clipPath id="SVGID_10_">
			<use xlink:href="#SVGID_41_"  overflow="visible"/>
		</clipPath>
		<g clip-path="url(#SVGID_10_)">
			<defs>
				<path id="SVGID_43_" d="M-464.006-1318.773c0-1.104,0.89-1.998,2.006-1.998h372.988c1.107,0,2.006,0.889,2.006,1.998v271.004
					c0,1.104-0.89,1.998-2.006,1.998H-462c-1.108,0-2.006-0.889-2.006-1.998V-1318.773z"/>
			</defs>
			<clipPath id="SVGID_12_">
				<use xlink:href="#SVGID_43_"  overflow="visible"/>
			</clipPath>
			<g clip-path="url(#SVGID_12_)">
				<defs>
					<rect id="SVGID_45_" x="-870.006" y="-1835.771" width="1200" height="4459"/>
				</defs>
				<clipPath id="SVGID_14_">
					<use xlink:href="#SVGID_45_"  overflow="visible"/>
				</clipPath>
			</g>
		</g>
	</g>
	<g>
		<defs>
			<path id="SVGID_47_" d="M-464.006-1318.773c0-1.104,0.89-1.998,2.006-1.998h372.988c1.107,0,2.006,0.889,2.006,1.998v271.004
				c0,1.104-0.89,1.998-2.006,1.998H-462c-1.108,0-2.006-0.889-2.006-1.998V-1318.773z"/>
		</defs>
		<clipPath id="SVGID_16_">
			<use xlink:href="#SVGID_47_"  overflow="visible"/>
		</clipPath>
		<g clip-path="url(#SVGID_16_)">
			<defs>
				<rect id="SVGID_49_" x="-870.006" y="-1835.771" width="1200" height="4459"/>
			</defs>
			<clipPath id="SVGID_18_">
				<use xlink:href="#SVGID_49_"  overflow="visible"/>
			</clipPath>
		</g>
	</g>
	<g>
		<defs>
			<circle id="SVGID_51_" cx="-477.162" cy="-1184.271" r="2.898"/>
		</defs>
		<clipPath id="SVGID_20_">
			<use xlink:href="#SVGID_51_"  overflow="visible"/>
		</clipPath>
		<g clip-path="url(#SVGID_20_)">
			<defs>
				<rect id="SVGID_53_" x="-870.006" y="-1835.771" width="1200" height="4459"/>
			</defs>
			<clipPath id="SVGID_22_">
				<use xlink:href="#SVGID_53_"  overflow="visible"/>
			</clipPath>
		</g>
	</g>
	<g>
		<defs>
			<circle id="SVGID_55_" cx="-67.645" cy="-1184.271" r="9.337"/>
		</defs>
		<clipPath id="SVGID_24_">
			<use xlink:href="#SVGID_55_"  overflow="visible"/>
		</clipPath>
		<g clip-path="url(#SVGID_24_)">
			<defs>
				<rect id="SVGID_57_" x="-870.006" y="-1835.771" width="1200" height="4459"/>
			</defs>
			<clipPath id="SVGID_26_">
				<use xlink:href="#SVGID_57_"  overflow="visible"/>
			</clipPath>
		</g>
	</g>
	<g>
		<defs>
			<path id="SVGID_59_" d="M-463.006-1087.771h375v40.007c0,0.548-0.445,0.993-0.994,0.993h-373.012
				c-0.549,0-0.994-0.446-0.994-0.993V-1087.771z"/>
		</defs>
		<clipPath id="SVGID_28_">
			<use xlink:href="#SVGID_59_"  overflow="visible"/>
		</clipPath>
		<g clip-path="url(#SVGID_28_)">
			<defs>
				<rect id="SVGID_61_" x="-870.006" y="-1835.771" width="1200" height="4459"/>
			</defs>
			<clipPath id="SVGID_30_">
				<use xlink:href="#SVGID_61_"  overflow="visible"/>
			</clipPath>
		</g>
	</g>
	<g>
		<defs>
			<path id="SVGID_63_" d="M-88.006-1298.771h-375v-20.001c0-0.552,0.445-0.999,0.994-0.999H-89c0.549,0,0.994,0.439,0.994,0.999
				V-1298.771z"/>
		</defs>
		<clipPath id="SVGID_32_">
			<use xlink:href="#SVGID_63_"  overflow="visible"/>
		</clipPath>
		<g clip-path="url(#SVGID_32_)">
			<defs>
				<rect id="SVGID_65_" x="-870.006" y="-1835.771" width="1200" height="4459"/>
			</defs>
			<clipPath id="SVGID_34_">
				<use xlink:href="#SVGID_65_"  overflow="visible"/>
			</clipPath>
		</g>
	</g>
	<g>
		<defs>
			<path id="SVGID_67_" d="M-441.622-1310.887v-1.885h3.692v1.866c0,3.093-2.479,5.599-5.538,5.599
				c-3.059,0-5.538-2.506-5.538-5.599v-1.866h3.692v1.883c0.009,1.023,0.832,1.85,1.846,1.85
				C-442.455-1309.039-441.632-1309.864-441.622-1310.887z"/>
		</defs>
		<clipPath id="SVGID_36_">
			<use xlink:href="#SVGID_67_"  overflow="visible"/>
		</clipPath>
		<g clip-path="url(#SVGID_36_)">
			<defs>
				<rect id="SVGID_69_" x="-870.006" y="-1835.771" width="1200" height="4459"/>
			</defs>
			<clipPath id="SVGID_38_">
				<use xlink:href="#SVGID_69_"  overflow="visible"/>
			</clipPath>
		</g>
	</g>
	<g>
		<defs>
			<circle id="SVGID_71_" cx="-225.006" cy="-1215.771" r="2"/>
		</defs>
		<clipPath id="SVGID_40_">
			<use xlink:href="#SVGID_71_"  overflow="visible"/>
		</clipPath>
		<g clip-path="url(#SVGID_40_)">
			<defs>
				<rect id="SVGID_73_" x="-870.006" y="-1835.771" width="1200" height="4459"/>
			</defs>
			<clipPath id="SVGID_42_">
				<use xlink:href="#SVGID_73_"  overflow="visible"/>
			</clipPath>
		</g>
	</g>
	<g>
		<defs>
			<circle id="SVGID_75_" cx="-225.006" cy="-1267.771" r="2"/>
		</defs>
		<clipPath id="SVGID_44_">
			<use xlink:href="#SVGID_75_"  overflow="visible"/>
		</clipPath>
		<g clip-path="url(#SVGID_44_)">
			<defs>
				<rect id="SVGID_77_" x="-870.006" y="-1835.771" width="1200" height="4459"/>
			</defs>
			<clipPath id="SVGID_46_">
				<use xlink:href="#SVGID_77_"  overflow="visible"/>
			</clipPath>
		</g>
	</g>
	<g>
		<defs>
			<circle id="SVGID_79_" cx="-169.006" cy="-1267.771" r="2"/>
		</defs>
		<clipPath id="SVGID_48_">
			<use xlink:href="#SVGID_79_"  overflow="visible"/>
		</clipPath>
		<g clip-path="url(#SVGID_48_)">
			<defs>
				<rect id="SVGID_81_" x="-870.006" y="-1835.771" width="1200" height="4459"/>
			</defs>
			<clipPath id="SVGID_50_">
				<use xlink:href="#SVGID_81_"  overflow="visible"/>
			</clipPath>
		</g>
	</g>
	<g>
		<defs>
			<circle id="SVGID_83_" cx="-281.006" cy="-1267.771" r="2"/>
		</defs>
		<clipPath id="SVGID_52_">
			<use xlink:href="#SVGID_83_"  overflow="visible"/>
		</clipPath>
		<g clip-path="url(#SVGID_52_)">
			<defs>
				<rect id="SVGID_85_" x="-870.006" y="-1835.771" width="1200" height="4459"/>
			</defs>
			<clipPath id="SVGID_54_">
				<use xlink:href="#SVGID_85_"  overflow="visible"/>
			</clipPath>
		</g>
	</g>
	<g>
		<defs>
			<circle id="SVGID_87_" cx="-338.006" cy="-1267.771" r="2"/>
		</defs>
		<clipPath id="SVGID_56_">
			<use xlink:href="#SVGID_87_"  overflow="visible"/>
		</clipPath>
		<g clip-path="url(#SVGID_56_)">
			<defs>
				<rect id="SVGID_89_" x="-870.006" y="-1835.771" width="1200" height="4459"/>
			</defs>
			<clipPath id="SVGID_58_">
				<use xlink:href="#SVGID_89_"  overflow="visible"/>
			</clipPath>
		</g>
	</g>
	<g>
		<defs>
			<circle id="SVGID_91_" cx="-338.006" cy="-1215.771" r="2"/>
		</defs>
		<clipPath id="SVGID_60_">
			<use xlink:href="#SVGID_91_"  overflow="visible"/>
		</clipPath>
		<g clip-path="url(#SVGID_60_)">
			<defs>
				<rect id="SVGID_93_" x="-870.006" y="-1835.771" width="1200" height="4459"/>
			</defs>
			<clipPath id="SVGID_62_">
				<use xlink:href="#SVGID_93_"  overflow="visible"/>
			</clipPath>
		</g>
	</g>
	<g>
		<defs>
			<circle id="SVGID_95_" cx="-396.006" cy="-1267.771" r="2"/>
		</defs>
		<clipPath id="SVGID_64_">
			<use xlink:href="#SVGID_95_"  overflow="visible"/>
		</clipPath>
		<g clip-path="url(#SVGID_64_)">
			<defs>
				<rect id="SVGID_97_" x="-870.006" y="-1835.771" width="1200" height="4459"/>
			</defs>
			<clipPath id="SVGID_66_">
				<use xlink:href="#SVGID_97_"  overflow="visible"/>
			</clipPath>
		</g>
	</g>
	<g>
		<defs>
			<circle id="SVGID_99_" cx="-396.006" cy="-1159.771" r="2"/>
		</defs>
		<clipPath id="SVGID_68_">
			<use xlink:href="#SVGID_99_"  overflow="visible"/>
		</clipPath>
		<g clip-path="url(#SVGID_68_)">
			<defs>
				<rect id="SVGID_101_" x="-870.006" y="-1835.771" width="1200" height="4459"/>
			</defs>
			<clipPath id="SVGID_70_">
				<use xlink:href="#SVGID_101_"  overflow="visible"/>
			</clipPath>
		</g>
	</g>
	<g>
		<defs>
			<circle id="SVGID_103_" cx="-253.006" cy="-1159.771" r="2"/>
		</defs>
		<clipPath id="SVGID_72_">
			<use xlink:href="#SVGID_103_"  overflow="visible"/>
		</clipPath>
		<g clip-path="url(#SVGID_72_)">
			<defs>
				<rect id="SVGID_105_" x="-870.006" y="-1835.771" width="1200" height="4459"/>
			</defs>
			<clipPath id="SVGID_74_">
				<use xlink:href="#SVGID_105_"  overflow="visible"/>
			</clipPath>
		</g>
	</g>
	<g>
		<defs>
			<circle id="SVGID_107_" cx="-147.506" cy="-1309.271" r="5.5"/>
		</defs>
		<clipPath id="SVGID_76_">
			<use xlink:href="#SVGID_107_"  overflow="visible"/>
		</clipPath>
		<g clip-path="url(#SVGID_76_)">
			<defs>
				<rect id="SVGID_109_" x="-870.006" y="-1835.771" width="1200" height="4459"/>
			</defs>
			<clipPath id="SVGID_78_">
				<use xlink:href="#SVGID_109_"  overflow="visible"/>
			</clipPath>
		</g>
	</g>
</g>
<g>
	<g>
		<defs>
			<path id="SVGID_175_" d="M103.312-105.004c1.806-1.773,4.703-1.763,6.494,0.033c1.794,1.798,1.802,4.706,0.026,6.515
				l-3.289,3.298l3.278,3.286c1.786,1.808,1.781,4.724-0.016,6.526c-1.788,1.791-4.678,1.805-6.484,0.043l-3.306-3.313l-3.263,3.27
				c-1.803,1.807-4.727,1.806-6.529,0c-1.782-1.787-1.801-4.67-0.06-6.48l3.324-3.331l-3.28-3.287c-1.78-1.802-1.78-4.706,0-6.509
				l0.034-0.033c1.789-1.775,4.665-1.784,6.466-0.027l3.308,3.315L103.312-105.004z"/>
		</defs>
		<clipPath id="SVGID_80_">
			<use xlink:href="#SVGID_175_"  overflow="visible"/>
		</clipPath>
		<g clip-path="url(#SVGID_80_)">
			<defs>
				<rect id="SVGID_177_" x="-567.006" y="-1786.771" width="1200" height="4459"/>
			</defs>
			<clipPath id="SVGID_82_">
				<use xlink:href="#SVGID_177_"  overflow="visible"/>
			</clipPath>
		</g>
	</g>
	<g>
		<defs>
			<path id="SVGID_179_" d="M63.21-45.156c0,2.555-2.066,4.626-4.616,4.626c-2.549,0-4.615-2.071-4.615-4.626
				c0-2.554,2.066-4.625,4.615-4.625C61.144-49.781,63.21-47.71,63.21-45.156"/>
		</defs>
		<clipPath id="SVGID_84_">
			<use xlink:href="#SVGID_179_"  overflow="visible"/>
		</clipPath>
		<g clip-path="url(#SVGID_84_)">
			<defs>
				<rect id="SVGID_181_" x="-567.006" y="-1786.771" width="1200" height="4459"/>
			</defs>
			<clipPath id="SVGID_86_">
				<use xlink:href="#SVGID_181_"  overflow="visible"/>
			</clipPath>
		</g>
	</g>
	<g>
		<defs>
			<path id="SVGID_183_" d="M-17.382-147.983c-1.803-1.806-4.725-1.806-6.527,0c-0.802,0.804-2.032,2.036-3.262,3.269l6.527,6.542
				c1.23-1.233,2.46-2.466,3.262-3.269C-15.58-143.249-15.58-146.178-17.382-147.983"/>
		</defs>
		<clipPath id="SVGID_88_">
			<use xlink:href="#SVGID_183_"  overflow="visible"/>
		</clipPath>
		<g clip-path="url(#SVGID_88_)">
			<defs>
				<rect id="SVGID_185_" x="-567.006" y="-1786.771" width="1200" height="4459"/>
			</defs>
			<clipPath id="SVGID_90_">
				<use xlink:href="#SVGID_185_"  overflow="visible"/>
			</clipPath>
		</g>
	</g>
	<g>
		<defs>
			<path id="SVGID_187_" d="M-30.654-141.224c-1.803,1.806-1.803,4.735,0,6.541c1.802,1.807,4.725,1.807,6.527,0
				c0.803-0.804,2.034-2.038,3.265-3.272l-6.527-6.542C-28.62-143.263-29.852-142.027-30.654-141.224"/>
		</defs>
		<clipPath id="SVGID_92_">
			<use xlink:href="#SVGID_187_"  overflow="visible"/>
		</clipPath>
		<g clip-path="url(#SVGID_92_)">
			<defs>
				<rect id="SVGID_189_" x="-567.006" y="-1786.771" width="1200" height="4459"/>
			</defs>
			<clipPath id="SVGID_94_">
				<use xlink:href="#SVGID_189_"  overflow="visible"/>
			</clipPath>
		</g>
	</g>
	<g>
		<defs>
			<path id="SVGID_191_" d="M20.44-49.781h4.614v-9.251h-4.616c-7.647,0-13.846,6.212-13.846,13.876s6.199,13.877,13.846,13.877
				h4.616v-9.251h-4.701c-2.509-0.047-4.53-2.099-4.53-4.625C15.823-47.71,17.89-49.781,20.44-49.781"/>
		</defs>
		<clipPath id="SVGID_96_">
			<use xlink:href="#SVGID_191_"  overflow="visible"/>
		</clipPath>
		<g clip-path="url(#SVGID_96_)">
			<defs>
				<rect id="SVGID_193_" x="-567.006" y="-1786.771" width="1200" height="4459"/>
			</defs>
			<clipPath id="SVGID_98_">
				<use xlink:href="#SVGID_193_"  overflow="visible"/>
			</clipPath>
		</g>
	</g>
	<g>
		<defs>
			<polygon id="SVGID_195_" points="15.823,-101.7 9.296,-108.242 2.769,-101.7 9.296,-95.159 2.769,-88.617 9.296,-82.076 
				15.823,-88.617 22.351,-82.076 28.877,-88.617 22.351,-95.159 28.877,-101.7 22.351,-108.242 			"/>
		</defs>
		<clipPath id="SVGID_100_">
			<use xlink:href="#SVGID_195_"  overflow="visible"/>
		</clipPath>
		<g clip-path="url(#SVGID_100_)">
			<defs>
				<rect id="SVGID_197_" x="-567.006" y="-1786.771" width="1200" height="4459"/>
			</defs>
			<clipPath id="SVGID_102_">
				<use xlink:href="#SVGID_197_"  overflow="visible"/>
			</clipPath>
		</g>
	</g>
	<g>
		<defs>
			<rect id="SVGID_199_" x="54.54" y="-148.333" width="9.231" height="9.251"/>
		</defs>
		<clipPath id="SVGID_104_">
			<use xlink:href="#SVGID_199_"  overflow="visible"/>
		</clipPath>
		<g clip-path="url(#SVGID_104_)">
			<defs>
				<rect id="SVGID_201_" x="-567.006" y="-1786.771" width="1200" height="4459"/>
			</defs>
			<clipPath id="SVGID_106_">
				<use xlink:href="#SVGID_201_"  overflow="visible"/>
			</clipPath>
		</g>
	</g>
	<g>
		<defs>
			<polygon id="SVGID_203_" points="103.17,-137.952 96.643,-131.411 90.115,-137.952 96.643,-144.494 			"/>
		</defs>
		<clipPath id="SVGID_108_">
			<use xlink:href="#SVGID_203_"  overflow="visible"/>
		</clipPath>
		<g clip-path="url(#SVGID_108_)">
			<defs>
				<rect id="SVGID_205_" x="-567.006" y="-1786.771" width="1200" height="4459"/>
			</defs>
			<clipPath id="SVGID_110_">
				<use xlink:href="#SVGID_205_"  overflow="visible"/>
			</clipPath>
		</g>
	</g>
	<g>
		<defs>
			<polygon id="SVGID_207_" points="109.914,-144.712 103.388,-138.171 96.86,-144.712 103.388,-151.254 			"/>
		</defs>
		<clipPath id="SVGID_112_">
			<use xlink:href="#SVGID_207_"  overflow="visible"/>
		</clipPath>
		<g clip-path="url(#SVGID_112_)">
			<defs>
				<rect id="SVGID_209_" x="-567.006" y="-1786.771" width="1200" height="4459"/>
			</defs>
			<clipPath id="SVGID_114_">
				<use xlink:href="#SVGID_209_"  overflow="visible"/>
			</clipPath>
		</g>
	</g>
	<g>
		<defs>
			<path id="SVGID_211_" d="M104.631-35.905h9.23v-4.625c0-7.664-6.199-13.877-13.847-13.877c-7.646,0-13.846,6.213-13.846,13.877
				v4.625h9.23v-9.251h9.231V-35.905z"/>
		</defs>
		<clipPath id="SVGID_116_">
			<use xlink:href="#SVGID_211_"  overflow="visible"/>
		</clipPath>
		<g clip-path="url(#SVGID_116_)">
			<defs>
				<rect id="SVGID_213_" x="-567.006" y="-1786.771" width="1200" height="4459"/>
			</defs>
			<clipPath id="SVGID_118_">
				<use xlink:href="#SVGID_213_"  overflow="visible"/>
			</clipPath>
		</g>
	</g>
	<g>
		<defs>
			<polygon id="SVGID_215_" points="25.055,-147.479 20.438,-147.479 20.438,-151.992 15.824,-156.617 11.208,-151.99 
				11.208,-147.479 6.591,-147.479 1.977,-142.854 6.594,-138.228 11.208,-138.228 11.208,-133.49 15.713,-128.977 15.936,-128.977 
				20.438,-133.488 20.438,-138.228 25.053,-138.228 29.669,-142.854 			"/>
		</defs>
		<clipPath id="SVGID_120_">
			<use xlink:href="#SVGID_215_"  overflow="visible"/>
		</clipPath>
		<g clip-path="url(#SVGID_120_)">
			<defs>
				<rect id="SVGID_217_" x="-567.006" y="-1786.771" width="1200" height="4459"/>
			</defs>
			<clipPath id="SVGID_122_">
				<use xlink:href="#SVGID_217_"  overflow="visible"/>
			</clipPath>
		</g>
	</g>
	<g>
		<defs>
			<polygon id="SVGID_219_" points="-24.018,-91.104 -19.401,-95.731 -24.02,-100.355 -28.635,-95.731 			"/>
		</defs>
		<clipPath id="SVGID_124_">
			<use xlink:href="#SVGID_219_"  overflow="visible"/>
		</clipPath>
		<g clip-path="url(#SVGID_124_)">
			<defs>
				<rect id="SVGID_221_" x="-567.006" y="-1786.771" width="1200" height="4459"/>
			</defs>
			<clipPath id="SVGID_126_">
				<use xlink:href="#SVGID_221_"  overflow="visible"/>
			</clipPath>
		</g>
	</g>
	<g>
		<defs>
			<polygon id="SVGID_223_" points="-24.13,-51.809 -30.655,-51.809 -30.656,-45.266 -27.391,-41.993 -20.864,-48.535 			"/>
		</defs>
		<clipPath id="SVGID_128_">
			<use xlink:href="#SVGID_223_"  overflow="visible"/>
		</clipPath>
		<g clip-path="url(#SVGID_128_)">
			<defs>
				<rect id="SVGID_225_" x="-567.006" y="-1786.771" width="1200" height="4459"/>
			</defs>
			<clipPath id="SVGID_130_">
				<use xlink:href="#SVGID_225_"  overflow="visible"/>
			</clipPath>
		</g>
	</g>
	<g>
		<defs>
			<polygon id="SVGID_227_" points="-17.38,-38.503 -17.383,-45.047 -20.646,-48.317 -27.173,-41.775 -23.909,-38.503 			"/>
		</defs>
		<clipPath id="SVGID_132_">
			<use xlink:href="#SVGID_227_"  overflow="visible"/>
		</clipPath>
		<g clip-path="url(#SVGID_132_)">
			<defs>
				<rect id="SVGID_229_" x="-567.006" y="-1786.771" width="1200" height="4459"/>
			</defs>
			<clipPath id="SVGID_134_">
				<use xlink:href="#SVGID_229_"  overflow="visible"/>
			</clipPath>
		</g>
	</g>
	<g>
		<defs>
			<path id="SVGID_231_" d="M50.486-90.932v9.251h4.615c7.647,0,13.847-6.213,13.847-13.877s-6.199-13.876-13.847-13.876h-4.615
				v9.251h6.153l4.617,4.626l-4.614,4.625H50.486z"/>
		</defs>
		<clipPath id="SVGID_136_">
			<use xlink:href="#SVGID_231_"  overflow="visible"/>
		</clipPath>
		<g clip-path="url(#SVGID_136_)">
			<defs>
				<rect id="SVGID_233_" x="-567.006" y="-1786.771" width="1200" height="4459"/>
			</defs>
			<clipPath id="SVGID_138_">
				<use xlink:href="#SVGID_233_"  overflow="visible"/>
			</clipPath>
		</g>
	</g>
</g>
<g>
	<g>
		<defs>
			
				<rect id="SVGID_259_" x="3.343" y="-255.845" transform="matrix(-0.7071 0.7071 -0.7071 -0.7071 -117.3487 -415.2627)" width="47.973" height="47.82"/>
		</defs>
		<clipPath id="SVGID_140_">
			<use xlink:href="#SVGID_259_"  overflow="visible"/>
		</clipPath>
		<g clip-path="url(#SVGID_140_)">
			<defs>
				<rect id="SVGID_261_" x="-221.006" y="-1806.771" width="1200" height="4459"/>
			</defs>
			<clipPath id="SVGID_142_">
				<use xlink:href="#SVGID_261_"  overflow="visible"/>
			</clipPath>
		</g>
	</g>
	<g>
		<g>
			<defs>
				<path id="SVGID_269_" d="M54.621-254.934l15.966-0.025l0.012-7.983c0.021-13.226-10.684-23.931-23.91-23.91
					c-13.226,0.021-23.965,10.76-23.986,23.986l-0.013,7.982l15.966-0.024l0.025-15.966l15.966-0.025L54.621-254.934z"/>
			</defs>
			<clipPath id="SVGID_144_">
				<use xlink:href="#SVGID_269_"  overflow="visible"/>
			</clipPath>
			<g clip-path="url(#SVGID_144_)">
				<defs>
					<rect id="SVGID_271_" x="-221.006" y="-1806.771" width="1200" height="4459"/>
				</defs>
				<clipPath id="SVGID_146_">
					<use xlink:href="#SVGID_271_"  overflow="visible"/>
				</clipPath>
			</g>
		</g>
		<g>
			<defs>
				
					<rect id="SVGID_273_" x="-13.544" y="-230.967" transform="matrix(0.7071 0.7071 -0.7071 0.7071 -148.9749 -70.2949)" width="47.821" height="31.982"/>
			</defs>
			<clipPath id="SVGID_148_">
				<use xlink:href="#SVGID_273_"  overflow="visible"/>
			</clipPath>
			<g clip-path="url(#SVGID_148_)">
				<defs>
					<rect id="SVGID_275_" x="-221.006" y="-1806.771" width="1200" height="4459"/>
				</defs>
				<clipPath id="SVGID_150_">
					<use xlink:href="#SVGID_275_"  overflow="visible"/>
				</clipPath>
			</g>
		</g>
	</g>
</g>
<g>
	<g>
		<defs>
			<path id="SVGID_401_" d="M31.926,77.983l-5.899-5.936l-2.95,2.968c-4.888,4.917-4.888,12.89,0,17.807
				c4.888,4.918,12.812,4.918,17.698,0l2.95-2.968l-5.899-5.935l-3.784,3.807h-5.9v-5.936L31.926,77.983z"/>
		</defs>
		<clipPath id="SVGID_152_">
			<use xlink:href="#SVGID_401_"  overflow="visible"/>
		</clipPath>
		<g clip-path="url(#SVGID_152_)">
			<defs>
				<rect id="SVGID_403_" x="-865" y="-1507.14" width="1200" height="4459"/>
			</defs>
			<clipPath id="SVGID_154_">
				<use xlink:href="#SVGID_403_"  overflow="visible"/>
			</clipPath>
			<rect x="14.411" y="67.047" clip-path="url(#SVGID_154_)" fill="#FC035E" width="34.313" height="34.464"/>
		</g>
	</g>
	<g>
		<defs>
			<rect id="SVGID_405_" x="28.617" y="29.083" width="5.901" height="5.938"/>
		</defs>
		<clipPath id="SVGID_156_">
			<use xlink:href="#SVGID_405_"  overflow="visible"/>
		</clipPath>
		<g clip-path="url(#SVGID_156_)">
			<defs>
				<rect id="SVGID_407_" x="-865" y="-1507.14" width="1200" height="4459"/>
			</defs>
			<clipPath id="SVGID_158_">
				<use xlink:href="#SVGID_407_"  overflow="visible"/>
			</clipPath>
			<rect x="23.617" y="24.081" clip-path="url(#SVGID_158_)" fill="#E8E5FF" width="15.901" height="15.938"/>
		</g>
	</g>
	<g>
		<defs>
			<path id="SVGID_409_" d="M60.944,29.082c1.629,1.64,1.629,4.297,0,5.937c-1.629,1.639-4.271,1.639-5.899,0
				c-1.629-1.639-1.629-4.297,0-5.937C56.674,27.443,59.315,27.443,60.944,29.082"/>
		</defs>
		<clipPath id="SVGID_160_">
			<use xlink:href="#SVGID_409_"  overflow="visible"/>
		</clipPath>
		<g clip-path="url(#SVGID_160_)">
			<defs>
				<rect id="SVGID_411_" x="-865" y="-1507.14" width="1200" height="4459"/>
			</defs>
			<clipPath id="SVGID_162_">
				<use xlink:href="#SVGID_411_"  overflow="visible"/>
			</clipPath>
			<rect x="48.823" y="22.854" clip-path="url(#SVGID_162_)" fill="#E8E5FF" width="18.343" height="18.395"/>
		</g>
	</g>
	<g>
		<defs>
			<path id="SVGID_413_" d="M116.548,29.082c1.629,1.64,1.629,4.297,0,5.937c-1.629,1.639-4.271,1.639-5.899,0
				c-1.629-1.639-1.629-4.297,0-5.937C112.277,27.443,114.919,27.443,116.548,29.082"/>
		</defs>
		<clipPath id="SVGID_164_">
			<use xlink:href="#SVGID_413_"  overflow="visible"/>
		</clipPath>
		<g clip-path="url(#SVGID_164_)">
			<defs>
				<rect id="SVGID_415_" x="-865" y="-1507.14" width="1200" height="4459"/>
			</defs>
			<clipPath id="SVGID_166_">
				<use xlink:href="#SVGID_415_"  overflow="visible"/>
			</clipPath>
			<rect x="104.427" y="22.854" clip-path="url(#SVGID_166_)" fill="#E8E5FF" width="18.343" height="18.395"/>
		</g>
	</g>
	<g>
		<defs>
			<rect id="SVGID_417_" y="26.114" width="11.799" height="11.872"/>
		</defs>
		<clipPath id="SVGID_168_">
			<use xlink:href="#SVGID_417_"  overflow="visible"/>
		</clipPath>
		<g clip-path="url(#SVGID_168_)">
			<defs>
				<rect id="SVGID_419_" x="-865" y="-1507.14" width="1200" height="4459"/>
			</defs>
			<clipPath id="SVGID_170_">
				<use xlink:href="#SVGID_419_"  overflow="visible"/>
			</clipPath>
			<g clip-path="url(#SVGID_170_)" enable-background="new    ">
				<g>
					<defs>
						<rect id="SVGID_421_" y="25.86" width="12" height="13"/>
					</defs>
					<clipPath id="SVGID_172_">
						<use xlink:href="#SVGID_421_"  overflow="visible"/>
					</clipPath>
					<g clip-path="url(#SVGID_172_)">
						<defs>
							<polygon id="SVGID_423_" points="11.799,32.05 5.899,37.986 0,32.05 5.899,26.114 							"/>
						</defs>
						<clipPath id="SVGID_174_">
							<use xlink:href="#SVGID_423_"  overflow="visible"/>
						</clipPath>
						<g clip-path="url(#SVGID_174_)">
							<defs>
								<rect id="SVGID_425_" x="-1" y="25.86" width="13" height="13"/>
							</defs>
							<clipPath id="SVGID_176_">
								<use xlink:href="#SVGID_425_"  overflow="visible"/>
							</clipPath>
							<rect x="-5" y="21.114" clip-path="url(#SVGID_176_)" fill="#E8E5FF" width="21.799" height="21.872"/>
						</g>
					</g>
				</g>
			</g>
		</g>
	</g>
	<g>
		<defs>
			<polygon id="SVGID_427_" points="91.585,32.05 85.685,37.986 79.785,32.05 85.685,26.114 			"/>
		</defs>
		<clipPath id="SVGID_178_">
			<use xlink:href="#SVGID_427_"  overflow="visible"/>
		</clipPath>
		<g clip-path="url(#SVGID_178_)">
			<defs>
				<rect id="SVGID_429_" x="-865" y="-1507.14" width="1200" height="4459"/>
			</defs>
			<clipPath id="SVGID_180_">
				<use xlink:href="#SVGID_429_"  overflow="visible"/>
			</clipPath>
			<rect x="74.785" y="21.114" clip-path="url(#SVGID_180_)" fill="#009FFF" width="21.8" height="21.872"/>
		</g>
	</g>
	<g>
		<defs>
			<rect id="SVGID_431_" x="82.734" y="107.423" width="5.901" height="5.938"/>
		</defs>
		<clipPath id="SVGID_182_">
			<use xlink:href="#SVGID_431_"  overflow="visible"/>
		</clipPath>
		<g clip-path="url(#SVGID_182_)">
			<defs>
				<rect id="SVGID_433_" x="-865" y="-1507.14" width="1200" height="4459"/>
			</defs>
			<clipPath id="SVGID_184_">
				<use xlink:href="#SVGID_433_"  overflow="visible"/>
			</clipPath>
			<rect x="77.734" y="102.424" clip-path="url(#SVGID_184_)" fill="#E8E5FF" width="15.901" height="15.938"/>
		</g>
	</g>
	<g>
		<defs>
			<path id="SVGID_435_" d="M55.045,113.361c-1.629-1.639-1.629-4.297,0-5.936c1.629-1.64,4.271-1.639,5.899,0s1.629,4.296,0,5.936
				C59.315,115,56.674,115,55.045,113.361"/>
		</defs>
		<clipPath id="SVGID_186_">
			<use xlink:href="#SVGID_435_"  overflow="visible"/>
		</clipPath>
		<g clip-path="url(#SVGID_186_)">
			<defs>
				<rect id="SVGID_437_" x="-865" y="-1507.14" width="1200" height="4459"/>
			</defs>
			<clipPath id="SVGID_188_">
				<use xlink:href="#SVGID_437_"  overflow="visible"/>
			</clipPath>
			<rect x="48.823" y="101.195" clip-path="url(#SVGID_188_)" fill="#E8E5FF" width="18.343" height="18.395"/>
		</g>
	</g>
	<g>
		<defs>
			<path id="SVGID_439_" d="M2.949,113.361c-1.629-1.639-1.629-4.297,0-5.936c1.63-1.64,4.271-1.639,5.9,0
				c1.629,1.639,1.629,4.296,0,5.936C7.22,115,4.579,115,2.949,113.361"/>
		</defs>
		<clipPath id="SVGID_190_">
			<use xlink:href="#SVGID_439_"  overflow="visible"/>
		</clipPath>
		<g clip-path="url(#SVGID_190_)">
			<defs>
				<rect id="SVGID_441_" x="-865" y="-1507.14" width="1200" height="4459"/>
			</defs>
			<clipPath id="SVGID_192_">
				<use xlink:href="#SVGID_441_"  overflow="visible"/>
			</clipPath>
			<rect x="-3.272" y="101.195" clip-path="url(#SVGID_192_)" fill="#E8E5FF" width="18.344" height="18.395"/>
		</g>
	</g>
	<g>
		<defs>
			<rect id="SVGID_443_" x="107.698" y="104.457" width="11.799" height="11.872"/>
		</defs>
		<clipPath id="SVGID_194_">
			<use xlink:href="#SVGID_443_"  overflow="visible"/>
		</clipPath>
		<g clip-path="url(#SVGID_194_)">
			<defs>
				<rect id="SVGID_445_" x="-865" y="-1507.14" width="1200" height="4459"/>
			</defs>
			<clipPath id="SVGID_196_">
				<use xlink:href="#SVGID_445_"  overflow="visible"/>
			</clipPath>
			<g clip-path="url(#SVGID_196_)" enable-background="new    ">
				<g>
					<defs>
						<rect id="SVGID_447_" x="107" y="103.86" width="13" height="13"/>
					</defs>
					<clipPath id="SVGID_198_">
						<use xlink:href="#SVGID_447_"  overflow="visible"/>
					</clipPath>
					<g clip-path="url(#SVGID_198_)">
						<defs>
							<polygon id="SVGID_449_" points="107.698,110.394 113.598,104.457 119.497,110.394 113.598,116.329 							"/>
						</defs>
						<clipPath id="SVGID_200_">
							<use xlink:href="#SVGID_449_"  overflow="visible"/>
						</clipPath>
						<g clip-path="url(#SVGID_200_)">
							<defs>
								<rect id="SVGID_451_" x="107" y="103.86" width="13" height="13"/>
							</defs>
							<clipPath id="SVGID_202_">
								<use xlink:href="#SVGID_451_"  overflow="visible"/>
							</clipPath>
							<rect x="102.698" y="99.457" clip-path="url(#SVGID_202_)" fill="#E8E5FF" width="21.799" height="21.872"/>
						</g>
					</g>
				</g>
			</g>
		</g>
	</g>
	<g>
		<defs>
			<rect id="SVGID_453_" x="25.668" y="104.457" width="11.799" height="11.872"/>
		</defs>
		<clipPath id="SVGID_204_">
			<use xlink:href="#SVGID_453_"  overflow="visible"/>
		</clipPath>
		<g clip-path="url(#SVGID_204_)">
			<defs>
				<rect id="SVGID_455_" x="-865" y="-1507.14" width="1200" height="4459"/>
			</defs>
			<clipPath id="SVGID_206_">
				<use xlink:href="#SVGID_455_"  overflow="visible"/>
			</clipPath>
			<g clip-path="url(#SVGID_206_)" enable-background="new    ">
				<g>
					<defs>
						<rect id="SVGID_457_" x="25" y="103.86" width="13" height="13"/>
					</defs>
					<clipPath id="SVGID_208_">
						<use xlink:href="#SVGID_457_"  overflow="visible"/>
					</clipPath>
					<g clip-path="url(#SVGID_208_)">
						<defs>
							<polygon id="SVGID_459_" points="25.668,110.394 31.567,104.457 37.467,110.394 31.567,116.329 							"/>
						</defs>
						<clipPath id="SVGID_210_">
							<use xlink:href="#SVGID_459_"  overflow="visible"/>
						</clipPath>
						<g clip-path="url(#SVGID_210_)">
							<defs>
								<rect id="SVGID_461_" x="25" y="103.86" width="13" height="13"/>
							</defs>
							<clipPath id="SVGID_212_">
								<use xlink:href="#SVGID_461_"  overflow="visible"/>
							</clipPath>
							<rect x="20.668" y="99.457" clip-path="url(#SVGID_212_)" fill="#E8E5FF" width="21.799" height="21.872"/>
						</g>
					</g>
				</g>
			</g>
		</g>
	</g>
	<g>
		<defs>
			<rect id="SVGID_463_" x="28.617" y="55.197" width="5.901" height="5.937"/>
		</defs>
		<clipPath id="SVGID_214_">
			<use xlink:href="#SVGID_463_"  overflow="visible"/>
		</clipPath>
		<g clip-path="url(#SVGID_214_)">
			<defs>
				<rect id="SVGID_465_" x="-865" y="-1507.14" width="1200" height="4459"/>
			</defs>
			<clipPath id="SVGID_216_">
				<use xlink:href="#SVGID_465_"  overflow="visible"/>
			</clipPath>
			<rect x="23.617" y="50.196" clip-path="url(#SVGID_216_)" fill="#E8E5FF" width="15.901" height="15.937"/>
		</g>
	</g>
	<g>
		<defs>
			<path id="SVGID_467_" d="M8.85,55.196c1.629,1.639,1.629,4.297,0,5.936c-1.629,1.64-4.271,1.639-5.9,0
				c-1.629-1.639-1.629-4.296,0-5.936C4.579,53.558,7.221,53.558,8.85,55.196"/>
		</defs>
		<clipPath id="SVGID_218_">
			<use xlink:href="#SVGID_467_"  overflow="visible"/>
		</clipPath>
		<g clip-path="url(#SVGID_218_)">
			<defs>
				<rect id="SVGID_469_" x="-865" y="-1507.14" width="1200" height="4459"/>
			</defs>
			<clipPath id="SVGID_220_">
				<use xlink:href="#SVGID_469_"  overflow="visible"/>
			</clipPath>
			<rect x="-3.272" y="48.967" clip-path="url(#SVGID_220_)" fill="#E8E5FF" width="18.344" height="18.395"/>
		</g>
	</g>
	<g>
		<defs>
			<polygon id="SVGID_471_" points="63.894,58.164 57.994,64.101 52.095,58.164 57.994,52.229 			"/>
		</defs>
		<clipPath id="SVGID_222_">
			<use xlink:href="#SVGID_471_"  overflow="visible"/>
		</clipPath>
		<g clip-path="url(#SVGID_222_)">
			<defs>
				<rect id="SVGID_473_" x="-865" y="-1507.14" width="1200" height="4459"/>
			</defs>
			<clipPath id="SVGID_224_">
				<use xlink:href="#SVGID_473_"  overflow="visible"/>
			</clipPath>
			<rect x="47.095" y="47.229" clip-path="url(#SVGID_224_)" fill="#FFB500" width="21.799" height="21.872"/>
		</g>
	</g>
	<g>
		<defs>
			<rect id="SVGID_475_" x="82.734" y="55.197" width="5.901" height="5.937"/>
		</defs>
		<clipPath id="SVGID_226_">
			<use xlink:href="#SVGID_475_"  overflow="visible"/>
		</clipPath>
		<g clip-path="url(#SVGID_226_)">
			<defs>
				<rect id="SVGID_477_" x="-865" y="-1507.14" width="1200" height="4459"/>
			</defs>
			<clipPath id="SVGID_228_">
				<use xlink:href="#SVGID_477_"  overflow="visible"/>
			</clipPath>
			<rect x="77.734" y="50.196" clip-path="url(#SVGID_228_)" fill="#E8E5FF" width="15.901" height="15.937"/>
		</g>
	</g>
	<g>
		<defs>
			<polygon id="SVGID_479_" points="119.497,58.164 113.598,64.101 107.698,58.164 113.598,52.229 			"/>
		</defs>
		<clipPath id="SVGID_230_">
			<use xlink:href="#SVGID_479_"  overflow="visible"/>
		</clipPath>
		<g clip-path="url(#SVGID_230_)">
			<defs>
				<rect id="SVGID_481_" x="-865" y="-1507.14" width="1200" height="4459"/>
			</defs>
			<clipPath id="SVGID_232_">
				<use xlink:href="#SVGID_481_"  overflow="visible"/>
			</clipPath>
			<rect x="102.698" y="47.229" clip-path="url(#SVGID_232_)" fill="#E8E5FF" width="21.799" height="21.872"/>
		</g>
	</g>
	<g>
		<defs>
			<rect id="SVGID_483_" x="110.647" y="81.312" width="5.901" height="5.937"/>
		</defs>
		<clipPath id="SVGID_234_">
			<use xlink:href="#SVGID_483_"  overflow="visible"/>
		</clipPath>
		<g clip-path="url(#SVGID_234_)">
			<defs>
				<rect id="SVGID_485_" x="-865" y="-1507.14" width="1200" height="4459"/>
			</defs>
			<clipPath id="SVGID_236_">
				<use xlink:href="#SVGID_485_"  overflow="visible"/>
			</clipPath>
			<rect x="105.647" y="76.311" clip-path="url(#SVGID_236_)" fill="#E8E5FF" width="15.901" height="15.937"/>
		</g>
	</g>
	<g>
		<defs>
			<rect id="SVGID_487_" x="2.949" y="81.312" width="5.9" height="5.937"/>
		</defs>
		<clipPath id="SVGID_238_">
			<use xlink:href="#SVGID_487_"  overflow="visible"/>
		</clipPath>
		<g clip-path="url(#SVGID_238_)">
			<defs>
				<rect id="SVGID_489_" x="-865" y="-1507.14" width="1200" height="4459"/>
			</defs>
			<clipPath id="SVGID_240_">
				<use xlink:href="#SVGID_489_"  overflow="visible"/>
			</clipPath>
			<rect x="-2.051" y="76.311" clip-path="url(#SVGID_240_)" fill="#E8E5FF" width="15.9" height="15.937"/>
		</g>
	</g>
	<g>
		<defs>
			<path id="SVGID_491_" d="M88.635,81.312c1.629,1.639,1.629,4.296,0,5.936c-1.629,1.639-4.271,1.639-5.899,0
				c-1.629-1.64-1.629-4.297,0-5.936C84.364,79.671,87.006,79.671,88.635,81.312"/>
		</defs>
		<clipPath id="SVGID_242_">
			<use xlink:href="#SVGID_491_"  overflow="visible"/>
		</clipPath>
		<g clip-path="url(#SVGID_242_)">
			<defs>
				<rect id="SVGID_493_" x="-865" y="-1507.14" width="1200" height="4459"/>
			</defs>
			<clipPath id="SVGID_244_">
				<use xlink:href="#SVGID_493_"  overflow="visible"/>
			</clipPath>
			<rect x="76.514" y="75.081" clip-path="url(#SVGID_244_)" fill="#E8E5FF" width="18.343" height="18.396"/>
		</g>
	</g>
	<g>
		<defs>
			<polygon id="SVGID_495_" points="63.894,84.279 57.994,90.215 52.095,84.279 57.994,78.343 			"/>
		</defs>
		<clipPath id="SVGID_246_">
			<use xlink:href="#SVGID_495_"  overflow="visible"/>
		</clipPath>
		<g clip-path="url(#SVGID_246_)">
			<defs>
				<rect id="SVGID_497_" x="-865" y="-1507.14" width="1200" height="4459"/>
			</defs>
			<clipPath id="SVGID_248_">
				<use xlink:href="#SVGID_497_"  overflow="visible"/>
			</clipPath>
			<rect x="47.095" y="73.343" clip-path="url(#SVGID_248_)" fill="#E8E5FF" width="21.799" height="21.872"/>
		</g>
	</g>
	<g>
		<defs>
			<rect id="SVGID_499_" x="82.734" y="2.969" width="5.901" height="5.938"/>
		</defs>
		<clipPath id="SVGID_250_">
			<use xlink:href="#SVGID_499_"  overflow="visible"/>
		</clipPath>
		<g clip-path="url(#SVGID_250_)">
			<defs>
				<rect id="SVGID_501_" x="-865" y="-1507.14" width="1200" height="4459"/>
			</defs>
			<clipPath id="SVGID_252_">
				<use xlink:href="#SVGID_501_"  overflow="visible"/>
			</clipPath>
			<rect x="77.734" y="-2.033" clip-path="url(#SVGID_252_)" fill="#E8E5FF" width="15.901" height="15.938"/>
		</g>
	</g>
	<g>
		<defs>
			<path id="SVGID_503_" d="M60.944,2.968c1.629,1.639,1.629,4.297,0,5.936c-1.629,1.639-4.271,1.639-5.899,0
				c-1.629-1.639-1.629-4.297,0-5.936S59.315,1.329,60.944,2.968"/>
		</defs>
		<clipPath id="SVGID_254_">
			<use xlink:href="#SVGID_503_"  overflow="visible"/>
		</clipPath>
		<g clip-path="url(#SVGID_254_)">
			<defs>
				<rect id="SVGID_505_" x="-865" y="-1507.14" width="1200" height="4459"/>
			</defs>
			<clipPath id="SVGID_256_">
				<use xlink:href="#SVGID_505_"  overflow="visible"/>
			</clipPath>
			<rect x="48.823" y="-3.261" clip-path="url(#SVGID_256_)" fill="#E8E5FF" width="18.343" height="18.394"/>
		</g>
	</g>
	<g>
		<defs>
			<path id="SVGID_507_" d="M8.85,2.968c1.629,1.639,1.629,4.297,0,5.936c-1.63,1.639-4.271,1.639-5.9,0
				c-1.629-1.639-1.629-4.297,0-5.936C4.579,1.329,7.22,1.329,8.85,2.968"/>
		</defs>
		<clipPath id="SVGID_258_">
			<use xlink:href="#SVGID_507_"  overflow="visible"/>
		</clipPath>
		<g clip-path="url(#SVGID_258_)">
			<defs>
				<rect id="SVGID_509_" x="-865" y="-1507.14" width="1200" height="4459"/>
			</defs>
			<clipPath id="SVGID_260_">
				<use xlink:href="#SVGID_509_"  overflow="visible"/>
			</clipPath>
			<rect x="-3.272" y="-3.261" clip-path="url(#SVGID_260_)" fill="#E8E5FF" width="18.344" height="18.394"/>
		</g>
	</g>
	<g>
		<defs>
			<polygon id="SVGID_511_" points="37.467,5.937 31.567,11.872 25.668,5.937 31.567,0 			"/>
		</defs>
		<clipPath id="SVGID_262_">
			<use xlink:href="#SVGID_511_"  overflow="visible"/>
		</clipPath>
		<g clip-path="url(#SVGID_262_)">
			<defs>
				<rect id="SVGID_513_" x="-865" y="-1507.14" width="1200" height="4459"/>
			</defs>
			<clipPath id="SVGID_264_">
				<use xlink:href="#SVGID_513_"  overflow="visible"/>
			</clipPath>
			<rect x="20.668" y="-5" clip-path="url(#SVGID_264_)" fill="#E8E5FF" width="21.799" height="21.872"/>
		</g>
	</g>
	<g>
		<defs>
			<polygon id="SVGID_515_" points="119.497,5.937 113.598,11.872 107.698,5.937 113.598,0 			"/>
		</defs>
		<clipPath id="SVGID_266_">
			<use xlink:href="#SVGID_515_"  overflow="visible"/>
		</clipPath>
		<g clip-path="url(#SVGID_266_)">
			<defs>
				<rect id="SVGID_517_" x="-865" y="-1507.14" width="1200" height="4459"/>
			</defs>
			<clipPath id="SVGID_268_">
				<use xlink:href="#SVGID_517_"  overflow="visible"/>
			</clipPath>
			<rect x="102.698" y="-5" clip-path="url(#SVGID_268_)" fill="#11C26F" width="21.799" height="21.872"/>
		</g>
	</g>
</g>
<g>
	<g>
		<defs>
			<path id="SVGID_531_" d="M70.027-1697.751v-7.643h14.967v7.567c0,12.536-10.052,22.698-22.451,22.698
				c-12.399,0-22.451-10.162-22.451-22.698v-7.567H55.06v7.633c0.037,4.148,3.373,7.5,7.484,7.5
				C66.651-1690.262,69.985-1693.608,70.027-1697.751z"/>
		</defs>
		<clipPath id="SVGID_270_">
			<use xlink:href="#SVGID_531_"  overflow="visible"/>
		</clipPath>
		<g clip-path="url(#SVGID_270_)">
			<defs>
				<rect id="SVGID_533_" x="-17.006" y="-1754.771" width="1200" height="4459"/>
			</defs>
			<clipPath id="SVGID_272_">
				<use xlink:href="#SVGID_533_"  overflow="visible"/>
			</clipPath>
		</g>
	</g>
</g>
</svg>
