<?xml version="1.0" encoding="utf-8"?>
<!-- Generator: Adobe Illustrator 16.0.0, SVG Export Plug-In . SVG Version: 6.00 Build 0)  -->
<!DOCTYPE svg PUBLIC "-//W3C//DTD SVG 1.1//EN" "http://www.w3.org/Graphics/SVG/1.1/DTD/svg11.dtd">
<svg version="1.1" id="Layer_1" xmlns="http://www.w3.org/2000/svg" xmlns:xlink="http://www.w3.org/1999/xlink" x="0px" y="0px"
	 width="118.378px" height="117.376px" viewBox="0 0 118.378 117.376" enable-background="new 0 0 118.378 117.376"
	 xml:space="preserve">
<g>
	<g>
		<defs>
			<path id="SVGID_45_" d="M44.021,58.688h14.668V29.344H44.017C19.708,29.344,0,49.051,0,73.36
				c0,24.309,19.708,44.016,44.017,44.016h14.672V88.032H43.747c-7.978-0.147-14.402-6.656-14.402-14.669
				C29.345,65.259,35.916,58.688,44.021,58.688"/>
		</defs>
		<clipPath id="SVGID_2_">
			<use xlink:href="#SVGID_45_"  overflow="visible"/>
		</clipPath>
		<rect x="-5" y="24.344" clip-path="url(#SVGID_2_)" fill="#FFFFFF" width="68.689" height="98.032"/>
	</g>
	<g>
		<defs>
			<path id="SVGID_47_" d="M74.357,58.688H59.689v29.345h14.672c24.309,0,44.017-19.707,44.017-44.017
				C118.378,19.707,98.67,0,74.361,0H59.689v29.344h14.942C82.609,29.491,89.033,36,89.033,44.013
				C89.033,52.117,82.462,58.688,74.357,58.688"/>
		</defs>
		<clipPath id="SVGID_4_">
			<use xlink:href="#SVGID_47_"  overflow="visible"/>
		</clipPath>
		<rect x="54.689" y="-5" clip-path="url(#SVGID_4_)" fill="#29244E" width="68.689" height="98.032"/>
	</g>
</g>
</svg>
