<?xml version="1.0" encoding="utf-8"?>
<!-- Generator: Adobe Illustrator 16.0.0, SVG Export Plug-In . SVG Version: 6.00 Build 0)  -->
<!DOCTYPE svg PUBLIC "-//W3C//DTD SVG 1.1//EN" "http://www.w3.org/Graphics/SVG/1.1/DTD/svg11.dtd">
<svg version="1.1" id="Layer_1" xmlns="http://www.w3.org/2000/svg" xmlns:xlink="http://www.w3.org/1999/xlink" x="0px" y="0px"
	 width="139.375px" height="104.959px" viewBox="0 0 139.375 104.959" enable-background="new 0 0 139.375 104.959"
	 xml:space="preserve">
<g>
	<g>
		<defs>
			<path id="SVGID_45_" d="M139.375,74.303c0,8.104-6.568,14.672-14.672,14.672s-14.672-6.568-14.672-14.672
				c0-8.103,6.568-14.672,14.672-14.672S139.375,66.2,139.375,74.303"/>
		</defs>
		<clipPath id="SVGID_2_">
			<use xlink:href="#SVGID_45_"  overflow="visible"/>
		</clipPath>
		<rect x="105.031" y="54.631" clip-path="url(#SVGID_2_)" fill="#FFFFFF" width="39.344" height="39.344"/>
	</g>
	<g>
		<defs>
			<path id="SVGID_47_" d="M139.375,14.672c0,8.104-6.568,14.672-14.672,14.672s-14.672-6.568-14.672-14.672
				C110.031,6.569,116.6,0,124.703,0S139.375,6.569,139.375,14.672"/>
		</defs>
		<clipPath id="SVGID_4_">
			<use xlink:href="#SVGID_47_"  overflow="visible"/>
		</clipPath>
		<rect x="105.031" y="-5" clip-path="url(#SVGID_4_)" fill="#FFFFFF" width="39.344" height="39.344"/>
	</g>
	<g>
		<defs>
			<path id="SVGID_49_" d="M29.344,46.271H0l0.002,14.672c0,24.31,19.707,44.016,44.014,44.016
				c24.311,0,44.016-19.707,44.016-44.016V46.271H58.688v14.668L44.012,75.615L29.344,60.947V46.271z"/>
		</defs>
		<clipPath id="SVGID_6_">
			<use xlink:href="#SVGID_49_"  overflow="visible"/>
		</clipPath>
		<rect x="-5" y="41.271" clip-path="url(#SVGID_6_)" fill="#29244E" width="98.031" height="68.688"/>
	</g>
</g>
</svg>
