<?xml version="1.0" encoding="utf-8"?>
<!-- Generator: Adobe Illustrator 16.0.0, SVG Export Plug-In . SVG Version: 6.00 Build 0)  -->
<!DOCTYPE svg PUBLIC "-//W3C//DTD SVG 1.1//EN" "http://www.w3.org/Graphics/SVG/1.1/DTD/svg11.dtd">
<svg version="1.1" id="Layer_1" xmlns="http://www.w3.org/2000/svg" xmlns:xlink="http://www.w3.org/1999/xlink" x="0px" y="0px"
	 width="88.448px" height="100.09px" viewBox="0 0 88.448 100.09" enable-background="new 0 0 88.448 100.09" xml:space="preserve">
<g>
	<g>
		<defs>
			<path id="SVGID_33_" d="M-482.331-1022.126c0-17.67,14.329-31.994,32.006-31.994H-52.99c17.677,0,32.007,14.332,32.007,31.994
				v249.412c0,17.67-14.329,31.994-32.007,31.994h-397.334c-17.676,0-32.006-14.332-32.006-31.994V-1022.126z"/>
		</defs>
		<clipPath id="SVGID_2_">
			<use xlink:href="#SVGID_33_"  overflow="visible"/>
		</clipPath>
		<g clip-path="url(#SVGID_2_)">
			<defs>
				<rect id="SVGID_35_" x="-852.157" y="-1548.92" width="1200" height="4459"/>
			</defs>
			<clipPath id="SVGID_4_">
				<use xlink:href="#SVGID_35_"  overflow="visible"/>
			</clipPath>
		</g>
	</g>
	<g>
		<defs>
			<path id="SVGID_37_" d="M-473.157-1018.923c0-13.806,11.2-24.997,25.007-24.997h392.986c13.811,0,25.007,11.195,25.007,24.997
				v243.006c0,13.806-11.2,24.997-25.007,24.997H-448.15c-13.811,0-25.007-11.195-25.007-24.997V-1018.923z"/>
		</defs>
		<clipPath id="SVGID_6_">
			<use xlink:href="#SVGID_37_"  overflow="visible"/>
		</clipPath>
		<g clip-path="url(#SVGID_6_)">
			<defs>
				<rect id="SVGID_39_" x="-852.157" y="-1548.92" width="1200" height="4459"/>
			</defs>
			<clipPath id="SVGID_8_">
				<use xlink:href="#SVGID_39_"  overflow="visible"/>
			</clipPath>
		</g>
	</g>
	<g>
		<defs>
			<path id="SVGID_41_" d="M-446.657-1031.922v271.004c0,1.384,1.121,2.498,2.506,2.498h372.988c1.389,0,2.506-1.115,2.506-2.498
				v-271.004c0-1.384-1.121-2.498-2.506-2.498h-372.988C-445.541-1034.42-446.657-1033.305-446.657-1031.922z M-445.657-1031.922
				c0-0.83,0.669-1.498,1.506-1.498h372.988c0.834,0,1.506,0.668,1.506,1.498v271.004c0,0.83-0.669,1.498-1.506,1.498h-372.988
				c-0.834,0-1.506-0.668-1.506-1.498V-1031.922z M-466.657-1054.42h418v316h-418V-1054.42z"/>
		</defs>
		<clipPath id="SVGID_10_">
			<use xlink:href="#SVGID_41_"  overflow="visible"/>
		</clipPath>
		<g clip-path="url(#SVGID_10_)">
			<defs>
				<path id="SVGID_43_" d="M-446.157-1031.922c0-1.104,0.89-1.998,2.006-1.998h372.988c1.107,0,2.006,0.889,2.006,1.998v271.004
					c0,1.104-0.89,1.998-2.006,1.998h-372.988c-1.108,0-2.006-0.889-2.006-1.998V-1031.922z"/>
			</defs>
			<clipPath id="SVGID_12_">
				<use xlink:href="#SVGID_43_"  overflow="visible"/>
			</clipPath>
			<g clip-path="url(#SVGID_12_)">
				<defs>
					<rect id="SVGID_45_" x="-852.157" y="-1548.92" width="1200" height="4459"/>
				</defs>
				<clipPath id="SVGID_14_">
					<use xlink:href="#SVGID_45_"  overflow="visible"/>
				</clipPath>
			</g>
		</g>
	</g>
	<g>
		<defs>
			<path id="SVGID_47_" d="M-446.157-1031.922c0-1.104,0.89-1.998,2.006-1.998h372.988c1.107,0,2.006,0.889,2.006,1.998v271.004
				c0,1.104-0.89,1.998-2.006,1.998h-372.988c-1.108,0-2.006-0.889-2.006-1.998V-1031.922z"/>
		</defs>
		<clipPath id="SVGID_16_">
			<use xlink:href="#SVGID_47_"  overflow="visible"/>
		</clipPath>
		<g clip-path="url(#SVGID_16_)">
			<defs>
				<rect id="SVGID_49_" x="-852.157" y="-1548.92" width="1200" height="4459"/>
			</defs>
			<clipPath id="SVGID_18_">
				<use xlink:href="#SVGID_49_"  overflow="visible"/>
			</clipPath>
		</g>
	</g>
	<g>
		<defs>
			<circle id="SVGID_51_" cx="-459.313" cy="-897.42" r="2.898"/>
		</defs>
		<clipPath id="SVGID_20_">
			<use xlink:href="#SVGID_51_"  overflow="visible"/>
		</clipPath>
		<g clip-path="url(#SVGID_20_)">
			<defs>
				<rect id="SVGID_53_" x="-852.157" y="-1548.92" width="1200" height="4459"/>
			</defs>
			<clipPath id="SVGID_22_">
				<use xlink:href="#SVGID_53_"  overflow="visible"/>
			</clipPath>
		</g>
	</g>
	<g>
		<defs>
			<circle id="SVGID_55_" cx="-49.796" cy="-897.42" r="9.337"/>
		</defs>
		<clipPath id="SVGID_24_">
			<use xlink:href="#SVGID_55_"  overflow="visible"/>
		</clipPath>
		<g clip-path="url(#SVGID_24_)">
			<defs>
				<rect id="SVGID_57_" x="-852.157" y="-1548.92" width="1200" height="4459"/>
			</defs>
			<clipPath id="SVGID_26_">
				<use xlink:href="#SVGID_57_"  overflow="visible"/>
			</clipPath>
		</g>
	</g>
	<g>
		<defs>
			<path id="SVGID_59_" d="M-445.157-800.92h375v40.007c0,0.548-0.445,0.993-0.994,0.993h-373.012c-0.549,0-0.994-0.446-0.994-0.993
				V-800.92z"/>
		</defs>
		<clipPath id="SVGID_28_">
			<use xlink:href="#SVGID_59_"  overflow="visible"/>
		</clipPath>
		<g clip-path="url(#SVGID_28_)">
			<defs>
				<rect id="SVGID_61_" x="-852.157" y="-1548.92" width="1200" height="4459"/>
			</defs>
			<clipPath id="SVGID_30_">
				<use xlink:href="#SVGID_61_"  overflow="visible"/>
			</clipPath>
		</g>
	</g>
	<g>
		<defs>
			<path id="SVGID_63_" d="M-70.157-1011.92h-375v-20.001c0-0.552,0.445-0.999,0.994-0.999h373.012c0.549,0,0.994,0.439,0.994,0.999
				V-1011.92z"/>
		</defs>
		<clipPath id="SVGID_32_">
			<use xlink:href="#SVGID_63_"  overflow="visible"/>
		</clipPath>
		<g clip-path="url(#SVGID_32_)">
			<defs>
				<rect id="SVGID_65_" x="-852.157" y="-1548.92" width="1200" height="4459"/>
			</defs>
			<clipPath id="SVGID_34_">
				<use xlink:href="#SVGID_65_"  overflow="visible"/>
			</clipPath>
		</g>
	</g>
	<g>
		<defs>
			<path id="SVGID_67_" d="M-423.773-1024.035v-1.885h3.692v1.866c0,3.093-2.479,5.599-5.538,5.599
				c-3.059,0-5.538-2.506-5.538-5.599v-1.866h3.692v1.883c0.009,1.023,0.832,1.85,1.846,1.85
				C-424.606-1022.187-423.784-1023.013-423.773-1024.035z"/>
		</defs>
		<clipPath id="SVGID_36_">
			<use xlink:href="#SVGID_67_"  overflow="visible"/>
		</clipPath>
		<g clip-path="url(#SVGID_36_)">
			<defs>
				<rect id="SVGID_69_" x="-852.157" y="-1548.92" width="1200" height="4459"/>
			</defs>
			<clipPath id="SVGID_38_">
				<use xlink:href="#SVGID_69_"  overflow="visible"/>
			</clipPath>
		</g>
	</g>
	<g>
		<defs>
			<circle id="SVGID_71_" cx="-207.157" cy="-928.92" r="2"/>
		</defs>
		<clipPath id="SVGID_40_">
			<use xlink:href="#SVGID_71_"  overflow="visible"/>
		</clipPath>
		<g clip-path="url(#SVGID_40_)">
			<defs>
				<rect id="SVGID_73_" x="-852.157" y="-1548.92" width="1200" height="4459"/>
			</defs>
			<clipPath id="SVGID_42_">
				<use xlink:href="#SVGID_73_"  overflow="visible"/>
			</clipPath>
		</g>
	</g>
	<g>
		<defs>
			<circle id="SVGID_75_" cx="-207.157" cy="-980.92" r="2"/>
		</defs>
		<clipPath id="SVGID_44_">
			<use xlink:href="#SVGID_75_"  overflow="visible"/>
		</clipPath>
		<g clip-path="url(#SVGID_44_)">
			<defs>
				<rect id="SVGID_77_" x="-852.157" y="-1548.92" width="1200" height="4459"/>
			</defs>
			<clipPath id="SVGID_46_">
				<use xlink:href="#SVGID_77_"  overflow="visible"/>
			</clipPath>
		</g>
	</g>
	<g>
		<defs>
			<circle id="SVGID_79_" cx="-151.157" cy="-980.92" r="2"/>
		</defs>
		<clipPath id="SVGID_48_">
			<use xlink:href="#SVGID_79_"  overflow="visible"/>
		</clipPath>
		<g clip-path="url(#SVGID_48_)">
			<defs>
				<rect id="SVGID_81_" x="-852.157" y="-1548.92" width="1200" height="4459"/>
			</defs>
			<clipPath id="SVGID_50_">
				<use xlink:href="#SVGID_81_"  overflow="visible"/>
			</clipPath>
		</g>
	</g>
	<g>
		<defs>
			<circle id="SVGID_83_" cx="-263.157" cy="-980.92" r="2"/>
		</defs>
		<clipPath id="SVGID_52_">
			<use xlink:href="#SVGID_83_"  overflow="visible"/>
		</clipPath>
		<g clip-path="url(#SVGID_52_)">
			<defs>
				<rect id="SVGID_85_" x="-852.157" y="-1548.92" width="1200" height="4459"/>
			</defs>
			<clipPath id="SVGID_54_">
				<use xlink:href="#SVGID_85_"  overflow="visible"/>
			</clipPath>
		</g>
	</g>
	<g>
		<defs>
			<circle id="SVGID_87_" cx="-320.157" cy="-980.92" r="2"/>
		</defs>
		<clipPath id="SVGID_56_">
			<use xlink:href="#SVGID_87_"  overflow="visible"/>
		</clipPath>
		<g clip-path="url(#SVGID_56_)">
			<defs>
				<rect id="SVGID_89_" x="-852.157" y="-1548.92" width="1200" height="4459"/>
			</defs>
			<clipPath id="SVGID_58_">
				<use xlink:href="#SVGID_89_"  overflow="visible"/>
			</clipPath>
		</g>
	</g>
	<g>
		<defs>
			<circle id="SVGID_91_" cx="-320.157" cy="-928.92" r="2"/>
		</defs>
		<clipPath id="SVGID_60_">
			<use xlink:href="#SVGID_91_"  overflow="visible"/>
		</clipPath>
		<g clip-path="url(#SVGID_60_)">
			<defs>
				<rect id="SVGID_93_" x="-852.157" y="-1548.92" width="1200" height="4459"/>
			</defs>
			<clipPath id="SVGID_62_">
				<use xlink:href="#SVGID_93_"  overflow="visible"/>
			</clipPath>
		</g>
	</g>
	<g>
		<defs>
			<circle id="SVGID_95_" cx="-378.157" cy="-980.92" r="2"/>
		</defs>
		<clipPath id="SVGID_64_">
			<use xlink:href="#SVGID_95_"  overflow="visible"/>
		</clipPath>
		<g clip-path="url(#SVGID_64_)">
			<defs>
				<rect id="SVGID_97_" x="-852.157" y="-1548.92" width="1200" height="4459"/>
			</defs>
			<clipPath id="SVGID_66_">
				<use xlink:href="#SVGID_97_"  overflow="visible"/>
			</clipPath>
		</g>
	</g>
	<g>
		<defs>
			<circle id="SVGID_99_" cx="-378.157" cy="-872.92" r="2"/>
		</defs>
		<clipPath id="SVGID_68_">
			<use xlink:href="#SVGID_99_"  overflow="visible"/>
		</clipPath>
		<g clip-path="url(#SVGID_68_)">
			<defs>
				<rect id="SVGID_101_" x="-852.157" y="-1548.92" width="1200" height="4459"/>
			</defs>
			<clipPath id="SVGID_70_">
				<use xlink:href="#SVGID_101_"  overflow="visible"/>
			</clipPath>
		</g>
	</g>
	<g>
		<defs>
			<circle id="SVGID_103_" cx="-235.157" cy="-872.92" r="2"/>
		</defs>
		<clipPath id="SVGID_72_">
			<use xlink:href="#SVGID_103_"  overflow="visible"/>
		</clipPath>
		<g clip-path="url(#SVGID_72_)">
			<defs>
				<rect id="SVGID_105_" x="-852.157" y="-1548.92" width="1200" height="4459"/>
			</defs>
			<clipPath id="SVGID_74_">
				<use xlink:href="#SVGID_105_"  overflow="visible"/>
			</clipPath>
		</g>
	</g>
	<g>
		<defs>
			<circle id="SVGID_107_" cx="-129.657" cy="-1022.42" r="5.5"/>
		</defs>
		<clipPath id="SVGID_76_">
			<use xlink:href="#SVGID_107_"  overflow="visible"/>
		</clipPath>
		<g clip-path="url(#SVGID_76_)">
			<defs>
				<rect id="SVGID_109_" x="-852.157" y="-1548.92" width="1200" height="4459"/>
			</defs>
			<clipPath id="SVGID_78_">
				<use xlink:href="#SVGID_109_"  overflow="visible"/>
			</clipPath>
		</g>
	</g>
</g>
<g>
	<g>
		<defs>
			<path id="SVGID_175_" d="M121.16,181.847c1.806-1.773,4.703-1.763,6.494,0.033c1.794,1.798,1.802,4.706,0.026,6.515l-3.289,3.298
				l3.278,3.286c1.786,1.808,1.781,4.724-0.016,6.526c-1.788,1.791-4.678,1.805-6.484,0.043l-3.306-3.313l-3.263,3.27
				c-1.803,1.807-4.727,1.806-6.529,0c-1.782-1.787-1.801-4.67-0.06-6.48l3.324-3.331l-3.28-3.287c-1.78-1.802-1.78-4.706,0-6.509
				l0.034-0.033c1.789-1.775,4.665-1.784,6.466-0.027l3.308,3.315L121.16,181.847z"/>
		</defs>
		<clipPath id="SVGID_80_">
			<use xlink:href="#SVGID_175_"  overflow="visible"/>
		</clipPath>
		<g clip-path="url(#SVGID_80_)">
			<defs>
				<rect id="SVGID_177_" x="-549.157" y="-1499.92" width="1200" height="4459"/>
			</defs>
			<clipPath id="SVGID_82_">
				<use xlink:href="#SVGID_177_"  overflow="visible"/>
			</clipPath>
		</g>
	</g>
	<g>
		<defs>
			<path id="SVGID_179_" d="M81.059,241.695c0,2.555-2.066,4.626-4.616,4.626c-2.549,0-4.615-2.071-4.615-4.626
				c0-2.554,2.066-4.625,4.615-4.625C78.992,237.07,81.059,239.141,81.059,241.695"/>
		</defs>
		<clipPath id="SVGID_84_">
			<use xlink:href="#SVGID_179_"  overflow="visible"/>
		</clipPath>
		<g clip-path="url(#SVGID_84_)">
			<defs>
				<rect id="SVGID_181_" x="-549.157" y="-1499.92" width="1200" height="4459"/>
			</defs>
			<clipPath id="SVGID_86_">
				<use xlink:href="#SVGID_181_"  overflow="visible"/>
			</clipPath>
		</g>
	</g>
	<g>
		<defs>
			<path id="SVGID_183_" d="M0.467,138.868c-1.803-1.806-4.725-1.806-6.527,0c-0.802,0.804-2.032,2.036-3.262,3.269l6.527,6.542
				c1.23-1.233,2.46-2.466,3.262-3.269C2.269,143.603,2.269,140.674,0.467,138.868"/>
		</defs>
		<clipPath id="SVGID_88_">
			<use xlink:href="#SVGID_183_"  overflow="visible"/>
		</clipPath>
		<g clip-path="url(#SVGID_88_)">
			<defs>
				<rect id="SVGID_185_" x="-549.157" y="-1499.92" width="1200" height="4459"/>
			</defs>
			<clipPath id="SVGID_90_">
				<use xlink:href="#SVGID_185_"  overflow="visible"/>
			</clipPath>
		</g>
	</g>
	<g>
		<defs>
			<path id="SVGID_187_" d="M-12.805,145.628c-1.803,1.806-1.803,4.735,0,6.541c1.802,1.807,4.725,1.807,6.527,0
				c0.803-0.804,2.034-2.038,3.265-3.272l-6.527-6.542C-10.771,143.589-12.003,144.824-12.805,145.628"/>
		</defs>
		<clipPath id="SVGID_92_">
			<use xlink:href="#SVGID_187_"  overflow="visible"/>
		</clipPath>
		<g clip-path="url(#SVGID_92_)">
			<defs>
				<rect id="SVGID_189_" x="-549.157" y="-1499.92" width="1200" height="4459"/>
			</defs>
			<clipPath id="SVGID_94_">
				<use xlink:href="#SVGID_189_"  overflow="visible"/>
			</clipPath>
		</g>
	</g>
	<g>
		<defs>
			<path id="SVGID_191_" d="M38.289,237.07h4.614v-9.251h-4.616c-7.647,0-13.846,6.212-13.846,13.876s6.199,13.877,13.846,13.877
				h4.616v-9.251h-4.701c-2.509-0.047-4.53-2.099-4.53-4.625C33.672,239.141,35.739,237.07,38.289,237.07"/>
		</defs>
		<clipPath id="SVGID_96_">
			<use xlink:href="#SVGID_191_"  overflow="visible"/>
		</clipPath>
		<g clip-path="url(#SVGID_96_)">
			<defs>
				<rect id="SVGID_193_" x="-549.157" y="-1499.92" width="1200" height="4459"/>
			</defs>
			<clipPath id="SVGID_98_">
				<use xlink:href="#SVGID_193_"  overflow="visible"/>
			</clipPath>
		</g>
	</g>
	<g>
		<defs>
			<polygon id="SVGID_195_" points="33.672,185.151 27.145,178.609 20.618,185.151 27.145,191.692 20.618,198.234 27.145,204.775 
				33.672,198.234 40.199,204.775 46.726,198.234 40.199,191.692 46.726,185.151 40.199,178.609 			"/>
		</defs>
		<clipPath id="SVGID_100_">
			<use xlink:href="#SVGID_195_"  overflow="visible"/>
		</clipPath>
		<g clip-path="url(#SVGID_100_)">
			<defs>
				<rect id="SVGID_197_" x="-549.157" y="-1499.92" width="1200" height="4459"/>
			</defs>
			<clipPath id="SVGID_102_">
				<use xlink:href="#SVGID_197_"  overflow="visible"/>
			</clipPath>
		</g>
	</g>
	<g>
		<defs>
			<rect id="SVGID_199_" x="72.389" y="138.518" width="9.231" height="9.251"/>
		</defs>
		<clipPath id="SVGID_104_">
			<use xlink:href="#SVGID_199_"  overflow="visible"/>
		</clipPath>
		<g clip-path="url(#SVGID_104_)">
			<defs>
				<rect id="SVGID_201_" x="-549.157" y="-1499.92" width="1200" height="4459"/>
			</defs>
			<clipPath id="SVGID_106_">
				<use xlink:href="#SVGID_201_"  overflow="visible"/>
			</clipPath>
		</g>
	</g>
	<g>
		<defs>
			<polygon id="SVGID_203_" points="121.019,148.899 114.491,155.44 107.964,148.899 114.491,142.357 			"/>
		</defs>
		<clipPath id="SVGID_108_">
			<use xlink:href="#SVGID_203_"  overflow="visible"/>
		</clipPath>
		<g clip-path="url(#SVGID_108_)">
			<defs>
				<rect id="SVGID_205_" x="-549.157" y="-1499.92" width="1200" height="4459"/>
			</defs>
			<clipPath id="SVGID_110_">
				<use xlink:href="#SVGID_205_"  overflow="visible"/>
			</clipPath>
		</g>
	</g>
	<g>
		<defs>
			<polygon id="SVGID_207_" points="127.763,142.139 121.236,148.68 114.709,142.139 121.236,135.597 			"/>
		</defs>
		<clipPath id="SVGID_112_">
			<use xlink:href="#SVGID_207_"  overflow="visible"/>
		</clipPath>
		<g clip-path="url(#SVGID_112_)">
			<defs>
				<rect id="SVGID_209_" x="-549.157" y="-1499.92" width="1200" height="4459"/>
			</defs>
			<clipPath id="SVGID_114_">
				<use xlink:href="#SVGID_209_"  overflow="visible"/>
			</clipPath>
		</g>
	</g>
	<g>
		<defs>
			<path id="SVGID_211_" d="M122.479,250.946h9.23v-4.625c0-7.664-6.199-13.877-13.847-13.877c-7.646,0-13.846,6.213-13.846,13.877
				v4.625h9.23v-9.251h9.231V250.946z"/>
		</defs>
		<clipPath id="SVGID_116_">
			<use xlink:href="#SVGID_211_"  overflow="visible"/>
		</clipPath>
		<g clip-path="url(#SVGID_116_)">
			<defs>
				<rect id="SVGID_213_" x="-549.157" y="-1499.92" width="1200" height="4459"/>
			</defs>
			<clipPath id="SVGID_118_">
				<use xlink:href="#SVGID_213_"  overflow="visible"/>
			</clipPath>
		</g>
	</g>
	<g>
		<defs>
			<polygon id="SVGID_215_" points="42.903,139.373 38.287,139.373 38.287,134.859 33.673,130.234 29.057,134.861 29.057,139.373 
				24.44,139.373 19.826,143.998 24.442,148.624 29.057,148.624 29.057,153.361 33.562,157.875 33.785,157.875 38.287,153.363 
				38.287,148.624 42.901,148.624 47.518,143.998 			"/>
		</defs>
		<clipPath id="SVGID_120_">
			<use xlink:href="#SVGID_215_"  overflow="visible"/>
		</clipPath>
		<g clip-path="url(#SVGID_120_)">
			<defs>
				<rect id="SVGID_217_" x="-549.157" y="-1499.92" width="1200" height="4459"/>
			</defs>
			<clipPath id="SVGID_122_">
				<use xlink:href="#SVGID_217_"  overflow="visible"/>
			</clipPath>
		</g>
	</g>
	<g>
		<defs>
			<polygon id="SVGID_219_" points="-6.169,195.747 -1.553,191.12 -6.171,186.496 -10.786,191.12 			"/>
		</defs>
		<clipPath id="SVGID_124_">
			<use xlink:href="#SVGID_219_"  overflow="visible"/>
		</clipPath>
		<g clip-path="url(#SVGID_124_)">
			<defs>
				<rect id="SVGID_221_" x="-549.157" y="-1499.92" width="1200" height="4459"/>
			</defs>
			<clipPath id="SVGID_126_">
				<use xlink:href="#SVGID_221_"  overflow="visible"/>
			</clipPath>
		</g>
	</g>
	<g>
		<defs>
			<polygon id="SVGID_223_" points="-6.281,235.043 -12.807,235.043 -12.807,241.586 -9.542,244.858 -3.015,238.316 			"/>
		</defs>
		<clipPath id="SVGID_128_">
			<use xlink:href="#SVGID_223_"  overflow="visible"/>
		</clipPath>
		<g clip-path="url(#SVGID_128_)">
			<defs>
				<rect id="SVGID_225_" x="-549.157" y="-1499.92" width="1200" height="4459"/>
			</defs>
			<clipPath id="SVGID_130_">
				<use xlink:href="#SVGID_225_"  overflow="visible"/>
			</clipPath>
		</g>
	</g>
	<g>
		<defs>
			<polygon id="SVGID_227_" points="0.468,248.348 0.465,241.804 -2.798,238.534 -9.325,245.076 -6.061,248.348 			"/>
		</defs>
		<clipPath id="SVGID_132_">
			<use xlink:href="#SVGID_227_"  overflow="visible"/>
		</clipPath>
		<g clip-path="url(#SVGID_132_)">
			<defs>
				<rect id="SVGID_229_" x="-549.157" y="-1499.92" width="1200" height="4459"/>
			</defs>
			<clipPath id="SVGID_134_">
				<use xlink:href="#SVGID_229_"  overflow="visible"/>
			</clipPath>
		</g>
	</g>
	<g>
		<defs>
			<path id="SVGID_231_" d="M68.335,195.92v9.251h4.615c7.647,0,13.847-6.213,13.847-13.877s-6.199-13.876-13.847-13.876h-4.615
				v9.251h6.153l4.617,4.626l-4.614,4.625H68.335z"/>
		</defs>
		<clipPath id="SVGID_136_">
			<use xlink:href="#SVGID_231_"  overflow="visible"/>
		</clipPath>
		<g clip-path="url(#SVGID_136_)">
			<defs>
				<rect id="SVGID_233_" x="-549.157" y="-1499.92" width="1200" height="4459"/>
			</defs>
			<clipPath id="SVGID_138_">
				<use xlink:href="#SVGID_233_"  overflow="visible"/>
			</clipPath>
		</g>
	</g>
</g>
<g>
	<g>
		<defs>
			
				<rect id="SVGID_259_" x="21.192" y="31.007" transform="matrix(-0.7071 0.7071 -0.7071 -0.7071 115.9555 61.8027)" width="47.973" height="47.82"/>
		</defs>
		<clipPath id="SVGID_140_">
			<use xlink:href="#SVGID_259_"  overflow="visible"/>
		</clipPath>
		<g clip-path="url(#SVGID_140_)">
			<defs>
				<rect id="SVGID_261_" x="-203.157" y="-1519.92" width="1200" height="4459"/>
			</defs>
			<clipPath id="SVGID_142_">
				<use xlink:href="#SVGID_261_"  overflow="visible"/>
			</clipPath>
			<g clip-path="url(#SVGID_142_)" enable-background="new    ">
				<g>
					<defs>
						<rect id="SVGID_263_" x="24.843" y="32.08" width="43" height="46"/>
					</defs>
					<clipPath id="SVGID_144_">
						<use xlink:href="#SVGID_263_"  overflow="visible"/>
					</clipPath>
					<g clip-path="url(#SVGID_144_)">
						<defs>
							<path id="SVGID_265_" d="M45.196,43.627l-5.711-5.711c-3.109-3.027-8.084-3.005-11.184,0.064
								c-3.143,3.174-3.15,8.185-0.076,11.291l5.664,5.664l-5.757,5.757c-3.018,3.131-2.994,8.105,0.084,11.184
								c3.113,3.114,8.169,3.106,11.292-0.018l5.652-5.652l11.302,11.302l11.26-11.354L56.468,54.899l11.307-11.308L56.503,32.32
								L45.196,43.627z"/>
						</defs>
						<clipPath id="SVGID_146_">
							<use xlink:href="#SVGID_265_"  overflow="visible"/>
						</clipPath>
						<g clip-path="url(#SVGID_146_)">
							<defs>
								<rect id="SVGID_267_" x="10.843" y="20.08" width="69" height="69"/>
							</defs>
							<clipPath id="SVGID_148_">
								<use xlink:href="#SVGID_267_"  overflow="visible"/>
							</clipPath>
							
								<rect x="16.261" y="25.946" transform="matrix(-0.7071 -0.7071 0.7071 -0.7071 38.3068 125.7312)" clip-path="url(#SVGID_148_)" fill="#009FFF" width="57.865" height="57.972"/>
						</g>
					</g>
				</g>
			</g>
		</g>
	</g>
	<g>
		<g>
			<defs>
				<path id="SVGID_269_" d="M72.47,31.918l15.966-0.025l0.012-7.983C88.469,10.684,77.764-0.021,64.538,0
					C51.312,0.021,40.572,10.76,40.551,23.986l-0.013,7.982l15.966-0.024l0.025-15.966l15.966-0.025L72.47,31.918z"/>
			</defs>
			<clipPath id="SVGID_150_">
				<use xlink:href="#SVGID_269_"  overflow="visible"/>
			</clipPath>
			<g clip-path="url(#SVGID_150_)">
				<defs>
					<rect id="SVGID_271_" x="-203.157" y="-1519.92" width="1200" height="4459"/>
				</defs>
				<clipPath id="SVGID_152_">
					<use xlink:href="#SVGID_271_"  overflow="visible"/>
				</clipPath>
				
					<rect x="36.275" y="-5.321" transform="matrix(-0.7071 -0.7071 0.7071 -0.7071 93.8612 84.8389)" clip-path="url(#SVGID_152_)" fill="#FFB500" width="56.454" height="56.601"/>
			</g>
		</g>
		<g>
			<defs>
				
					<rect id="SVGID_273_" x="4.304" y="55.885" transform="matrix(0.7071 0.7071 -0.7071 0.7071 59.0875 1.1011)" width="47.821" height="31.982"/>
			</defs>
			<clipPath id="SVGID_154_">
				<use xlink:href="#SVGID_273_"  overflow="visible"/>
			</clipPath>
			<g clip-path="url(#SVGID_154_)">
				<defs>
					<rect id="SVGID_275_" x="-203.157" y="-1519.92" width="1200" height="4459"/>
				</defs>
				<clipPath id="SVGID_156_">
					<use xlink:href="#SVGID_275_"  overflow="visible"/>
				</clipPath>
				<g clip-path="url(#SVGID_156_)" enable-background="new    ">
					<g>
						<defs>
							<rect id="SVGID_277_" x="6.843" y="43.08" width="50" height="50"/>
						</defs>
						<clipPath id="SVGID_158_">
							<use xlink:href="#SVGID_277_"  overflow="visible"/>
						</clipPath>
						<g clip-path="url(#SVGID_158_)">
							<defs>
								<path id="SVGID_279_" d="M28.234,60.584l5.652-5.652L22.615,43.661l-5.654,5.653c-9.367,9.367-9.391,24.531-0.054,33.869
									c9.338,9.337,24.501,9.313,33.868-0.054l5.654-5.654L45.158,66.204L39.4,71.961c-3.13,3.018-8.106,2.993-11.184-0.085
									C25.103,68.763,25.111,63.708,28.234,60.584"/>
							</defs>
							<clipPath id="SVGID_160_">
								<use xlink:href="#SVGID_279_"  overflow="visible"/>
							</clipPath>
							<g clip-path="url(#SVGID_160_)">
								<defs>
									<rect id="SVGID_281_" x="-0.157" y="43.08" width="57" height="58"/>
								</defs>
								<clipPath id="SVGID_162_">
									<use xlink:href="#SVGID_281_"  overflow="visible"/>
								</clipPath>
								
									<rect x="-0.696" y="50.884" transform="matrix(-0.7071 -0.7071 0.7071 -0.7071 -2.6579 142.6501)" clip-path="url(#SVGID_162_)" fill="#009FFF" width="57.821" height="41.982"/>
							</g>
						</g>
					</g>
				</g>
			</g>
		</g>
		<path fill="none" stroke="#FFFFFF" stroke-miterlimit="10" d="M22.615,43.661l11.274,11.274l-5.757,5.757
			c-3.018,3.13-2.993,8.106,0.084,11.184c3.113,3.113,8.169,3.105,11.292-0.018l5.652-5.652l11.269,11.269"/>
	</g>
</g>
<g>
	<g>
		<defs>
			<path id="SVGID_401_" d="M49.774,364.835l-5.899-5.936l-2.95,2.968c-4.888,4.917-4.888,12.89,0,17.807
				c4.888,4.918,12.812,4.918,17.698,0l2.95-2.968l-5.899-5.935l-3.784,3.807h-5.9v-5.936L49.774,364.835z"/>
		</defs>
		<clipPath id="SVGID_164_">
			<use xlink:href="#SVGID_401_"  overflow="visible"/>
		</clipPath>
		<g clip-path="url(#SVGID_164_)">
			<defs>
				<rect id="SVGID_403_" x="-847.151" y="-1220.288" width="1200" height="4459"/>
			</defs>
			<clipPath id="SVGID_166_">
				<use xlink:href="#SVGID_403_"  overflow="visible"/>
			</clipPath>
		</g>
	</g>
	<g>
		<defs>
			<rect id="SVGID_405_" x="46.466" y="315.934" width="5.901" height="5.938"/>
		</defs>
		<clipPath id="SVGID_168_">
			<use xlink:href="#SVGID_405_"  overflow="visible"/>
		</clipPath>
		<g clip-path="url(#SVGID_168_)">
			<defs>
				<rect id="SVGID_407_" x="-847.151" y="-1220.288" width="1200" height="4459"/>
			</defs>
			<clipPath id="SVGID_170_">
				<use xlink:href="#SVGID_407_"  overflow="visible"/>
			</clipPath>
		</g>
	</g>
	<g>
		<defs>
			<path id="SVGID_409_" d="M78.793,315.934c1.629,1.64,1.629,4.297,0,5.937c-1.629,1.639-4.271,1.639-5.899,0
				c-1.629-1.639-1.629-4.297,0-5.937C74.522,314.295,77.164,314.295,78.793,315.934"/>
		</defs>
		<clipPath id="SVGID_172_">
			<use xlink:href="#SVGID_409_"  overflow="visible"/>
		</clipPath>
		<g clip-path="url(#SVGID_172_)">
			<defs>
				<rect id="SVGID_411_" x="-847.151" y="-1220.288" width="1200" height="4459"/>
			</defs>
			<clipPath id="SVGID_174_">
				<use xlink:href="#SVGID_411_"  overflow="visible"/>
			</clipPath>
		</g>
	</g>
	<g>
		<defs>
			<path id="SVGID_413_" d="M134.396,315.934c1.629,1.64,1.629,4.297,0,5.937c-1.629,1.639-4.271,1.639-5.899,0
				c-1.629-1.639-1.629-4.297,0-5.937C130.126,314.295,132.768,314.295,134.396,315.934"/>
		</defs>
		<clipPath id="SVGID_176_">
			<use xlink:href="#SVGID_413_"  overflow="visible"/>
		</clipPath>
		<g clip-path="url(#SVGID_176_)">
			<defs>
				<rect id="SVGID_415_" x="-847.151" y="-1220.288" width="1200" height="4459"/>
			</defs>
			<clipPath id="SVGID_178_">
				<use xlink:href="#SVGID_415_"  overflow="visible"/>
			</clipPath>
		</g>
	</g>
	<g>
		<defs>
			<rect id="SVGID_417_" x="17.849" y="312.966" width="11.799" height="11.872"/>
		</defs>
		<clipPath id="SVGID_180_">
			<use xlink:href="#SVGID_417_"  overflow="visible"/>
		</clipPath>
		<g clip-path="url(#SVGID_180_)">
			<defs>
				<rect id="SVGID_419_" x="-847.151" y="-1220.288" width="1200" height="4459"/>
			</defs>
			<clipPath id="SVGID_182_">
				<use xlink:href="#SVGID_419_"  overflow="visible"/>
			</clipPath>
		</g>
	</g>
	<g>
		<defs>
			<polygon id="SVGID_427_" points="109.434,318.902 103.533,324.838 97.634,318.902 103.533,312.966 			"/>
		</defs>
		<clipPath id="SVGID_184_">
			<use xlink:href="#SVGID_427_"  overflow="visible"/>
		</clipPath>
		<g clip-path="url(#SVGID_184_)">
			<defs>
				<rect id="SVGID_429_" x="-847.151" y="-1220.288" width="1200" height="4459"/>
			</defs>
			<clipPath id="SVGID_186_">
				<use xlink:href="#SVGID_429_"  overflow="visible"/>
			</clipPath>
		</g>
	</g>
	<g>
		<defs>
			<rect id="SVGID_431_" x="100.583" y="394.274" width="5.901" height="5.938"/>
		</defs>
		<clipPath id="SVGID_188_">
			<use xlink:href="#SVGID_431_"  overflow="visible"/>
		</clipPath>
		<g clip-path="url(#SVGID_188_)">
			<defs>
				<rect id="SVGID_433_" x="-847.151" y="-1220.288" width="1200" height="4459"/>
			</defs>
			<clipPath id="SVGID_190_">
				<use xlink:href="#SVGID_433_"  overflow="visible"/>
			</clipPath>
		</g>
	</g>
	<g>
		<defs>
			<path id="SVGID_435_" d="M72.894,400.213c-1.629-1.639-1.629-4.297,0-5.936c1.629-1.64,4.271-1.639,5.899,0s1.629,4.296,0,5.936
				C77.164,401.852,74.522,401.852,72.894,400.213"/>
		</defs>
		<clipPath id="SVGID_192_">
			<use xlink:href="#SVGID_435_"  overflow="visible"/>
		</clipPath>
		<g clip-path="url(#SVGID_192_)">
			<defs>
				<rect id="SVGID_437_" x="-847.151" y="-1220.288" width="1200" height="4459"/>
			</defs>
			<clipPath id="SVGID_194_">
				<use xlink:href="#SVGID_437_"  overflow="visible"/>
			</clipPath>
		</g>
	</g>
	<g>
		<defs>
			<path id="SVGID_439_" d="M20.798,400.213c-1.629-1.639-1.629-4.297,0-5.936c1.63-1.64,4.271-1.639,5.9,0
				c1.629,1.639,1.629,4.296,0,5.936C25.068,401.852,22.428,401.852,20.798,400.213"/>
		</defs>
		<clipPath id="SVGID_196_">
			<use xlink:href="#SVGID_439_"  overflow="visible"/>
		</clipPath>
		<g clip-path="url(#SVGID_196_)">
			<defs>
				<rect id="SVGID_441_" x="-847.151" y="-1220.288" width="1200" height="4459"/>
			</defs>
			<clipPath id="SVGID_198_">
				<use xlink:href="#SVGID_441_"  overflow="visible"/>
			</clipPath>
		</g>
	</g>
	<g>
		<defs>
			<rect id="SVGID_443_" x="125.547" y="391.309" width="11.799" height="11.872"/>
		</defs>
		<clipPath id="SVGID_200_">
			<use xlink:href="#SVGID_443_"  overflow="visible"/>
		</clipPath>
		<g clip-path="url(#SVGID_200_)">
			<defs>
				<rect id="SVGID_445_" x="-847.151" y="-1220.288" width="1200" height="4459"/>
			</defs>
			<clipPath id="SVGID_202_">
				<use xlink:href="#SVGID_445_"  overflow="visible"/>
			</clipPath>
		</g>
	</g>
	<g>
		<defs>
			<rect id="SVGID_453_" x="43.517" y="391.309" width="11.799" height="11.872"/>
		</defs>
		<clipPath id="SVGID_204_">
			<use xlink:href="#SVGID_453_"  overflow="visible"/>
		</clipPath>
		<g clip-path="url(#SVGID_204_)">
			<defs>
				<rect id="SVGID_455_" x="-847.151" y="-1220.288" width="1200" height="4459"/>
			</defs>
			<clipPath id="SVGID_206_">
				<use xlink:href="#SVGID_455_"  overflow="visible"/>
			</clipPath>
		</g>
	</g>
	<g>
		<defs>
			<rect id="SVGID_463_" x="46.466" y="342.049" width="5.901" height="5.937"/>
		</defs>
		<clipPath id="SVGID_208_">
			<use xlink:href="#SVGID_463_"  overflow="visible"/>
		</clipPath>
		<g clip-path="url(#SVGID_208_)">
			<defs>
				<rect id="SVGID_465_" x="-847.151" y="-1220.288" width="1200" height="4459"/>
			</defs>
			<clipPath id="SVGID_210_">
				<use xlink:href="#SVGID_465_"  overflow="visible"/>
			</clipPath>
		</g>
	</g>
	<g>
		<defs>
			<path id="SVGID_467_" d="M26.698,342.048c1.629,1.639,1.629,4.297,0,5.936c-1.629,1.64-4.271,1.639-5.9,0
				c-1.629-1.639-1.629-4.296,0-5.936C22.428,340.409,25.069,340.409,26.698,342.048"/>
		</defs>
		<clipPath id="SVGID_212_">
			<use xlink:href="#SVGID_467_"  overflow="visible"/>
		</clipPath>
		<g clip-path="url(#SVGID_212_)">
			<defs>
				<rect id="SVGID_469_" x="-847.151" y="-1220.288" width="1200" height="4459"/>
			</defs>
			<clipPath id="SVGID_214_">
				<use xlink:href="#SVGID_469_"  overflow="visible"/>
			</clipPath>
		</g>
	</g>
	<g>
		<defs>
			<polygon id="SVGID_471_" points="81.742,345.016 75.843,350.952 69.943,345.016 75.843,339.08 			"/>
		</defs>
		<clipPath id="SVGID_216_">
			<use xlink:href="#SVGID_471_"  overflow="visible"/>
		</clipPath>
		<g clip-path="url(#SVGID_216_)">
			<defs>
				<rect id="SVGID_473_" x="-847.151" y="-1220.288" width="1200" height="4459"/>
			</defs>
			<clipPath id="SVGID_218_">
				<use xlink:href="#SVGID_473_"  overflow="visible"/>
			</clipPath>
		</g>
	</g>
	<g>
		<defs>
			<rect id="SVGID_475_" x="100.583" y="342.049" width="5.901" height="5.937"/>
		</defs>
		<clipPath id="SVGID_220_">
			<use xlink:href="#SVGID_475_"  overflow="visible"/>
		</clipPath>
		<g clip-path="url(#SVGID_220_)">
			<defs>
				<rect id="SVGID_477_" x="-847.151" y="-1220.288" width="1200" height="4459"/>
			</defs>
			<clipPath id="SVGID_222_">
				<use xlink:href="#SVGID_477_"  overflow="visible"/>
			</clipPath>
		</g>
	</g>
	<g>
		<defs>
			<polygon id="SVGID_479_" points="137.346,345.016 131.446,350.952 125.547,345.016 131.446,339.08 			"/>
		</defs>
		<clipPath id="SVGID_224_">
			<use xlink:href="#SVGID_479_"  overflow="visible"/>
		</clipPath>
		<g clip-path="url(#SVGID_224_)">
			<defs>
				<rect id="SVGID_481_" x="-847.151" y="-1220.288" width="1200" height="4459"/>
			</defs>
			<clipPath id="SVGID_226_">
				<use xlink:href="#SVGID_481_"  overflow="visible"/>
			</clipPath>
		</g>
	</g>
	<g>
		<defs>
			<rect id="SVGID_483_" x="128.496" y="368.164" width="5.901" height="5.937"/>
		</defs>
		<clipPath id="SVGID_228_">
			<use xlink:href="#SVGID_483_"  overflow="visible"/>
		</clipPath>
		<g clip-path="url(#SVGID_228_)">
			<defs>
				<rect id="SVGID_485_" x="-847.151" y="-1220.288" width="1200" height="4459"/>
			</defs>
			<clipPath id="SVGID_230_">
				<use xlink:href="#SVGID_485_"  overflow="visible"/>
			</clipPath>
		</g>
	</g>
	<g>
		<defs>
			<rect id="SVGID_487_" x="20.798" y="368.164" width="5.9" height="5.937"/>
		</defs>
		<clipPath id="SVGID_232_">
			<use xlink:href="#SVGID_487_"  overflow="visible"/>
		</clipPath>
		<g clip-path="url(#SVGID_232_)">
			<defs>
				<rect id="SVGID_489_" x="-847.151" y="-1220.288" width="1200" height="4459"/>
			</defs>
			<clipPath id="SVGID_234_">
				<use xlink:href="#SVGID_489_"  overflow="visible"/>
			</clipPath>
		</g>
	</g>
	<g>
		<defs>
			<path id="SVGID_491_" d="M106.483,368.163c1.629,1.639,1.629,4.296,0,5.936c-1.629,1.639-4.271,1.639-5.899,0
				c-1.629-1.64-1.629-4.297,0-5.936C102.213,366.523,104.854,366.523,106.483,368.163"/>
		</defs>
		<clipPath id="SVGID_236_">
			<use xlink:href="#SVGID_491_"  overflow="visible"/>
		</clipPath>
		<g clip-path="url(#SVGID_236_)">
			<defs>
				<rect id="SVGID_493_" x="-847.151" y="-1220.288" width="1200" height="4459"/>
			</defs>
			<clipPath id="SVGID_238_">
				<use xlink:href="#SVGID_493_"  overflow="visible"/>
			</clipPath>
		</g>
	</g>
	<g>
		<defs>
			<polygon id="SVGID_495_" points="81.742,371.131 75.843,377.067 69.943,371.131 75.843,365.195 			"/>
		</defs>
		<clipPath id="SVGID_240_">
			<use xlink:href="#SVGID_495_"  overflow="visible"/>
		</clipPath>
		<g clip-path="url(#SVGID_240_)">
			<defs>
				<rect id="SVGID_497_" x="-847.151" y="-1220.288" width="1200" height="4459"/>
			</defs>
			<clipPath id="SVGID_242_">
				<use xlink:href="#SVGID_497_"  overflow="visible"/>
			</clipPath>
		</g>
	</g>
	<g>
		<defs>
			<rect id="SVGID_499_" x="100.583" y="289.821" width="5.901" height="5.938"/>
		</defs>
		<clipPath id="SVGID_244_">
			<use xlink:href="#SVGID_499_"  overflow="visible"/>
		</clipPath>
		<g clip-path="url(#SVGID_244_)">
			<defs>
				<rect id="SVGID_501_" x="-847.151" y="-1220.288" width="1200" height="4459"/>
			</defs>
			<clipPath id="SVGID_246_">
				<use xlink:href="#SVGID_501_"  overflow="visible"/>
			</clipPath>
		</g>
	</g>
	<g>
		<defs>
			<path id="SVGID_503_" d="M78.793,289.82c1.629,1.639,1.629,4.297,0,5.936c-1.629,1.639-4.271,1.639-5.899,0
				c-1.629-1.639-1.629-4.297,0-5.936S77.164,288.181,78.793,289.82"/>
		</defs>
		<clipPath id="SVGID_248_">
			<use xlink:href="#SVGID_503_"  overflow="visible"/>
		</clipPath>
		<g clip-path="url(#SVGID_248_)">
			<defs>
				<rect id="SVGID_505_" x="-847.151" y="-1220.288" width="1200" height="4459"/>
			</defs>
			<clipPath id="SVGID_250_">
				<use xlink:href="#SVGID_505_"  overflow="visible"/>
			</clipPath>
		</g>
	</g>
	<g>
		<defs>
			<path id="SVGID_507_" d="M26.698,289.82c1.629,1.639,1.629,4.297,0,5.936c-1.63,1.639-4.271,1.639-5.9,0
				c-1.629-1.639-1.629-4.297,0-5.936C22.428,288.181,25.068,288.181,26.698,289.82"/>
		</defs>
		<clipPath id="SVGID_252_">
			<use xlink:href="#SVGID_507_"  overflow="visible"/>
		</clipPath>
		<g clip-path="url(#SVGID_252_)">
			<defs>
				<rect id="SVGID_509_" x="-847.151" y="-1220.288" width="1200" height="4459"/>
			</defs>
			<clipPath id="SVGID_254_">
				<use xlink:href="#SVGID_509_"  overflow="visible"/>
			</clipPath>
		</g>
	</g>
	<g>
		<defs>
			<polygon id="SVGID_511_" points="55.315,292.788 49.416,298.724 43.517,292.788 49.416,286.852 			"/>
		</defs>
		<clipPath id="SVGID_256_">
			<use xlink:href="#SVGID_511_"  overflow="visible"/>
		</clipPath>
		<g clip-path="url(#SVGID_256_)">
			<defs>
				<rect id="SVGID_513_" x="-847.151" y="-1220.288" width="1200" height="4459"/>
			</defs>
			<clipPath id="SVGID_258_">
				<use xlink:href="#SVGID_513_"  overflow="visible"/>
			</clipPath>
		</g>
	</g>
	<g>
		<defs>
			<polygon id="SVGID_515_" points="137.346,292.788 131.446,298.724 125.547,292.788 131.446,286.852 			"/>
		</defs>
		<clipPath id="SVGID_260_">
			<use xlink:href="#SVGID_515_"  overflow="visible"/>
		</clipPath>
		<g clip-path="url(#SVGID_260_)">
			<defs>
				<rect id="SVGID_517_" x="-847.151" y="-1220.288" width="1200" height="4459"/>
			</defs>
			<clipPath id="SVGID_262_">
				<use xlink:href="#SVGID_517_"  overflow="visible"/>
			</clipPath>
		</g>
	</g>
</g>
<g>
	<g>
		<defs>
			<path id="SVGID_531_" d="M87.875-1410.9v-7.643h14.967v7.567c0,12.536-10.052,22.698-22.451,22.698
				c-12.399,0-22.451-10.162-22.451-22.698v-7.567h14.967v7.633c0.037,4.148,3.373,7.5,7.484,7.5
				C84.5-1403.41,87.834-1406.757,87.875-1410.9z"/>
		</defs>
		<clipPath id="SVGID_264_">
			<use xlink:href="#SVGID_531_"  overflow="visible"/>
		</clipPath>
		<g clip-path="url(#SVGID_264_)">
			<defs>
				<rect id="SVGID_533_" x="0.843" y="-1467.92" width="1200" height="4459"/>
			</defs>
			<clipPath id="SVGID_266_">
				<use xlink:href="#SVGID_533_"  overflow="visible"/>
			</clipPath>
		</g>
	</g>
</g>
</svg>
