<?xml version="1.0" encoding="utf-8"?>
<!-- Generator: Adobe Illustrator 16.0.0, SVG Export Plug-In . SVG Version: 6.00 Build 0)  -->
<!DOCTYPE svg PUBLIC "-//W3C//DTD SVG 1.1//EN" "http://www.w3.org/Graphics/SVG/1.1/DTD/svg11.dtd">
<svg version="1.1" id="Layer_1" xmlns="http://www.w3.org/2000/svg" xmlns:xlink="http://www.w3.org/1999/xlink" x="0px" y="0px"
	 width="119.958px" height="124.733px" viewBox="0 0 119.958 124.733" enable-background="new 0 0 119.958 124.733"
	 xml:space="preserve">
<g>
	<defs>
		<rect id="SVGID_1_" x="92.902" y="1854.623" width="1361" height="1451"/>
	</defs>
	<clipPath id="SVGID_2_">
		<use xlink:href="#SVGID_1_"  overflow="visible"/>
	</clipPath>
	<g clip-path="url(#SVGID_2_)">
		<defs>
			<rect id="SVGID_3_" x="174.902" y="-86.377" width="1200" height="4459"/>
		</defs>
		<clipPath id="SVGID_4_">
			<use xlink:href="#SVGID_3_"  overflow="visible"/>
		</clipPath>
	</g>
</g>
<g>
	<defs>
		<rect id="SVGID_13_" x="92.902" y="3273.623" width="1361" height="1099"/>
	</defs>
	<clipPath id="SVGID_6_">
		<use xlink:href="#SVGID_13_"  overflow="visible"/>
	</clipPath>
	<g clip-path="url(#SVGID_6_)">
		<defs>
			<rect id="SVGID_15_" x="174.902" y="-86.377" width="1200" height="4459"/>
		</defs>
		<clipPath id="SVGID_8_">
			<use xlink:href="#SVGID_15_"  overflow="visible"/>
		</clipPath>
	</g>
</g>
<g>
	<g>
		<defs>
			<path id="SVGID_313_" d="M-39.598,3853.54c3.02,0,5.47-2.451,5.5-5.486v-5.598h11v5.542c0,9.182-7.387,16.625-16.5,16.625
				s-16.5-7.443-16.5-16.625v-5.542h11v5.591C-45.071,3851.085-42.62,3853.54-39.598,3853.54z"/>
		</defs>
		<clipPath id="SVGID_10_">
			<use xlink:href="#SVGID_313_"  overflow="visible"/>
		</clipPath>
		<g clip-path="url(#SVGID_10_)">
			<defs>
				<rect id="SVGID_315_" x="-200.098" y="-27.377" width="1200" height="4459"/>
			</defs>
			<clipPath id="SVGID_12_">
				<use xlink:href="#SVGID_315_"  overflow="visible"/>
			</clipPath>
		</g>
	</g>
</g>
<g>
	<g>
		<path fill="#373161" d="M15.318,69.104c-0.432,0.84-1.134,1.542-2.106,2.105c-0.972,0.563-2.106,0.846-3.402,0.846
			c-1.416,0-2.646-0.222-3.69-0.666c-1.044-0.443-1.914-1.08-2.61-1.907c-0.696-0.828-1.218-1.824-1.566-2.988
			c-0.348-1.164-0.522-2.454-0.522-3.87c0-3.048,0.744-5.382,2.232-7.002c1.488-1.62,3.516-2.43,6.084-2.43
			c1.176,0,2.226,0.102,3.15,0.306c0.924,0.204,1.71,0.475,2.358,0.81c-0.072,0.792-0.204,1.681-0.396,2.664
			c-0.192,0.984-0.432,1.801-0.72,2.448h-0.972l-1.512-4.284c-0.168-0.119-0.36-0.21-0.576-0.27s-0.576-0.09-1.08-0.09
			c-1.632,0-2.892,0.594-3.78,1.781c-0.888,1.188-1.332,3.199-1.332,6.03c0,0.912,0.126,1.8,0.378,2.664s0.636,1.638,1.152,2.322
			c0.516,0.684,1.164,1.23,1.944,1.638c0.78,0.408,1.686,0.612,2.718,0.612c0.84,0,1.572-0.12,2.196-0.36
			c0.624-0.239,1.152-0.527,1.584-0.864L15.318,69.104z"/>
		<path fill="#373161" d="M37.457,66.907c0,0.528,0.012,0.984,0.036,1.368s0.048,0.792,0.072,1.224l2.484,0.36v0.756
			c-0.6,0.312-1.266,0.588-1.998,0.828c-0.732,0.239-1.435,0.419-2.106,0.54h-0.9c-0.24-0.552-0.384-1.158-0.432-1.818
			c-0.048-0.66-0.084-1.386-0.108-2.178h-0.18c-0.096,0.48-0.282,0.966-0.558,1.458s-0.636,0.93-1.08,1.313
			c-0.445,0.385-0.967,0.696-1.566,0.937c-0.6,0.239-1.284,0.359-2.052,0.359c-1.464,0-2.658-0.443-3.582-1.332
			c-0.924-0.888-1.386-2.052-1.386-3.491c0-1.104,0.222-2.01,0.666-2.719c0.444-0.707,1.098-1.266,1.962-1.674
			c0.864-0.407,1.932-0.702,3.204-0.882s2.748-0.317,4.428-0.414c0.096-1.031,0.126-1.962,0.09-2.79s-0.168-1.535-0.396-2.124
			c-0.229-0.588-0.564-1.044-1.008-1.368c-0.444-0.323-1.026-0.485-1.746-0.485c-0.336,0-0.714,0.018-1.134,0.054
			c-0.42,0.036-0.834,0.139-1.242,0.306l-1.692,4.32h-0.936c-0.24-0.72-0.45-1.464-0.63-2.232c-0.18-0.768-0.294-1.523-0.342-2.268
			c0.912-0.552,1.926-0.983,3.042-1.296c1.116-0.312,2.358-0.468,3.726-0.468c1.224,0,2.202,0.174,2.934,0.521
			c0.732,0.349,1.29,0.799,1.674,1.351c0.384,0.552,0.636,1.164,0.756,1.836s0.18,1.344,0.18,2.016c0,1.44-0.03,2.826-0.09,4.158
			C37.487,64.405,37.457,65.683,37.457,66.907z M30.509,69.823c0.6,0,1.128-0.12,1.584-0.36c0.456-0.239,0.84-0.527,1.152-0.864
			c0.312-0.335,0.564-0.678,0.756-1.025c0.191-0.348,0.324-0.642,0.396-0.882v-3.78c-1.393,0-2.533,0.072-3.42,0.216
			c-0.888,0.145-1.584,0.372-2.088,0.685c-0.504,0.312-0.852,0.701-1.044,1.17c-0.192,0.468-0.288,1.002-0.288,1.602
			c0,1.032,0.264,1.83,0.792,2.394C28.877,69.541,29.597,69.823,30.509,69.823z"/>
		<path fill="#373161" d="M67.625,71.623h-7.74v-0.9c0.648-0.335,1.355-0.623,2.124-0.863v-8.532c0-1.823-0.264-3.264-0.792-4.32
			c-0.528-1.056-1.488-1.584-2.88-1.584c-0.6,0-1.158,0.108-1.674,0.324c-0.517,0.216-0.972,0.51-1.368,0.882
			s-0.738,0.792-1.026,1.26c-0.288,0.469-0.517,0.954-0.684,1.458v10.513c0.744,0.144,1.464,0.432,2.16,0.863v0.9h-7.776v-0.9
			c0.6-0.312,1.392-0.6,2.376-0.863V55.711l-2.376-0.288v-0.936c0.624-0.264,1.344-0.504,2.16-0.721
			c0.816-0.216,1.668-0.407,2.556-0.575h0.9v4.031h0.036c0.504-1.104,1.229-2.052,2.178-2.844s2.094-1.188,3.438-1.188
			c0.96,0,1.818,0.114,2.574,0.342c0.756,0.229,1.386,0.63,1.89,1.206s0.888,1.35,1.152,2.322c0.264,0.972,0.396,2.202,0.396,3.689
			v9.108c0.959,0.168,1.751,0.456,2.376,0.863V71.623z"/>
		<path fill="#373161" d="M75.689,62.623c0-1.512,0.198-2.85,0.594-4.014s0.966-2.148,1.71-2.952
			c0.744-0.804,1.638-1.416,2.682-1.836s2.202-0.63,3.474-0.63c1.488,0,2.772,0.228,3.852,0.684s1.962,1.098,2.646,1.926
			s1.188,1.818,1.512,2.971c0.324,1.151,0.486,2.436,0.486,3.852c0,3.024-0.769,5.353-2.304,6.984
			c-1.536,1.632-3.6,2.447-6.192,2.447c-1.44,0-2.688-0.222-3.744-0.666c-1.056-0.443-1.932-1.08-2.628-1.907
			c-0.696-0.828-1.218-1.824-1.566-2.988C75.863,65.329,75.689,64.039,75.689,62.623z M79.145,62.623c0,1.08,0.102,2.101,0.306,3.06
			c0.204,0.961,0.528,1.795,0.972,2.502c0.444,0.709,1.026,1.267,1.746,1.675c0.72,0.408,1.584,0.611,2.592,0.611
			c1.296,0,2.358-0.636,3.186-1.907c0.828-1.272,1.242-3.252,1.242-5.94c0-1.104-0.103-2.13-0.306-3.078
			c-0.204-0.947-0.522-1.775-0.954-2.483c-0.432-0.708-0.984-1.266-1.656-1.675c-0.672-0.407-1.476-0.611-2.412-0.611
			c-1.417,0-2.556,0.636-3.42,1.907C79.577,57.955,79.145,59.936,79.145,62.623z"/>
	</g>
	<g>
		<path fill="#373161" d="M102.966,64.495c0-1.512,0.036-2.994,0.108-4.446c0.072-1.451,0.108-2.897,0.108-4.338l-2.376-0.288
			v-0.936c0.768-0.288,1.554-0.54,2.358-0.756c0.804-0.217,1.589-0.396,2.358-0.54h0.9c0,1.8-0.036,3.588-0.108,5.363
			c-0.072,1.776-0.108,3.541-0.108,5.292c0,0.937,0.054,1.776,0.162,2.521c0.108,0.744,0.3,1.368,0.576,1.872
			c0.275,0.504,0.654,0.895,1.134,1.17c0.48,0.276,1.092,0.414,1.836,0.414c1.08,0,1.985-0.39,2.718-1.17
			c0.732-0.78,1.302-1.794,1.71-3.042v-9.9l-2.34-0.288v-0.936c0.744-0.288,1.518-0.54,2.322-0.756
			c0.804-0.217,1.59-0.396,2.358-0.54h0.9v16.38l2.376,0.288v0.756c-0.697,0.312-1.398,0.588-2.106,0.828
			c-0.708,0.239-1.446,0.419-2.214,0.54h-0.9l-0.252-4.284h-0.144c-0.12,0.504-0.33,1.014-0.63,1.53
			c-0.3,0.516-0.69,0.984-1.17,1.403c-0.48,0.421-1.026,0.763-1.638,1.026s-1.278,0.396-1.998,0.396
			c-0.96,0-1.806-0.114-2.538-0.342c-0.732-0.228-1.35-0.63-1.854-1.206c-0.504-0.576-0.888-1.35-1.152-2.322
			C103.098,67.213,102.966,65.983,102.966,64.495z"/>
	</g>
	<g>
		<defs>
			<path id="SVGID_325_" d="M29.935,7.643V0h14.967v7.567c0,12.536-10.052,22.698-22.451,22.698C10.052,30.265,0,20.103,0,7.567V0
				h14.967v7.633c0.037,4.148,3.373,7.5,7.484,7.5C26.559,15.133,29.893,11.786,29.935,7.643z"/>
		</defs>
		<clipPath id="SVGID_14_">
			<use xlink:href="#SVGID_325_"  overflow="visible"/>
		</clipPath>
		<g clip-path="url(#SVGID_14_)">
			<defs>
				<rect id="SVGID_327_" x="-57.098" y="-49.377" width="1200" height="4459"/>
			</defs>
			<clipPath id="SVGID_16_">
				<use xlink:href="#SVGID_327_"  overflow="visible"/>
			</clipPath>
			<rect x="-5" y="-5" clip-path="url(#SVGID_16_)" fill="#FFFFFF" width="54.902" height="40.265"/>
		</g>
	</g>
	<g opacity="0.6">
		<path fill="#373161" d="M3.531,93.887v6.736H2.662v-6.736H3.531z"/>
		<path fill="#373161" d="M7.662,100.623v-6.736h0.949l2.159,3.408c0.5,0.789,0.89,1.499,1.209,2.188l0.02-0.01
			c-0.08-0.899-0.1-1.719-0.1-2.769v-2.818h0.82v6.736h-0.879L9.7,97.205c-0.47-0.75-0.919-1.52-1.259-2.249l-0.03,0.01
			c0.05,0.85,0.07,1.659,0.07,2.778v2.879H7.662z"/>
		<path fill="#373161" d="M16.861,100.623v-6.736h0.949l2.159,3.408c0.5,0.789,0.89,1.499,1.209,2.188l0.02-0.01
			c-0.08-0.899-0.1-1.719-0.1-2.769v-2.818h0.82v6.736h-0.879L18.9,97.205c-0.47-0.75-0.919-1.52-1.259-2.249l-0.03,0.01
			c0.05,0.85,0.07,1.659,0.07,2.778v2.879H16.861z"/>
		<path fill="#373161" d="M31.818,97.185c0,2.319-1.409,3.549-3.128,3.549c-1.779,0-3.028-1.38-3.028-3.419
			c0-2.139,1.329-3.538,3.128-3.538C30.629,93.776,31.818,95.186,31.818,97.185z M26.591,97.295c0,1.439,0.78,2.729,2.149,2.729
			c1.379,0,2.159-1.27,2.159-2.799c0-1.339-0.7-2.738-2.149-2.738C27.311,94.486,26.591,95.815,26.591,97.295z"/>
		<path fill="#373161" d="M36.8,100.623l-2.199-6.736h0.939l1.049,3.318c0.29,0.909,0.54,1.729,0.72,2.519h0.02
			c0.19-0.779,0.47-1.629,0.77-2.509l1.139-3.328h0.93l-2.409,6.736H36.8z"/>
		<path fill="#373161" d="M43.971,98.504l-0.7,2.119h-0.899l2.289-6.736h1.049l2.299,6.736h-0.93l-0.719-2.119H43.971z
			 M46.179,97.824l-0.66-1.938c-0.15-0.439-0.25-0.84-0.35-1.229h-0.02c-0.1,0.399-0.21,0.81-0.34,1.22l-0.66,1.948H46.179z"/>
		<path fill="#373161" d="M52.061,94.626h-2.049v-0.739h4.987v0.739H52.94v5.997h-0.879V94.626z"/>
		<path fill="#373161" d="M59.23,93.887v6.736h-0.869v-6.736H59.23z"/>
		<path fill="#373161" d="M69.118,97.185c0,2.319-1.409,3.549-3.128,3.549c-1.779,0-3.028-1.38-3.028-3.419
			c0-2.139,1.329-3.538,3.128-3.538C67.929,93.776,69.118,95.186,69.118,97.185z M63.891,97.295c0,1.439,0.78,2.729,2.149,2.729
			c1.379,0,2.159-1.27,2.159-2.799c0-1.339-0.7-2.738-2.149-2.738C64.61,94.486,63.891,95.815,63.891,97.295z"/>
		<path fill="#373161" d="M72.861,100.623v-6.736h0.949l2.159,3.408c0.5,0.789,0.89,1.499,1.209,2.188l0.02-0.01
			c-0.08-0.899-0.1-1.719-0.1-2.769v-2.818h0.82v6.736h-0.879L74.9,97.205c-0.47-0.75-0.919-1.52-1.259-2.249l-0.03,0.01
			c0.05,0.85,0.07,1.659,0.07,2.778v2.879H72.861z"/>
	</g>
	<g opacity="0.6">
		<path fill="#373161" d="M6.879,112.623c-0.189-0.189-0.37-0.38-0.629-0.659c-0.58,0.539-1.229,0.77-1.969,0.77
			c-1.31,0-2.069-0.88-2.069-1.89c0-0.919,0.549-1.549,1.319-1.969v-0.03c-0.35-0.439-0.56-0.929-0.56-1.409
			c0-0.819,0.59-1.659,1.709-1.659c0.84,0,1.489,0.561,1.489,1.43c0,0.71-0.41,1.27-1.479,1.799v0.03
			c0.57,0.659,1.209,1.399,1.639,1.879c0.31-0.47,0.52-1.119,0.649-1.969h0.8c-0.18,1.06-0.47,1.898-0.97,2.488
			c0.36,0.38,0.709,0.76,1.109,1.189H6.879z M5.82,111.464c-0.4-0.44-1.149-1.26-1.899-2.119c-0.36,0.23-0.87,0.66-0.87,1.369
			c0,0.77,0.57,1.359,1.379,1.359C5.01,112.073,5.5,111.813,5.82,111.464z M3.771,107.355c0,0.48,0.22,0.85,0.51,1.21
			c0.679-0.39,1.119-0.75,1.119-1.319c0-0.41-0.23-0.869-0.779-0.869C4.061,106.377,3.771,106.836,3.771,107.355z"/>
	</g>
	<g opacity="0.6">
		<path fill="#373161" d="M20.312,112.623l-2.199-6.736h0.939l1.049,3.318c0.29,0.909,0.54,1.729,0.72,2.519h0.02
			c0.19-0.779,0.47-1.629,0.77-2.509l1.139-3.328h0.93l-2.409,6.736H20.312z"/>
		<path fill="#373161" d="M30.51,109.465h-2.619v2.429h2.918v0.729h-3.788v-6.736h3.638v0.729h-2.769v2.129h2.619V109.465z"/>
		<path fill="#373161" d="M34.552,112.623v-6.736h0.949l2.159,3.408c0.5,0.789,0.89,1.499,1.209,2.188l0.02-0.01
			c-0.08-0.899-0.1-1.719-0.1-2.769v-2.818h0.82v6.736H38.73l-2.139-3.418c-0.47-0.75-0.919-1.52-1.259-2.249l-0.03,0.01
			c0.05,0.85,0.07,1.659,0.07,2.778v2.879H34.552z"/>
		<path fill="#373161" d="M45.021,106.626h-2.049v-0.739h4.987v0.739h-2.059v5.997h-0.879V106.626z"/>
		<path fill="#373161" d="M52.191,105.887v3.988c0,1.509,0.67,2.148,1.569,2.148c1,0,1.639-0.66,1.639-2.148v-3.988h0.879v3.928
			c0,2.069-1.089,2.919-2.548,2.919c-1.379,0-2.419-0.79-2.419-2.879v-3.968H52.191z"/>
		<path fill="#373161" d="M60.402,105.977c0.439-0.09,1.069-0.14,1.669-0.14c0.929,0,1.529,0.17,1.949,0.55
			c0.34,0.3,0.53,0.76,0.53,1.279c0,0.89-0.56,1.479-1.269,1.719v0.03c0.52,0.18,0.83,0.659,0.989,1.359
			c0.22,0.939,0.38,1.589,0.52,1.849H63.89c-0.11-0.189-0.26-0.77-0.45-1.609c-0.2-0.93-0.56-1.279-1.349-1.309h-0.82v2.918h-0.869
			V105.977z M61.271,109.045h0.89c0.93,0,1.519-0.51,1.519-1.279c0-0.869-0.629-1.249-1.549-1.259c-0.42,0-0.72,0.04-0.86,0.079
			V109.045z"/>
		<path fill="#373161" d="M71.89,109.465h-2.619v2.429h2.918v0.729h-3.788v-6.736h3.638v0.729h-2.769v2.129h2.619V109.465z"/>
	</g>
	<g opacity="0.6">
		<path fill="#373161" d="M2.662,117.977c0.379-0.08,0.979-0.14,1.589-0.14c0.87,0,1.429,0.149,1.849,0.489
			c0.35,0.26,0.56,0.66,0.56,1.189c0,0.649-0.43,1.22-1.139,1.479v0.02c0.64,0.16,1.389,0.69,1.389,1.689
			c0,0.58-0.23,1.02-0.57,1.35c-0.47,0.43-1.229,0.629-2.329,0.629c-0.6,0-1.06-0.04-1.349-0.079V117.977z M3.531,120.735h0.79
			c0.92,0,1.459-0.479,1.459-1.13c0-0.789-0.6-1.099-1.479-1.099c-0.399,0-0.629,0.029-0.77,0.06V120.735z M3.531,123.964
			c0.17,0.029,0.42,0.039,0.73,0.039c0.899,0,1.729-0.329,1.729-1.309c0-0.92-0.79-1.3-1.739-1.3h-0.72V123.964z"/>
		<path fill="#373161" d="M11.561,117.887v3.988c0,1.509,0.67,2.148,1.569,2.148c1,0,1.639-0.66,1.639-2.148v-3.988h0.879v3.928
			c0,2.069-1.089,2.919-2.548,2.919c-1.379,0-2.419-0.79-2.419-2.879v-3.968H11.561z"/>
		<path fill="#373161" d="M20.641,117.887v6.736h-0.869v-6.736H20.641z"/>
		<path fill="#373161" d="M24.771,117.887h0.869v6.007h2.878v0.729h-3.748V117.887z"/>
		<path fill="#373161" d="M32.111,117.977c0.529-0.08,1.159-0.14,1.849-0.14c1.25,0,2.139,0.29,2.729,0.84
			c0.6,0.549,0.95,1.329,0.95,2.418c0,1.1-0.34,1.999-0.97,2.619c-0.629,0.629-1.669,0.969-2.978,0.969
			c-0.62,0-1.14-0.029-1.579-0.079V117.977z M32.98,123.934c0.22,0.04,0.54,0.05,0.88,0.05c1.859,0,2.868-1.039,2.868-2.858
			c0.01-1.589-0.89-2.599-2.729-2.599c-0.45,0-0.79,0.04-1.02,0.09V123.934z"/>
		<path fill="#373161" d="M44.869,121.465H42.25v2.429h2.918v0.729h-3.788v-6.736h3.638v0.729H42.25v2.129h2.619V121.465z"/>
		<path fill="#373161" d="M48.911,117.977c0.439-0.09,1.069-0.14,1.669-0.14c0.929,0,1.529,0.17,1.949,0.55
			c0.34,0.3,0.53,0.76,0.53,1.279c0,0.89-0.56,1.479-1.269,1.719v0.03c0.52,0.18,0.83,0.659,0.989,1.359
			c0.22,0.939,0.38,1.589,0.52,1.849h-0.899c-0.11-0.189-0.26-0.77-0.45-1.609c-0.2-0.93-0.56-1.279-1.349-1.309h-0.82v2.918h-0.869
			V117.977z M49.78,121.045h0.89c0.93,0,1.519-0.51,1.519-1.279c0-0.869-0.629-1.249-1.549-1.259c-0.42,0-0.72,0.04-0.86,0.079
			V121.045z"/>
	</g>
</g>
</svg>
