<?xml version="1.0" encoding="utf-8"?>
<!-- Generator: Adobe Illustrator 16.0.0, SVG Export Plug-In . SVG Version: 6.00 Build 0)  -->
<!DOCTYPE svg PUBLIC "-//W3C//DTD SVG 1.1//EN" "http://www.w3.org/Graphics/SVG/1.1/DTD/svg11.dtd">
<svg version="1.1" id="Layer_1" xmlns="http://www.w3.org/2000/svg" xmlns:xlink="http://www.w3.org/1999/xlink" x="0px" y="0px"
	 width="541px" height="392px" viewBox="0 0 541 392" enable-background="new 0 0 541 392" xml:space="preserve">
<g>
	<g>
		<defs>
			<path id="SVGID_37_" d="M40.826,38.794c0-17.67,14.329-31.994,32.006-31.994h397.334c17.677,0,32.007,14.332,32.007,31.994
				v249.412c0,17.67-14.329,31.994-32.007,31.994H72.833c-17.676,0-32.006-14.332-32.006-31.994V38.794z"/>
		</defs>
		<clipPath id="SVGID_2_">
			<use xlink:href="#SVGID_37_"  overflow="visible"/>
		</clipPath>
		<g clip-path="url(#SVGID_2_)">
			<defs>
				<rect id="SVGID_39_" x="-329" y="-488" width="1200" height="4459"/>
			</defs>
			<clipPath id="SVGID_4_">
				<use xlink:href="#SVGID_39_"  overflow="visible"/>
			</clipPath>
			
				<path clip-path="url(#SVGID_4_)" fill="none" stroke="#11C26F" stroke-width="4" stroke-miterlimit="10" stroke-dasharray="8,10" d="
				M40.826,38.794c0-17.67,14.329-31.994,32.006-31.994h397.334c17.677,0,32.007,14.333,32.007,31.994v249.412
				c0,17.67-14.329,31.994-32.007,31.994H72.833c-17.676,0-32.006-14.332-32.006-31.994V38.794z"/>
		</g>
	</g>
	<g>
		<defs>
			<path id="SVGID_41_" d="M50,41.997C50,28.191,61.2,17,75.007,17h392.986C481.804,17,493,28.195,493,41.997v243.006
				C493,298.809,481.8,310,467.993,310H75.007C61.196,310,50,298.805,50,285.003V41.997z"/>
		</defs>
		<clipPath id="SVGID_6_">
			<use xlink:href="#SVGID_41_"  overflow="visible"/>
		</clipPath>
		<g clip-path="url(#SVGID_6_)">
			<defs>
				<rect id="SVGID_43_" x="-329" y="-488" width="1200" height="4459"/>
			</defs>
			<clipPath id="SVGID_8_">
				<use xlink:href="#SVGID_43_"  overflow="visible"/>
			</clipPath>
			<rect x="45" y="12" clip-path="url(#SVGID_8_)" fill="#E6E6E6" width="453" height="303"/>
		</g>
	</g>
	<g>
		<defs>
			<path id="SVGID_45_" d="M76.5,28.998v271.004c0,1.384,1.121,2.498,2.506,2.498h372.988c1.389,0,2.506-1.115,2.506-2.498V28.998
				c0-1.384-1.121-2.498-2.506-2.498H79.006C77.617,26.5,76.5,27.615,76.5,28.998z M77.5,28.998c0-0.83,0.669-1.498,1.506-1.498
				h372.988c0.834,0,1.506,0.668,1.506,1.498v271.004c0,0.83-0.669,1.498-1.506,1.498H79.006c-0.834,0-1.506-0.668-1.506-1.498
				V28.998z M56.5,6.5h418v316h-418V6.5z"/>
		</defs>
		<clipPath id="SVGID_10_">
			<use xlink:href="#SVGID_45_"  overflow="visible"/>
		</clipPath>
		<g clip-path="url(#SVGID_10_)">
			<defs>
				<path id="SVGID_47_" d="M77,28.998C77,27.894,77.89,27,79.006,27h372.988c1.107,0,2.006,0.889,2.006,1.998v271.004
					c0,1.104-0.89,1.998-2.006,1.998H79.006c-1.108,0-2.006-0.889-2.006-1.998V28.998z"/>
			</defs>
			<clipPath id="SVGID_12_">
				<use xlink:href="#SVGID_47_"  overflow="visible"/>
			</clipPath>
			<g clip-path="url(#SVGID_12_)">
				<defs>
					<rect id="SVGID_49_" x="-329" y="-488" width="1200" height="4459"/>
				</defs>
				<clipPath id="SVGID_14_">
					<use xlink:href="#SVGID_49_"  overflow="visible"/>
				</clipPath>
				<path clip-path="url(#SVGID_14_)" fill="#FFFFFF" d="M77,28.998C77,27.894,77.89,27,79.006,27h372.988
					c1.107,0,2.006,0.889,2.006,1.998v271.004c0,1.104-0.89,1.998-2.006,1.998H79.006c-1.108,0-2.006-0.889-2.006-1.998V28.998z"/>
			</g>
		</g>
	</g>
	<g>
		<defs>
			<path id="SVGID_51_" d="M77,28.998C77,27.894,77.89,27,79.006,27h372.988c1.107,0,2.006,0.889,2.006,1.998v271.004
				c0,1.104-0.89,1.998-2.006,1.998H79.006c-1.108,0-2.006-0.889-2.006-1.998V28.998z"/>
		</defs>
		<clipPath id="SVGID_16_">
			<use xlink:href="#SVGID_51_"  overflow="visible"/>
		</clipPath>
		<g clip-path="url(#SVGID_16_)">
			<defs>
				<rect id="SVGID_53_" x="-329" y="-488" width="1200" height="4459"/>
			</defs>
			<clipPath id="SVGID_18_">
				<use xlink:href="#SVGID_53_"  overflow="visible"/>
			</clipPath>
			<path clip-path="url(#SVGID_18_)" fill="none" stroke="#D8D8D8" stroke-width="2" stroke-miterlimit="10" d="M77,28.998
				C77,27.895,77.89,27,79.006,27h372.988c1.107,0,2.006,0.89,2.006,1.998v271.004c0,1.103-0.89,1.998-2.006,1.998H79.006
				c-1.108,0-2.006-0.89-2.006-1.998V28.998z"/>
		</g>
	</g>
	<g>
		<defs>
			<circle id="SVGID_55_" cx="63.844" cy="163.5" r="2.898"/>
		</defs>
		<clipPath id="SVGID_20_">
			<use xlink:href="#SVGID_55_"  overflow="visible"/>
		</clipPath>
		<g clip-path="url(#SVGID_20_)">
			<defs>
				<rect id="SVGID_57_" x="-329" y="-488" width="1200" height="4459"/>
			</defs>
			<clipPath id="SVGID_22_">
				<use xlink:href="#SVGID_57_"  overflow="visible"/>
			</clipPath>
			<rect x="55.946" y="155.602" clip-path="url(#SVGID_22_)" fill="#FFFFFF" width="15.795" height="15.796"/>
		</g>
	</g>
	<g>
		<defs>
			<circle id="SVGID_59_" cx="473.361" cy="163.5" r="9.337"/>
		</defs>
		<clipPath id="SVGID_24_">
			<use xlink:href="#SVGID_59_"  overflow="visible"/>
		</clipPath>
		<g clip-path="url(#SVGID_24_)">
			<defs>
				<rect id="SVGID_61_" x="-329" y="-488" width="1200" height="4459"/>
			</defs>
			<clipPath id="SVGID_26_">
				<use xlink:href="#SVGID_61_"  overflow="visible"/>
			</clipPath>
			<rect x="459.024" y="149.163" clip-path="url(#SVGID_26_)" fill="#E6E6E6" width="28.673" height="28.674"/>
		</g>
	</g>
	<circle fill="none" stroke="#979797" stroke-miterlimit="10" cx="473.361" cy="163.5" r="9.337"/>
	<g>
		<defs>
			<path id="SVGID_63_" d="M78,260h375v40.007c0,0.548-0.445,0.993-0.994,0.993H78.994c-0.549,0-0.994-0.446-0.994-0.993V260z"/>
		</defs>
		<clipPath id="SVGID_28_">
			<use xlink:href="#SVGID_63_"  overflow="visible"/>
		</clipPath>
		<g clip-path="url(#SVGID_28_)">
			<defs>
				<rect id="SVGID_65_" x="-329" y="-488" width="1200" height="4459"/>
			</defs>
			<clipPath id="SVGID_30_">
				<use xlink:href="#SVGID_65_"  overflow="visible"/>
			</clipPath>
			<rect x="73" y="255" clip-path="url(#SVGID_30_)" fill="#29234E" width="385" height="51"/>
		</g>
	</g>
	<g>
		<defs>
			<path id="SVGID_67_" d="M453,49H78V28.999C78,28.447,78.445,28,78.994,28h373.012c0.549,0,0.994,0.439,0.994,0.999V49z"/>
		</defs>
		<clipPath id="SVGID_32_">
			<use xlink:href="#SVGID_67_"  overflow="visible"/>
		</clipPath>
		<g clip-path="url(#SVGID_32_)">
			<defs>
				<rect id="SVGID_69_" x="-329" y="-488" width="1200" height="4459"/>
			</defs>
			<clipPath id="SVGID_34_">
				<use xlink:href="#SVGID_69_"  overflow="visible"/>
			</clipPath>
			<rect x="73" y="23" clip-path="url(#SVGID_34_)" fill="#29234E" width="385" height="31"/>
		</g>
	</g>
	<rect x="94" y="74" fill="none" stroke="#E8E5FF" stroke-width="2" stroke-miterlimit="10" width="284.311" height="163"/>
	<g>
		<defs>
			<path id="SVGID_71_" d="M99.384,36.885V35h3.692v1.866c0,3.093-2.479,5.599-5.538,5.599c-3.059,0-5.538-2.506-5.538-5.599V35
				h3.692v1.883c0.009,1.023,0.832,1.85,1.846,1.85C98.551,38.733,99.374,37.907,99.384,36.885z"/>
		</defs>
		<clipPath id="SVGID_36_">
			<use xlink:href="#SVGID_71_"  overflow="visible"/>
		</clipPath>
		<g clip-path="url(#SVGID_36_)">
			<defs>
				<rect id="SVGID_73_" x="-329" y="-488" width="1200" height="4459"/>
			</defs>
			<clipPath id="SVGID_38_">
				<use xlink:href="#SVGID_73_"  overflow="visible"/>
			</clipPath>
			<rect x="87" y="30" clip-path="url(#SVGID_38_)" fill="#E8E5FF" width="21.076" height="17.465"/>
		</g>
	</g>
	<line fill="none" stroke="#E8E5FF" stroke-width="2" stroke-miterlimit="10" x1="95" y1="183" x2="377.5" y2="183"/>
	<line fill="none" stroke="#E8E5FF" stroke-width="2" stroke-miterlimit="10" x1="322" y1="183.005" x2="322" y2="73"/>
	<line fill="none" stroke="#E8E5FF" stroke-width="2" stroke-miterlimit="10" x1="209.08" y1="126" x2="152.5" y2="126"/>
	<line fill="none" stroke="#E8E5FF" stroke-width="2" stroke-miterlimit="10" x1="321.08" y1="126" x2="264.5" y2="126"/>
	<line fill="none" stroke="#E8E5FF" stroke-width="2" stroke-miterlimit="10" x1="284.034" y1="132" x2="269.5" y2="132"/>
	<line fill="none" stroke="#E8E5FF" stroke-width="2" stroke-miterlimit="10" x1="284.034" y1="80" x2="269.5" y2="80"/>
	<line fill="none" stroke="#E8E5FF" stroke-width="2" stroke-miterlimit="10" x1="341.034" y1="80" x2="326.5" y2="80"/>
	<line fill="none" stroke="#FFFFFF" stroke-width="2" stroke-miterlimit="10" x1="424.034" y1="39" x2="409.5" y2="39"/>
	<line fill="none" stroke="#FFFFFF" stroke-width="2" stroke-miterlimit="10" x1="109.034" y1="281" x2="94.5" y2="281"/>
	<line fill="none" stroke="#E8E5FF" stroke-width="2" stroke-miterlimit="10" x1="228.034" y1="80" x2="213.5" y2="80"/>
	<line fill="none" stroke="#E8E5FF" stroke-width="2" stroke-miterlimit="10" x1="171.034" y1="80" x2="156.5" y2="80"/>
	<line fill="none" stroke="#E8E5FF" stroke-width="2" stroke-miterlimit="10" x1="171.034" y1="132" x2="156.5" y2="132"/>
	<line fill="none" stroke="#E8E5FF" stroke-width="2" stroke-miterlimit="10" x1="113.034" y1="80" x2="98.5" y2="80"/>
	<line fill="none" stroke="#E8E5FF" stroke-width="2" stroke-miterlimit="10" x1="113.034" y1="188" x2="98.5" y2="188"/>
	<line fill="none" stroke="#E8E5FF" stroke-width="2" stroke-miterlimit="10" x1="256.034" y1="188" x2="241.5" y2="188"/>
	<line fill="none" stroke="#E8E5FF" stroke-width="6" stroke-miterlimit="10" x1="305.014" y1="146" x2="269.5" y2="146"/>
	<line fill="none" stroke="#E8E5FF" stroke-width="10" stroke-miterlimit="10" x1="434.011" y1="90" x2="387.5" y2="90"/>
	
		<line fill="none" stroke="#009FFF" stroke-width="10" stroke-linecap="round" stroke-miterlimit="10" x1="291" y1="282" x2="216.5" y2="282"/>
	
		<line fill="none" stroke="#FFFFFF" stroke-width="10" stroke-linecap="round" stroke-miterlimit="10" x1="429" y1="282" x2="404.979" y2="282"/>
	<line fill="none" stroke="#E8E5FF" stroke-width="10" stroke-miterlimit="10" x1="434.011" y1="122" x2="387.5" y2="122"/>
	<line fill="none" stroke="#E8E5FF" stroke-width="10" stroke-miterlimit="10" x1="434.011" y1="106" x2="387.5" y2="106"/>
	<line fill="none" stroke="#E8E5FF" stroke-width="10" stroke-miterlimit="10" x1="434.011" y1="138" x2="387.5" y2="138"/>
	<line fill="none" stroke="#FFB500" stroke-width="4" stroke-miterlimit="10" x1="403.129" y1="77" x2="387.5" y2="77"/>
	<line fill="none" stroke="#E8E5FF" stroke-width="6" stroke-miterlimit="10" x1="255" y1="91" x2="214.5" y2="91"/>
	<line fill="none" stroke="#E8E5FF" stroke-width="6" stroke-miterlimit="10" x1="136.014" y1="92" x2="100.5" y2="92"/>
	
		<line opacity="0.4" fill="none" stroke="#29244E" stroke-width="6" stroke-miterlimit="10" x1="136.014" y1="61" x2="100.5" y2="61"/>
	<line fill="none" stroke="#E8E5FF" stroke-width="6" stroke-miterlimit="10" x1="124" y1="126" x2="100.5" y2="126"/>
	<line fill="none" stroke="#E8E5FF" stroke-width="6" stroke-miterlimit="10" x1="363.014" y1="93" x2="327.5" y2="93"/>
	<line fill="none" stroke="#E8E5FF" stroke-width="6" stroke-miterlimit="10" x1="278.014" y1="202" x2="242.5" y2="202"/>
	<line fill="none" stroke="#E8E5FF" stroke-width="6" stroke-miterlimit="10" x1="135.014" y1="202" x2="99.5" y2="202"/>
	<line fill="none" stroke="#E8E5FF" stroke-width="6" stroke-miterlimit="10" x1="296" y1="164" x2="269.5" y2="164"/>
	<line fill="none" stroke="#E8E5FF" stroke-width="6" stroke-miterlimit="10" x1="247" y1="109" x2="214.5" y2="109"/>
	<line fill="none" stroke="#E8E5FF" stroke-width="6" stroke-miterlimit="10" x1="236" y1="117" x2="214.5" y2="117"/>
	<line fill="none" stroke="#E8E5FF" stroke-width="6" stroke-miterlimit="10" x1="142" y1="110" x2="100.5" y2="110"/>
	<line fill="none" stroke="#E8E5FF" stroke-width="6" stroke-miterlimit="10" x1="135" y1="144" x2="100.5" y2="144"/>
	<line fill="none" stroke="#E8E5FF" stroke-width="6" stroke-miterlimit="10" x1="269" y1="220" x2="242.5" y2="220"/>
	<line fill="none" stroke="#E8E5FF" stroke-width="6" stroke-miterlimit="10" x1="184" y1="145" x2="157.5" y2="145"/>
	<line fill="none" stroke="#E8E5FF" stroke-width="2" stroke-miterlimit="10" x1="209" y1="183.005" x2="209" y2="73"/>
	<line fill="none" stroke="#E8E5FF" stroke-width="2" stroke-miterlimit="10" x1="265" y1="183.005" x2="265" y2="73"/>
	<line fill="none" stroke="#E8E5FF" stroke-width="2" stroke-miterlimit="10" x1="236" y1="236.005" x2="236" y2="183.914"/>
	<line fill="none" stroke="#E8E5FF" stroke-width="2" stroke-miterlimit="10" x1="152" y1="183.005" x2="152" y2="73"/>
	<g>
		<defs>
			<circle id="SVGID_75_" cx="316" cy="132" r="2"/>
		</defs>
		<clipPath id="SVGID_40_">
			<use xlink:href="#SVGID_75_"  overflow="visible"/>
		</clipPath>
		<g clip-path="url(#SVGID_40_)">
			<defs>
				<rect id="SVGID_77_" x="-329" y="-488" width="1200" height="4459"/>
			</defs>
			<clipPath id="SVGID_42_">
				<use xlink:href="#SVGID_77_"  overflow="visible"/>
			</clipPath>
			<rect x="309" y="125" clip-path="url(#SVGID_42_)" fill="#E8E5FF" width="14" height="14"/>
		</g>
	</g>
	<g>
		<defs>
			<circle id="SVGID_79_" cx="316" cy="80" r="2"/>
		</defs>
		<clipPath id="SVGID_44_">
			<use xlink:href="#SVGID_79_"  overflow="visible"/>
		</clipPath>
		<g clip-path="url(#SVGID_44_)">
			<defs>
				<rect id="SVGID_81_" x="-329" y="-488" width="1200" height="4459"/>
			</defs>
			<clipPath id="SVGID_46_">
				<use xlink:href="#SVGID_81_"  overflow="visible"/>
			</clipPath>
			<rect x="309" y="73" clip-path="url(#SVGID_46_)" fill="#E8E5FF" width="14" height="14"/>
		</g>
	</g>
	<g>
		<defs>
			<circle id="SVGID_83_" cx="372" cy="80" r="2"/>
		</defs>
		<clipPath id="SVGID_48_">
			<use xlink:href="#SVGID_83_"  overflow="visible"/>
		</clipPath>
		<g clip-path="url(#SVGID_48_)">
			<defs>
				<rect id="SVGID_85_" x="-329" y="-488" width="1200" height="4459"/>
			</defs>
			<clipPath id="SVGID_50_">
				<use xlink:href="#SVGID_85_"  overflow="visible"/>
			</clipPath>
			<rect x="365" y="73" clip-path="url(#SVGID_50_)" fill="#E8E5FF" width="14" height="14"/>
		</g>
	</g>
	<g>
		<defs>
			<circle id="SVGID_87_" cx="260" cy="80" r="2"/>
		</defs>
		<clipPath id="SVGID_52_">
			<use xlink:href="#SVGID_87_"  overflow="visible"/>
		</clipPath>
		<g clip-path="url(#SVGID_52_)">
			<defs>
				<rect id="SVGID_89_" x="-329" y="-488" width="1200" height="4459"/>
			</defs>
			<clipPath id="SVGID_54_">
				<use xlink:href="#SVGID_89_"  overflow="visible"/>
			</clipPath>
			<rect x="253" y="73" clip-path="url(#SVGID_54_)" fill="#E8E5FF" width="14" height="14"/>
		</g>
	</g>
	<g>
		<defs>
			<circle id="SVGID_91_" cx="203" cy="80" r="2"/>
		</defs>
		<clipPath id="SVGID_56_">
			<use xlink:href="#SVGID_91_"  overflow="visible"/>
		</clipPath>
		<g clip-path="url(#SVGID_56_)">
			<defs>
				<rect id="SVGID_93_" x="-329" y="-488" width="1200" height="4459"/>
			</defs>
			<clipPath id="SVGID_58_">
				<use xlink:href="#SVGID_93_"  overflow="visible"/>
			</clipPath>
			<rect x="196" y="73" clip-path="url(#SVGID_58_)" fill="#E8E5FF" width="14" height="14"/>
		</g>
	</g>
	<g>
		<defs>
			<circle id="SVGID_95_" cx="203" cy="132" r="2"/>
		</defs>
		<clipPath id="SVGID_60_">
			<use xlink:href="#SVGID_95_"  overflow="visible"/>
		</clipPath>
		<g clip-path="url(#SVGID_60_)">
			<defs>
				<rect id="SVGID_97_" x="-329" y="-488" width="1200" height="4459"/>
			</defs>
			<clipPath id="SVGID_62_">
				<use xlink:href="#SVGID_97_"  overflow="visible"/>
			</clipPath>
			<rect x="196" y="125" clip-path="url(#SVGID_62_)" fill="#E8E5FF" width="14" height="14"/>
		</g>
	</g>
	<g>
		<defs>
			<circle id="SVGID_99_" cx="145" cy="80" r="2"/>
		</defs>
		<clipPath id="SVGID_64_">
			<use xlink:href="#SVGID_99_"  overflow="visible"/>
		</clipPath>
		<g clip-path="url(#SVGID_64_)">
			<defs>
				<rect id="SVGID_101_" x="-329" y="-488" width="1200" height="4459"/>
			</defs>
			<clipPath id="SVGID_66_">
				<use xlink:href="#SVGID_101_"  overflow="visible"/>
			</clipPath>
			<rect x="138" y="73" clip-path="url(#SVGID_66_)" fill="#E8E5FF" width="14" height="14"/>
		</g>
	</g>
	<g>
		<defs>
			<circle id="SVGID_103_" cx="145" cy="188" r="2"/>
		</defs>
		<clipPath id="SVGID_68_">
			<use xlink:href="#SVGID_103_"  overflow="visible"/>
		</clipPath>
		<g clip-path="url(#SVGID_68_)">
			<defs>
				<rect id="SVGID_105_" x="-329" y="-488" width="1200" height="4459"/>
			</defs>
			<clipPath id="SVGID_70_">
				<use xlink:href="#SVGID_105_"  overflow="visible"/>
			</clipPath>
			<rect x="138" y="181" clip-path="url(#SVGID_70_)" fill="#E8E5FF" width="14" height="14"/>
		</g>
	</g>
	<g>
		<defs>
			<circle id="SVGID_107_" cx="288" cy="188" r="2"/>
		</defs>
		<clipPath id="SVGID_72_">
			<use xlink:href="#SVGID_107_"  overflow="visible"/>
		</clipPath>
		<g clip-path="url(#SVGID_72_)">
			<defs>
				<rect id="SVGID_109_" x="-329" y="-488" width="1200" height="4459"/>
			</defs>
			<clipPath id="SVGID_74_">
				<use xlink:href="#SVGID_109_"  overflow="visible"/>
			</clipPath>
			<rect x="281" y="181" clip-path="url(#SVGID_74_)" fill="#E8E5FF" width="14" height="14"/>
		</g>
	</g>
	<g>
		<defs>
			<circle id="SVGID_111_" cx="393.5" cy="38.5" r="5.5"/>
		</defs>
		<clipPath id="SVGID_76_">
			<use xlink:href="#SVGID_111_"  overflow="visible"/>
		</clipPath>
		<g clip-path="url(#SVGID_76_)">
			<defs>
				<rect id="SVGID_113_" x="-329" y="-488" width="1200" height="4459"/>
			</defs>
			<clipPath id="SVGID_78_">
				<use xlink:href="#SVGID_113_"  overflow="visible"/>
			</clipPath>
			<rect x="383" y="28" clip-path="url(#SVGID_78_)" fill="#FFFFFF" width="21" height="21"/>
		</g>
	</g>
	<circle fill="none" stroke="#11C26F" stroke-width="2" stroke-miterlimit="10" cx="136.5" cy="281.5" r="5.5"/>
	<circle fill="none" stroke="#11C26F" stroke-width="2" stroke-miterlimit="10" cx="165.5" cy="281.5" r="5.5"/>
	<g>
		<defs>
			<rect id="SVGID_115_" x="11" y="334" width="521" height="53"/>
		</defs>
		<clipPath id="SVGID_80_">
			<use xlink:href="#SVGID_115_"  overflow="visible"/>
		</clipPath>
		<g clip-path="url(#SVGID_80_)">
			<image overflow="visible" width="521" height="53" xlink:href="E53E834EF37E592.png"  transform="matrix(1 0 0 1 11 334)">
			</image>
		</g>
	</g>
	<g>
		<defs>
			<rect id="SVGID_117_" x="-16" y="305" width="614" height="149"/>
		</defs>
		<clipPath id="SVGID_82_">
			<use xlink:href="#SVGID_117_"  overflow="visible"/>
		</clipPath>
	</g>
</g>
</svg>
